SplineFontDB: 3.0
FontName: Aiton_Unicode
FullName: Aiton_Unicode
FamilyName: Aiton_Unicode
Weight: Medium
Copyright: Created by Stephen Morey,U-STEPHENMOREY\\Stephen Morey,S-1-5-2 with FontForge 2.0 (http://fontforge.sf.net)
Version: 001.000
ItalicAngle: 0
UnderlinePosition: -100
UnderlineWidth: 50
Ascent: 800
Descent: 200
sfntRevision: 0x00010000
LayerCount: 2
Layer: 0 1 "Back"  1
Layer: 1 1 "Fore"  0
XUID: [1021 472 -484738075 5490207]
FSType: 0
OS2Version: 1
OS2_WeightWidthSlopeOnly: 0
OS2_UseTypoMetrics: 1
CreationTime: 1257921800
ModificationTime: 1408072941
PfmFamily: 17
TTFWeight: 500
TTFWidth: 5
LineGap: 90
VLineGap: 0
Panose: 2 0 6 3 0 0 0 0 0 0
OS2TypoAscent: 800
OS2TypoAOffset: 0
OS2TypoDescent: -200
OS2TypoDOffset: 0
OS2TypoLinegap: 90
OS2WinAscent: 1690
OS2WinAOffset: 0
OS2WinDescent: 954
OS2WinDOffset: 0
HheadAscent: 1690
HheadAOffset: 0
HheadDescent: -954
HheadDOffset: 0
OS2SubXSize: 650
OS2SubYSize: 699
OS2SubXOff: 0
OS2SubYOff: 140
OS2SupXSize: 650
OS2SupYSize: 699
OS2SupXOff: 0
OS2SupYOff: 479
OS2StrikeYSize: 49
OS2StrikeYPos: 258
OS2Vendor: 'PfEd'
OS2CodePages: 00000001.00000000
OS2UnicodeRanges: 80000000.00002000.00000400.00000000
Lookup: 2 0 0 "Multiple Substitution lookup 0"  {"Multiple Substitution lookup 0 subtable"  } []
Lookup: 2 0 0 "Multiple Substitution lookup 1"  {"Multiple Substitution lookup 1 subtable"  } []
Lookup: 2 0 0 "Multiple Substitution lookup 2"  {"Multiple Substitution lookup 2 subtable"  } []
Lookup: 4 0 0 "'clig' Contextual Ligatures lookup 3"  {"'clig' Contextual Ligatures lookup 3 subtable"  } ['clig' ('DFLT' <'dflt' > 'geor' <'dflt' > 'mymr' <'dflt' > ) ]
Lookup: 6 0 0 "'clig' Contextual Ligatures lookup 4"  {"'clig' Contextual Ligatures lookup 4 subtable"  } ['clig' ('DFLT' <'dflt' > 'geor' <'dflt' > 'mymr' <'dflt' > ) ]
Lookup: 4 0 0 "'clig' Contextual Ligatures lookup 5"  {"'clig' Contextual Ligatures lookup 5 subtable"  } ['clig' ('DFLT' <'dflt' > 'geor' <'dflt' > 'mymr' <'dflt' > ) ]

StartChar: .notdef
Encoding: 65536 -1 0
Width: 131
VWidth: 360
Flags: W
LayerCount: 2
Fore
SplineSet
11.8798828125 0 m 1,0,-1
 11.8798828125 239.759765625 l 1,1,-1
 107.280273438 239.759765625 l 1,2,-1
 107.280273438 0 l 1,3,-1
 11.8798828125 0 l 1,0,-1
23.759765625 11.8798828125 m 1,4,-1
 95.400390625 11.8798828125 l 1,5,-1
 95.400390625 227.879882812 l 1,6,-1
 23.759765625 227.879882812 l 1,7,-1
 23.759765625 11.8798828125 l 1,4,-1
EndSplineSet
EndChar

StartChar: u1000
Encoding: 4096 4096 3
Width: 549
VWidth: 360
GlyphClass: 3
Flags: W
AnchorPoint: "Anchor-3" 385.92 249.84 basechar 0
AnchorPoint: "Anchor-2" 266.4 0 basechar 0
AnchorPoint: "Anchor-1" 434.52 -2.87988 basechar 0
AnchorPoint: "Anchor-0" 472.68 0 basechar 0
LayerCount: 2
Fore
SplineSet
459.360351562 -0.7197265625 m 1,0,1
 456.48046875 -2.51953125 456.48046875 -2.51953125 455.219726562 -1.259765625 c 128,-1,2
 453.959960938 0 453.959960938 0 450 0 c 0,3,4
 420.120117188 0 420.120117188 0 413.280273438 6.1201171875 c 0,5,6
 399.599609375 18 399.599609375 18 399.599609375 35.6396484375 c 0,7,8
 399.599609375 55.4404296875 399.599609375 55.4404296875 413.280273438 65.8798828125 c 0,9,10
 424.080078125 74.51953125 424.080078125 74.51953125 437.400390625 74.51953125 c 0,11,12
 448.919921875 74.51953125 448.919921875 74.51953125 457.919921875 68.759765625 c 0,13,14
 465.83984375 64.080078125 465.83984375 64.080078125 473.040039062 54 c 1,15,16
 481.6796875 69.1201171875 481.6796875 69.1201171875 486 86.400390625 c 1,17,-1
 488.879882812 100.440429688 l 1,18,-1
 488.879882812 124.559570312 l 2,19,20
 488.879882812 168.83984375 488.879882812 168.83984375 457.200195312 200.51953125 c 128,-1,21
 425.51953125 232.200195312 425.51953125 232.200195312 384.120117188 232.200195312 c 2,22,-1
 370.799804688 232.200195312 l 1,23,-1
 360.719726562 230.400390625 l 1,24,25
 356.759765625 230.400390625 356.759765625 230.400390625 346.139648438 225.360351562 c 128,-1,26
 335.51953125 220.3203125 335.51953125 220.3203125 312.120117188 203.400390625 c 1,27,28
 290.51953125 188.280273438 290.51953125 188.280273438 281.879882812 133.200195312 c 0,29,30
 277.559570312 104.040039062 277.559570312 104.040039062 277.559570312 55.080078125 c 1,31,-1
 264.959960938 55.080078125 l 1,32,-1
 266.040039062 55.4404296875 l 1,33,-1
 262.440429688 56.16015625 l 1,34,-1
 261.360351562 96.48046875 l 1,35,-1
 260.280273438 111.959960938 l 1,36,-1
 257.759765625 130.3203125 l 1,37,38
 249.120117188 183.959960938 249.120117188 183.959960938 224.639648438 204.120117188 c 0,39,40
 209.879882812 216.719726562 209.879882812 216.719726562 190.440429688 227.51953125 c 1,41,42
 180 231.48046875 180 231.48046875 170.280273438 234 c 1,43,44
 164.51953125 235.080078125 164.51953125 235.080078125 160.200195312 235.799804688 c 128,-1,45
 155.879882812 236.51953125 155.879882812 236.51953125 151.200195312 236.51953125 c 0,46,47
 109.440429688 236.51953125 109.440429688 236.51953125 77.9404296875 205.01953125 c 128,-1,48
 46.4404296875 173.51953125 46.4404296875 173.51953125 46.4404296875 128.879882812 c 2,49,-1
 46.4404296875 104.759765625 l 1,50,-1
 49.3203125 90.7197265625 l 1,51,-1
 54.7197265625 77.0400390625 l 1,52,-1
 63.7197265625 63.7197265625 l 1,53,-1
 78.83984375 73.7998046875 l 1,54,55
 87.83984375 78.83984375 87.83984375 78.83984375 93.9599609375 78.83984375 c 0,56,57
 103.3203125 78.83984375 103.3203125 78.83984375 118.080078125 70.2001953125 c 1,58,59
 131.759765625 59.400390625 131.759765625 59.400390625 131.759765625 39.9599609375 c 0,60,61
 131.759765625 22.6796875 131.759765625 22.6796875 118.080078125 10.4404296875 c 0,62,63
 115.919921875 8.2802734375 115.919921875 8.2802734375 106.200195312 2.51953125 c 1,64,-1
 93.9599609375 0 l 1,65,66
 77.759765625 0 77.759765625 0 72.3603515625 3.240234375 c 1,67,-1
 59.400390625 15.1201171875 l 2,68,69
 56.16015625 18 56.16015625 18 49.6796875 28.080078125 c 1,70,-1
 42.1201171875 40.6796875 l 1,71,72
 33.48046875 53.2802734375 33.48046875 53.2802734375 26.6396484375 82.4404296875 c 1,73,-1
 22.6796875 106.200195312 l 1,74,-1
 21.240234375 128.879882812 l 1,75,76
 21.240234375 176.040039062 21.240234375 176.040039062 59.0400390625 218.51953125 c 128,-1,77
 96.83984375 261 96.83984375 261 151.200195312 261 c 0,78,79
 185.759765625 261 185.759765625 261 216.900390625 241.379882812 c 128,-1,80
 248.040039062 221.759765625 248.040039062 221.759765625 270 185.759765625 c 1,81,82
 273.959960938 195.83984375 273.959960938 195.83984375 287.280273438 213.48046875 c 1,83,84
 294.120117188 221.400390625 294.120117188 221.400390625 315.719726562 239.040039062 c 1,85,-1
 334.080078125 246.599609375 l 1,86,-1
 351 252 l 1,87,-1
 369 254.879882812 l 1,88,-1
 384.120117188 256.6796875 l 1,89,90
 435.959960938 256.6796875 435.959960938 256.6796875 474.83984375 215.459960938 c 128,-1,91
 513.719726562 174.240234375 513.719726562 174.240234375 513.719726562 124.559570312 c 1,92,-1
 512.280273438 101.879882812 l 1,93,-1
 508.6796875 78.1201171875 l 1,94,95
 502.559570312 51.83984375 502.559570312 51.83984375 493.200195312 36 c 1,96,97
 481.3203125 17.6396484375 481.3203125 17.6396484375 472.6796875 11.16015625 c 1,98,-1
 459.360351562 -0.7197265625 l 1,0,1
EndSplineSet
Ligature2: "'clig' Contextual Ligatures lookup 7 subtable" u1000 u103C
Ligature2: "'clig' Contextual Ligatures lookup 5 subtable" u1000 u1031
MultipleSubs2: "Multiple Substitution lookup 2 subtable" guard u103C u1000
MultipleSubs2: "Multiple Substitution lookup 1 subtable" guard u103C.udia u1000
MultipleSubs2: "Multiple Substitution lookup 0 subtable" guard u1031 u1000
EndChar

StartChar: u1004
Encoding: 4100 4100 4
Width: 242
VWidth: 360
GlyphClass: 3
Flags: W
AnchorPoint: "Anchor-3" 137.52 249.84 basechar 0
AnchorPoint: "Anchor-2" 133.2 0 basechar 0
AnchorPoint: "Anchor-1" 133.2 0 basechar 0
LayerCount: 2
Fore
SplineSet
223.559570312 20.51953125 m 1,0,1
 221.400390625 16.5595703125 221.400390625 16.5595703125 210.959960938 10.080078125 c 1,2,-1
 190.799804688 5.0400390625 l 1,3,-1
 173.879882812 1.4404296875 l 1,4,-1
 154.080078125 0 l 1,5,6
 127.080078125 -0.7197265625 127.080078125 -0.7197265625 105.66015625 8.2802734375 c 128,-1,7
 84.240234375 17.2802734375 84.240234375 17.2802734375 60.48046875 36.7197265625 c 1,8,9
 42.1201171875 54.7197265625 42.1201171875 54.7197265625 31.3203125 77.759765625 c 1,10,11
 26.2802734375 90 26.2802734375 90 23.759765625 101.879882812 c 1,12,-1
 21.9599609375 114.120117188 l 1,13,-1
 21.240234375 128.16015625 l 1,14,15
 21.240234375 181.080078125 21.240234375 181.080078125 59.0400390625 221.040039062 c 0,16,17
 78.48046875 241.559570312 78.48046875 241.559570312 100.080078125 251.280273438 c 0,18,19
 111.240234375 256.3203125 111.240234375 256.3203125 122.400390625 258.83984375 c 0,20,21
 128.16015625 259.919921875 128.16015625 259.919921875 133.919921875 260.639648438 c 128,-1,22
 139.6796875 261.360351562 139.6796875 261.360351562 146.879882812 261.360351562 c 0,23,24
 156.240234375 261.360351562 156.240234375 261.360351562 165.959960938 250.559570312 c 1,25,26
 168.83984375 246.599609375 168.83984375 246.599609375 171.540039062 239.219726562 c 128,-1,27
 174.240234375 231.83984375 174.240234375 231.83984375 174.240234375 225.360351562 c 0,28,29
 174.240234375 213.120117188 174.240234375 213.120117188 172.440429688 210.240234375 c 1,30,31
 172.440429688 208.440429688 172.440429688 208.440429688 165.959960938 195.48046875 c 1,32,33
 158.759765625 185.400390625 158.759765625 185.400390625 140.400390625 174.240234375 c 1,34,35
 125.280273438 167.759765625 125.280273438 167.759765625 109.799804688 167.759765625 c 0,36,37
 105.83984375 167.759765625 105.83984375 167.759765625 97.01953125 169.919921875 c 128,-1,38
 88.2001953125 172.080078125 88.2001953125 172.080078125 81 180.540039062 c 128,-1,39
 73.7998046875 189 73.7998046875 189 71.2802734375 189 c 0,40,41
 61.5595703125 189 61.5595703125 189 54 170.459960938 c 128,-1,42
 46.4404296875 151.919921875 46.4404296875 151.919921875 46.4404296875 128.16015625 c 0,43,44
 46.4404296875 88.919921875 46.4404296875 88.919921875 77.400390625 54.7197265625 c 1,45,46
 108.360351562 24.48046875 108.360351562 24.48046875 154.080078125 24.48046875 c 1,47,-1
 173.16015625 24.83984375 l 1,48,-1
 186.83984375 27.3603515625 l 2,49,50
 202.3203125 30.240234375 202.3203125 30.240234375 212.759765625 38.8798828125 c 1,51,-1
 220.3203125 32.0400390625 l 1,52,-1
 221.759765625 29.16015625 l 1,53,-1
 224.280273438 24.48046875 l 1,54,-1
 223.559570312 20.51953125 l 1,0,1
EndSplineSet
Ligature2: "'clig' Contextual Ligatures lookup 7 subtable" u1004 u103C
Ligature2: "'clig' Contextual Ligatures lookup 5 subtable" u1004 u1031
MultipleSubs2: "Multiple Substitution lookup 2 subtable" guard u103C.nar u1004
MultipleSubs2: "Multiple Substitution lookup 1 subtable" guard u103C.nar.udia u1004
MultipleSubs2: "Multiple Substitution lookup 0 subtable" guard u1031 u1004
EndChar

StartChar: u1010
Encoding: 4112 4112 5
Width: 538
VWidth: 360
GlyphClass: 3
Flags: W
AnchorPoint: "Anchor-3" 390.24 249.84 basechar 0
AnchorPoint: "Anchor-2" 267.84 0 basechar 0
AnchorPoint: "Anchor-1" 411.84 0 basechar 0
LayerCount: 2
Fore
SplineSet
368.639648438 2.8798828125 m 1,0,-1
 358.919921875 6.48046875 l 1,1,-1
 351.719726562 18.3603515625 l 2,2,3
 348.83984375 23.400390625 348.83984375 23.400390625 348.83984375 30.9599609375 c 0,4,5
 348.83984375 34.919921875 348.83984375 34.919921875 352.080078125 41.580078125 c 128,-1,6
 355.3203125 48.240234375 355.3203125 48.240234375 363.240234375 56.8798828125 c 1,7,8
 366.48046875 59.0400390625 366.48046875 59.0400390625 371.16015625 60.1201171875 c 1,9,-1
 378.360351562 61.2001953125 l 1,10,11
 386.280273438 61.2001953125 386.280273438 61.2001953125 391.3203125 57.240234375 c 1,12,13
 396.719726562 54 396.719726562 54 401.400390625 47.16015625 c 1,14,-1
 402.48046875 41.759765625 l 1,15,-1
 403.200195312 32.400390625 l 1,16,-1
 403.200195312 26.2802734375 l 1,17,-1
 402.83984375 22.6796875 l 1,18,19
 413.639648438 22.6796875 413.639648438 22.6796875 424.98046875 27 c 128,-1,20
 436.3203125 31.3203125 436.3203125 31.3203125 460.799804688 55.4404296875 c 0,21,22
 493.200195312 86.759765625 493.200195312 86.759765625 493.200195312 131.400390625 c 0,23,24
 493.200195312 175.6796875 493.200195312 175.6796875 460.799804688 204.83984375 c 1,25,26
 430.919921875 236.51953125 430.919921875 236.51953125 387 236.51953125 c 0,27,28
 344.879882812 236.51953125 344.879882812 236.51953125 313.200195312 204.83984375 c 128,-1,29
 281.51953125 173.16015625 281.51953125 173.16015625 281.51953125 128.879882812 c 0,30,31
 281.51953125 69.48046875 281.51953125 69.48046875 238.3203125 31.6796875 c 1,32,-1
 221.759765625 21.240234375 l 1,33,-1
 198 8.2802734375 l 1,34,-1
 188.639648438 5.0400390625 l 1,35,-1
 174.240234375 1.7998046875 l 1,36,-1
 161.280273438 0 l 1,37,-1
 153.360351562 0 l 2,38,39
 102.599609375 0 102.599609375 0 61.919921875 36.900390625 c 128,-1,40
 21.240234375 73.7998046875 21.240234375 73.7998046875 21.240234375 128.879882812 c 0,41,42
 21.240234375 176.040039062 21.240234375 176.040039062 59.0400390625 218.51953125 c 128,-1,43
 96.83984375 261 96.83984375 261 151.200195312 261 c 0,44,45
 185.759765625 261 185.759765625 261 216.900390625 241.379882812 c 128,-1,46
 248.040039062 221.759765625 248.040039062 221.759765625 270 185.759765625 c 1,47,48
 273.959960938 195.83984375 273.959960938 195.83984375 287.280273438 213.48046875 c 1,49,50
 294.120117188 221.400390625 294.120117188 221.400390625 315.719726562 239.040039062 c 1,51,52
 352.080078125 261 352.080078125 261 387 261 c 0,53,54
 436.6796875 261 436.6796875 261 477.1796875 224.099609375 c 128,-1,55
 517.6796875 187.200195312 517.6796875 187.200195312 517.6796875 131.400390625 c 0,56,57
 517.6796875 80.6396484375 517.6796875 80.6396484375 480.599609375 40.3203125 c 128,-1,58
 443.51953125 0 443.51953125 0 388.440429688 0 c 1,59,-1
 380.51953125 0.7197265625 l 1,60,-1
 368.639648438 2.8798828125 l 1,0,-1
257.400390625 131.400390625 m 0,61,62
 257.400390625 173.16015625 257.400390625 173.16015625 225.719726562 204.83984375 c 0,63,64
 209.16015625 221.400390625 209.16015625 221.400390625 191.51953125 228.599609375 c 1,65,-1
 172.440429688 234.360351562 l 1,66,67
 162.719726562 236.51953125 162.719726562 236.51953125 151.200195312 236.51953125 c 0,68,69
 109.080078125 236.51953125 109.080078125 236.51953125 77.400390625 204.83984375 c 0,70,71
 74.8798828125 202.3203125 74.8798828125 202.3203125 58.3203125 177.48046875 c 1,72,73
 48.599609375 159.120117188 48.599609375 159.120117188 46.4404296875 146.879882812 c 1,74,75
 63.7197265625 168.48046875 63.7197265625 168.48046875 83.16015625 168.48046875 c 0,76,77
 96.48046875 168.48046875 96.48046875 168.48046875 106.919921875 159.48046875 c 1,78,79
 120.599609375 148.6796875 120.599609375 148.6796875 120.599609375 128.879882812 c 0,80,81
 120.599609375 111.599609375 120.599609375 111.599609375 106.919921875 99.3603515625 c 0,82,83
 104.759765625 97.2001953125 104.759765625 97.2001953125 95.0400390625 91.4404296875 c 1,84,-1
 82.7998046875 88.919921875 l 1,85,86
 66.599609375 88.919921875 66.599609375 88.919921875 61.2001953125 92.16015625 c 1,87,-1
 48.240234375 104.040039062 l 1,88,-1
 60.1201171875 79.919921875 l 1,89,-1
 68.400390625 66.599609375 l 1,90,-1
 77.400390625 55.4404296875 l 1,91,92
 106.559570312 24.48046875 106.559570312 24.48046875 153.360351562 24.48046875 c 0,93,94
 195.48046875 24.48046875 195.48046875 24.48046875 226.440429688 55.4404296875 c 128,-1,95
 257.400390625 86.400390625 257.400390625 86.400390625 257.400390625 131.400390625 c 0,61,62
EndSplineSet
Ligature2: "'clig' Contextual Ligatures lookup 7 subtable" u1010 u103C
Ligature2: "'clig' Contextual Ligatures lookup 5 subtable" u1010 u1031
MultipleSubs2: "Multiple Substitution lookup 2 subtable" guard u103C u1010
MultipleSubs2: "Multiple Substitution lookup 1 subtable" guard u103C.udia u1010
MultipleSubs2: "Multiple Substitution lookup 0 subtable" guard u1031 u1010
EndChar

StartChar: u1011
Encoding: 4113 4113 6
Width: 538
VWidth: 360
GlyphClass: 3
Flags: W
AnchorPoint: "Anchor-3" 388.8 249.84 basechar 0
AnchorPoint: "Anchor-2" 267.84 0 basechar 0
AnchorPoint: "Anchor-1" 388.8 0 basechar 0
LayerCount: 2
Fore
SplineSet
493.200195312 131.400390625 m 0,0,1
 493.200195312 175.6796875 493.200195312 175.6796875 460.799804688 204.83984375 c 1,2,3
 430.919921875 236.51953125 430.919921875 236.51953125 387 236.51953125 c 0,4,5
 344.879882812 236.51953125 344.879882812 236.51953125 313.200195312 204.83984375 c 128,-1,6
 281.51953125 173.16015625 281.51953125 173.16015625 281.51953125 128.879882812 c 0,7,8
 281.51953125 84.9599609375 281.51953125 84.9599609375 313.200195312 55.4404296875 c 1,9,10
 343.080078125 24.48046875 343.080078125 24.48046875 388.440429688 24.48046875 c 0,11,12
 428.759765625 24.48046875 428.759765625 24.48046875 460.98046875 55.6201171875 c 128,-1,13
 493.200195312 86.759765625 493.200195312 86.759765625 493.200195312 131.400390625 c 0,0,1
270 185.759765625 m 1,14,15
 273.959960938 195.83984375 273.959960938 195.83984375 287.280273438 213.48046875 c 1,16,17
 294.120117188 221.400390625 294.120117188 221.400390625 315.719726562 239.040039062 c 1,18,19
 352.080078125 261 352.080078125 261 387 261 c 0,20,21
 436.6796875 261 436.6796875 261 477.1796875 224.099609375 c 128,-1,22
 517.6796875 187.200195312 517.6796875 187.200195312 517.6796875 131.400390625 c 0,23,24
 517.6796875 80.6396484375 517.6796875 80.6396484375 480.599609375 40.3203125 c 128,-1,25
 443.51953125 0 443.51953125 0 388.440429688 0 c 0,26,27
 371.16015625 0 371.16015625 0 351.540039062 4.3203125 c 128,-1,28
 331.919921875 8.6396484375 331.919921875 8.6396484375 317.16015625 19.080078125 c 1,29,30
 293.400390625 33.83984375 293.400390625 33.83984375 270 74.51953125 c 1,31,32
 254.879882812 43.2001953125 254.879882812 43.2001953125 221.040039062 20.51953125 c 1,33,34
 187.559570312 0 187.559570312 0 153.360351562 0 c 0,35,36
 102.599609375 0 102.599609375 0 61.919921875 36.900390625 c 128,-1,37
 21.240234375 73.7998046875 21.240234375 73.7998046875 21.240234375 128.879882812 c 0,38,39
 21.240234375 176.040039062 21.240234375 176.040039062 59.0400390625 218.51953125 c 128,-1,40
 96.83984375 261 96.83984375 261 151.200195312 261 c 0,41,42
 185.759765625 261 185.759765625 261 216.900390625 241.379882812 c 128,-1,43
 248.040039062 221.759765625 248.040039062 221.759765625 270 185.759765625 c 1,14,15
50.759765625 159.83984375 m 1,44,-1
 63.3603515625 169.919921875 l 1,45,46
 71.2802734375 174.959960938 71.2802734375 174.959960938 81 174.959960938 c 0,47,48
 91.7998046875 174.959960938 91.7998046875 174.959960938 106.379882812 161.8203125 c 128,-1,49
 120.959960938 148.6796875 120.959960938 148.6796875 120.959960938 129.599609375 c 0,50,51
 120.959960938 111.959960938 120.959960938 111.959960938 107.8203125 98.099609375 c 128,-1,52
 94.6796875 84.240234375 94.6796875 84.240234375 82.080078125 84.240234375 c 0,53,54
 65.51953125 84.240234375 65.51953125 84.240234375 62.6396484375 87.1201171875 c 2,55,-1
 51.83984375 98.2802734375 l 1,56,-1
 58.3203125 82.7998046875 l 1,57,58
 69.83984375 62.6396484375 69.83984375 62.6396484375 77.400390625 55.4404296875 c 1,59,60
 106.559570312 24.48046875 106.559570312 24.48046875 153.360351562 24.48046875 c 0,61,62
 195.48046875 24.48046875 195.48046875 24.48046875 226.440429688 55.4404296875 c 128,-1,63
 257.400390625 86.400390625 257.400390625 86.400390625 257.400390625 131.400390625 c 0,64,65
 257.400390625 173.16015625 257.400390625 173.16015625 225.719726562 204.83984375 c 0,66,67
 209.16015625 221.400390625 209.16015625 221.400390625 191.51953125 228.599609375 c 1,68,-1
 172.440429688 234.360351562 l 1,69,70
 162.719726562 236.51953125 162.719726562 236.51953125 151.200195312 236.51953125 c 0,71,72
 109.080078125 236.51953125 109.080078125 236.51953125 77.400390625 204.83984375 c 0,73,74
 61.5595703125 189 61.5595703125 189 50.759765625 159.83984375 c 1,44,-1
EndSplineSet
Ligature2: "'clig' Contextual Ligatures lookup 7 subtable" u1011 u103C
Ligature2: "'clig' Contextual Ligatures lookup 5 subtable" u1011 u1031
MultipleSubs2: "Multiple Substitution lookup 2 subtable" guard u103C u1011
MultipleSubs2: "Multiple Substitution lookup 1 subtable" guard u103C.udia u1011
MultipleSubs2: "Multiple Substitution lookup 0 subtable" guard u1031 u1011
EndChar

StartChar: u1015
Encoding: 4117 4117 7
Width: 334
VWidth: 360
GlyphClass: 3
Flags: W
AnchorPoint: "Anchor-3" 168.48 249.84 basechar 0
AnchorPoint: "Anchor-2" 169.56 0 basechar 0
AnchorPoint: "Anchor-1" 169.56 0 basechar 0
AnchorPoint: "Anchor-0" 271.08 0 basechar 0
LayerCount: 2
Fore
SplineSet
83.16015625 244.080078125 m 1,0,-1
 95.400390625 247.6796875 l 1,1,2
 105.48046875 247.6796875 105.48046875 247.6796875 119.51953125 240.120117188 c 1,3,4
 133.200195312 230.400390625 133.200195312 230.400390625 133.200195312 212.759765625 c 0,5,6
 133.200195312 199.799804688 133.200195312 199.799804688 119.879882812 186.120117188 c 1,7,8
 108.360351562 176.759765625 108.360351562 176.759765625 95.400390625 176.759765625 c 0,9,10
 79.919921875 176.759765625 79.919921875 176.759765625 77.0400390625 179.639648438 c 2,11,-1
 66.599609375 190.080078125 l 1,12,13
 51.83984375 161.639648438 51.83984375 161.639648438 51.83984375 128.879882812 c 0,14,15
 51.83984375 104.759765625 51.83984375 104.759765625 58.8603515625 87.48046875 c 128,-1,16
 65.8798828125 70.2001953125 65.8798828125 70.2001953125 84.240234375 54.7197265625 c 1,17,-1
 101.879882812 43.2001953125 l 1,18,-1
 123.120117188 32.400390625 l 1,19,-1
 148.3203125 27.3603515625 l 1,20,21
 161.280273438 25.2001953125 161.280273438 25.2001953125 169.559570312 25.2001953125 c 0,22,23
 193.6796875 25.2001953125 193.6796875 25.2001953125 212.040039062 32.0400390625 c 0,24,25
 223.200195312 36 223.200195312 36 230.759765625 41.0400390625 c 1,26,-1
 249.120117188 55.4404296875 l 1,27,28
 263.16015625 68.400390625 263.16015625 68.400390625 273.240234375 86.400390625 c 1,29,-1
 281.16015625 105.120117188 l 1,30,-1
 283.3203125 115.559570312 l 1,31,-1
 284.040039062 127.440429688 l 1,32,33
 284.040039062 165.240234375 284.040039062 165.240234375 266.040039062 193.3203125 c 1,34,35
 260.280273438 205.559570312 260.280273438 205.559570312 252.360351562 211.6796875 c 1,36,-1
 234.360351562 227.16015625 l 1,37,-1
 228.959960938 232.200195312 l 1,38,-1
 225.360351562 239.759765625 l 1,39,-1
 226.080078125 243.360351562 l 1,40,41
 228.959960938 247.6796875 228.959960938 247.6796875 234.360351562 249.83984375 c 1,42,-1
 245.879882812 249.83984375 l 1,43,-1
 267.83984375 230.759765625 l 1,44,-1
 276.48046875 220.6796875 l 1,45,-1
 288.719726562 206.280273438 l 1,46,-1
 296.280273438 190.799804688 l 1,47,-1
 305.639648438 168.120117188 l 1,48,-1
 309.599609375 148.3203125 l 1,49,-1
 311.040039062 134.280273438 l 1,50,-1
 311.400390625 127.440429688 l 1,51,52
 311.400390625 79.919921875 311.400390625 79.919921875 268.559570312 38.16015625 c 0,53,54
 250.200195312 20.16015625 250.200195312 20.16015625 225 10.080078125 c 1,55,56
 213.120117188 5.759765625 213.120117188 5.759765625 199.080078125 2.51953125 c 1,57,-1
 185.400390625 0.7197265625 l 1,58,-1
 169.559570312 0 l 1,59,60
 139.6796875 0 139.6796875 0 115.919921875 9 c 1,61,62
 100.440429688 13.3203125 100.440429688 13.3203125 92.16015625 19.080078125 c 1,63,-1
 82.080078125 25.5595703125 l 1,64,-1
 69.83984375 34.5595703125 l 1,65,-1
 51.83984375 52.2001953125 l 1,66,-1
 36.3603515625 75.240234375 l 1,67,-1
 27 101.16015625 l 1,68,-1
 23.400390625 128.879882812 l 1,69,70
 23.400390625 150.48046875 23.400390625 150.48046875 26.6396484375 168.66015625 c 128,-1,71
 29.8798828125 186.83984375 29.8798828125 186.83984375 41.0400390625 201.599609375 c 2,72,-1
 64.7998046875 234 l 1,73,-1
 83.16015625 244.080078125 l 1,0,-1
EndSplineSet
Ligature2: "'clig' Contextual Ligatures lookup 7 subtable" u1015 u103C
Ligature2: "'clig' Contextual Ligatures lookup 5 subtable" u1015 u1031
MultipleSubs2: "Multiple Substitution lookup 2 subtable" guard u103C.nar u1015
MultipleSubs2: "Multiple Substitution lookup 1 subtable" guard u103C.nar.udia u1015
MultipleSubs2: "Multiple Substitution lookup 0 subtable" guard u1031 u1015
EndChar

StartChar: u101A
Encoding: 4122 4122 8
Width: 538
VWidth: 360
GlyphClass: 3
Flags: W
AnchorPoint: "Anchor-3" 372.96 249.84 basechar 0
AnchorPoint: "Anchor-2" 270.72 0 basechar 0
AnchorPoint: "Anchor-1" 387.36 0 basechar 0
LayerCount: 2
Fore
SplineSet
459.360351562 258.120117188 m 1,0,1
 449.639648438 261.719726562 449.639648438 261.719726562 437.400390625 261.719726562 c 128,-1,2
 425.16015625 261.719726562 425.16015625 261.719726562 413.280273438 251.280273438 c 0,3,4
 399.599609375 239.400390625 399.599609375 239.400390625 399.599609375 221.759765625 c 0,5,6
 399.599609375 201.959960938 399.599609375 201.959960938 413.280273438 191.51953125 c 0,7,8
 424.080078125 182.879882812 424.080078125 182.879882812 437.400390625 182.879882812 c 1,9,-1
 448.200195312 183.959960938 l 1,10,11
 453.959960938 185.040039062 453.959960938 185.040039062 457.200195312 187.919921875 c 1,12,13
 462.240234375 190.440429688 462.240234375 190.440429688 473.040039062 203.400390625 c 1,14,15
 481.6796875 188.280273438 481.6796875 188.280273438 486 171 c 1,16,-1
 488.879882812 156.959960938 l 1,17,-1
 488.879882812 132.83984375 l 2,18,19
 488.879882812 88.5595703125 488.879882812 88.5595703125 457.200195312 56.8798828125 c 128,-1,20
 425.51953125 25.2001953125 425.51953125 25.2001953125 384.120117188 25.2001953125 c 0,21,22
 364.6796875 25.2001953125 364.6796875 25.2001953125 348.48046875 31.6796875 c 1,23,-1
 331.919921875 40.3203125 l 1,24,-1
 312.120117188 53.2802734375 l 1,25,26
 289.799804688 70.2001953125 289.799804688 70.2001953125 281.879882812 124.200195312 c 0,27,28
 277.559570312 153.360351562 277.559570312 153.360351562 277.559570312 202.3203125 c 1,29,-1
 264.959960938 202.3203125 l 1,30,-1
 266.040039062 201.959960938 l 1,31,-1
 262.440429688 201.240234375 l 1,32,-1
 261.360351562 160.559570312 l 1,33,-1
 261 147.599609375 l 1,34,-1
 257.759765625 127.080078125 l 2,35,36
 249.120117188 73.4404296875 249.120117188 73.4404296875 224.639648438 53.2802734375 c 0,37,38
 209.879882812 40.6796875 209.879882812 40.6796875 190.440429688 29.8798828125 c 1,39,40
 180 25.919921875 180 25.919921875 170.280273438 23.400390625 c 1,41,42
 164.51953125 22.3203125 164.51953125 22.3203125 160.200195312 21.599609375 c 128,-1,43
 155.879882812 20.8798828125 155.879882812 20.8798828125 151.200195312 20.8798828125 c 0,44,45
 112.6796875 20.8798828125 112.6796875 20.8798828125 78.1201171875 52.2001953125 c 1,46,47
 63 68.0400390625 63 68.0400390625 54.3603515625 86.759765625 c 1,48,-1
 48.9599609375 105.83984375 l 1,49,50
 47.8798828125 111.959960938 47.8798828125 111.959960938 47.16015625 117.360351562 c 128,-1,51
 46.4404296875 122.759765625 46.4404296875 122.759765625 46.4404296875 128.51953125 c 2,52,-1
 46.4404296875 152.639648438 l 1,53,-1
 49.3203125 166.6796875 l 1,54,-1
 54.7197265625 180 l 1,55,-1
 63.7197265625 193.6796875 l 1,56,-1
 78.83984375 183.599609375 l 1,57,58
 87.83984375 178.559570312 87.83984375 178.559570312 93.9599609375 178.559570312 c 0,59,60
 103.3203125 178.559570312 103.3203125 178.559570312 118.080078125 187.200195312 c 1,61,62
 131.759765625 198 131.759765625 198 131.759765625 217.440429688 c 0,63,64
 131.759765625 234.719726562 131.759765625 234.719726562 118.080078125 246.959960938 c 0,65,66
 112.6796875 252 112.6796875 252 106.200195312 254.51953125 c 1,67,-1
 100.080078125 255.959960938 l 1,68,-1
 93.9599609375 257.400390625 l 1,69,70
 77.759765625 257.400390625 77.759765625 257.400390625 72.3603515625 254.16015625 c 1,71,-1
 59.400390625 242.280273438 l 1,72,73
 56.16015625 240.120117188 56.16015625 240.120117188 49.6796875 229.3203125 c 2,74,-1
 42.1201171875 216.719726562 l 1,75,76
 33.48046875 204.120117188 33.48046875 204.120117188 26.6396484375 174.959960938 c 1,77,-1
 22.6796875 151.200195312 l 1,78,-1
 21.240234375 128.51953125 l 1,79,80
 21.240234375 81 21.240234375 81 59.0400390625 38.7001953125 c 128,-1,81
 96.83984375 -3.599609375 96.83984375 -3.599609375 151.200195312 -3.599609375 c 0,82,83
 185.759765625 -3.599609375 185.759765625 -3.599609375 217.259765625 16.01953125 c 128,-1,84
 248.759765625 35.6396484375 248.759765625 35.6396484375 270 71.6396484375 c 1,85,86
 271.080078125 68.759765625 271.080078125 68.759765625 273.059570312 64.259765625 c 128,-1,87
 275.040039062 59.759765625 275.040039062 59.759765625 276.83984375 56.51953125 c 0,88,89
 280.080078125 50.400390625 280.080078125 50.400390625 286.919921875 43.2001953125 c 1,90,-1
 299.51953125 30.9599609375 l 1,91,-1
 315.719726562 18.3603515625 l 1,92,-1
 351 5.400390625 l 1,93,94
 358.200195312 3.9599609375 358.200195312 3.9599609375 369 2.33984375 c 128,-1,95
 379.799804688 0.7197265625 379.799804688 0.7197265625 384.120117188 0.7197265625 c 0,96,97
 435.959960938 0.7197265625 435.959960938 0.7197265625 474.83984375 41.759765625 c 128,-1,98
 513.719726562 82.7998046875 513.719726562 82.7998046875 513.719726562 132.83984375 c 1,99,-1
 512.280273438 155.51953125 l 1,100,-1
 508.6796875 179.280273438 l 1,101,102
 502.559570312 205.559570312 502.559570312 205.559570312 493.200195312 221.400390625 c 1,103,104
 481.3203125 239.759765625 481.3203125 239.759765625 472.6796875 246.240234375 c 1,105,-1
 459.360351562 258.120117188 l 1,0,1
EndSplineSet
Ligature2: "'clig' Contextual Ligatures lookup 7 subtable" u101A u103C
Ligature2: "'clig' Contextual Ligatures lookup 5 subtable" u101A u1031
MultipleSubs2: "Multiple Substitution lookup 2 subtable" guard u103C u101A
MultipleSubs2: "Multiple Substitution lookup 1 subtable" guard u103C.udia u101A
MultipleSubs2: "Multiple Substitution lookup 0 subtable" guard u1031 u101A
EndChar

StartChar: u101C
Encoding: 4124 4124 9
Width: 538
VWidth: 360
GlyphClass: 3
Flags: W
AnchorPoint: "Anchor-3" 393.12 249.84 basechar 0
AnchorPoint: "Anchor-2" 267.84 0 basechar 0
AnchorPoint: "Anchor-1" 388.8 0 basechar 0
LayerCount: 2
Fore
SplineSet
415.440429688 233.280273438 m 1,0,-1
 418.6796875 221.759765625 l 1,1,2
 418.6796875 218.16015625 418.6796875 218.16015625 417.419921875 214.200195312 c 128,-1,3
 416.16015625 210.240234375 416.16015625 210.240234375 411.120117188 203.759765625 c 1,4,5
 406.799804688 197.280273438 406.799804688 197.280273438 397.440429688 191.51953125 c 1,6,7
 388.080078125 186.48046875 388.080078125 186.48046875 376.919921875 186.48046875 c 0,8,9
 367.200195312 186.48046875 367.200195312 186.48046875 357.66015625 191.879882812 c 128,-1,10
 348.120117188 197.280273438 348.120117188 197.280273438 343.440429688 205.559570312 c 1,11,-1
 340.559570312 212.400390625 l 1,12,-1
 338.759765625 223.559570312 l 1,13,-1
 339.83984375 233.639648438 l 1,14,15
 340.919921875 239.400390625 340.919921875 239.400390625 343.799804688 242.639648438 c 1,16,17
 345.959960938 246.599609375 345.959960938 246.599609375 358.559570312 252.360351562 c 2,18,-1
 377.280273438 261.360351562 l 1,19,-1
 387 261 l 1,20,21
 436.6796875 261 436.6796875 261 477.1796875 224.099609375 c 128,-1,22
 517.6796875 187.200195312 517.6796875 187.200195312 517.6796875 131.400390625 c 0,23,24
 517.6796875 80.6396484375 517.6796875 80.6396484375 480.599609375 40.3203125 c 128,-1,25
 443.51953125 0 443.51953125 0 388.440429688 0 c 0,26,27
 343.080078125 0 343.080078125 0 304.559570312 31.6796875 c 0,28,29
 283.6796875 48.599609375 283.6796875 48.599609375 271.259765625 72.900390625 c 128,-1,30
 258.83984375 97.2001953125 258.83984375 97.2001953125 258.83984375 126 c 0,31,32
 258.83984375 171.719726562 258.83984375 171.719726562 227.16015625 204.120117188 c 128,-1,33
 195.48046875 236.51953125 195.48046875 236.51953125 151.200195312 236.51953125 c 0,34,35
 109.440429688 236.51953125 109.440429688 236.51953125 77.9404296875 205.01953125 c 128,-1,36
 46.4404296875 173.51953125 46.4404296875 173.51953125 46.4404296875 128.879882812 c 0,37,38
 46.4404296875 110.51953125 46.4404296875 110.51953125 52.919921875 90 c 1,39,40
 59.759765625 72.3603515625 59.759765625 72.3603515625 77.400390625 55.4404296875 c 0,41,42
 81 52.2001953125 81 52.2001953125 103.3203125 38.51953125 c 1,43,44
 115.559570312 34.2001953125 115.559570312 34.2001953125 133.200195312 30.9599609375 c 1,45,46
 133.200195312 46.4404296875 133.200195312 46.4404296875 140.400390625 56.8798828125 c 1,47,48
 145.440429688 65.16015625 145.440429688 65.16015625 153.1796875 70.2001953125 c 128,-1,49
 160.919921875 75.240234375 160.919921875 75.240234375 172.440429688 75.240234375 c 0,50,51
 181.080078125 75.240234375 181.080078125 75.240234375 189.719726562 70.919921875 c 1,52,-1
 203.400390625 56.16015625 l 1,53,-1
 207 46.4404296875 l 1,54,-1
 208.080078125 37.080078125 l 1,55,56
 208.080078125 25.919921875 208.080078125 25.919921875 203.040039062 17.2802734375 c 1,57,58
 198.719726562 8.6396484375 198.719726562 8.6396484375 192.240234375 4.3203125 c 1,59,-1
 186.120117188 1.080078125 l 1,60,-1
 178.200195312 -1.7998046875 l 1,61,-1
 173.16015625 -2.51953125 l 1,62,-1
 166.3203125 -3.599609375 l 1,63,-1
 156.599609375 -2.51953125 l 1,64,-1
 149.759765625 -1.4404296875 l 1,65,-1
 138.240234375 -1.080078125 l 2,66,67
 132.48046875 -1.080078125 132.48046875 -1.080078125 127.799804688 0.3603515625 c 1,68,-1
 113.400390625 3.240234375 l 1,69,-1
 102.240234375 7.919921875 l 2,70,71
 96.83984375 10.080078125 96.83984375 10.080078125 81 19.7998046875 c 1,72,-1
 70.919921875 27.3603515625 l 1,73,-1
 60.48046875 36.7197265625 l 1,74,75
 21.240234375 73.7998046875 21.240234375 73.7998046875 21.240234375 128.879882812 c 0,76,77
 21.240234375 176.040039062 21.240234375 176.040039062 59.0400390625 218.51953125 c 128,-1,78
 96.83984375 261 96.83984375 261 151.200195312 261 c 0,79,80
 192.959960938 261 192.959960938 261 235.799804688 230.759765625 c 1,81,82
 281.51953125 192.599609375 281.51953125 192.599609375 281.51953125 128.879882812 c 0,83,84
 281.51953125 88.2001953125 281.51953125 88.2001953125 313.200195312 55.4404296875 c 1,85,86
 346.3203125 24.48046875 346.3203125 24.48046875 388.440429688 24.48046875 c 0,87,88
 428.759765625 24.48046875 428.759765625 24.48046875 460.98046875 55.6201171875 c 128,-1,89
 493.200195312 86.759765625 493.200195312 86.759765625 493.200195312 131.400390625 c 0,90,91
 493.200195312 175.6796875 493.200195312 175.6796875 460.799804688 204.83984375 c 1,92,93
 453.240234375 213.48046875 453.240234375 213.48046875 439.919921875 221.400390625 c 1,94,95
 428.400390625 229.3203125 428.400390625 229.3203125 415.440429688 233.280273438 c 1,0,-1
EndSplineSet
Ligature2: "'clig' Contextual Ligatures lookup 7 subtable" u101C u103C
Ligature2: "'clig' Contextual Ligatures lookup 5 subtable" u101C u1031
MultipleSubs2: "Multiple Substitution lookup 2 subtable" guard u103C u101C
MultipleSubs2: "Multiple Substitution lookup 1 subtable" guard u103C.udia u101C
MultipleSubs2: "Multiple Substitution lookup 0 subtable" guard u1031 u101C
EndChar

StartChar: u101D
Encoding: 4125 4125 10
Width: 303
VWidth: 360
GlyphClass: 3
Flags: W
AnchorPoint: "Anchor-3" 153.36 249.84 basechar 0
AnchorPoint: "Anchor-2" 154.08 0 basechar 0
AnchorPoint: "Anchor-1" 153.36 0 basechar 0
LayerCount: 2
Fore
SplineSet
283.6796875 131.400390625 m 0,0,1
 283.6796875 104.400390625 283.6796875 104.400390625 275.040039062 81.7197265625 c 128,-1,2
 266.400390625 59.0400390625 266.400390625 59.0400390625 245.51953125 38.16015625 c 1,3,4
 206.280273438 0 206.280273438 0 152.639648438 0 c 0,5,6
 100.080078125 0 100.080078125 0 61.01953125 38.33984375 c 128,-1,7
 21.9599609375 76.6796875 21.9599609375 76.6796875 21.9599609375 131.400390625 c 0,8,9
 21.9599609375 184.6796875 21.9599609375 184.6796875 60.2998046875 223.200195312 c 128,-1,10
 98.6396484375 261.719726562 98.6396484375 261.719726562 152.639648438 261.719726562 c 0,11,12
 204.48046875 261.719726562 204.48046875 261.719726562 244.080078125 223.740234375 c 128,-1,13
 283.6796875 185.759765625 283.6796875 185.759765625 283.6796875 131.400390625 c 0,0,1
50.759765625 156.599609375 m 1,14,-1
 66.9599609375 168.120117188 l 1,15,16
 71.6396484375 171 71.6396484375 171 83.16015625 174.959960938 c 1,17,18
 96.1201171875 174.959960938 96.1201171875 174.959960938 110.51953125 163.799804688 c 1,19,20
 127.440429688 150.120117188 127.440429688 150.120117188 127.440429688 130.6796875 c 0,21,22
 127.440429688 117.719726562 127.440429688 117.719726562 111.240234375 100.799804688 c 1,23,24
 105.83984375 96.48046875 105.83984375 96.48046875 97.2001953125 92.16015625 c 1,25,-1
 83.8798828125 88.5595703125 l 1,26,27
 79.2001953125 88.5595703125 79.2001953125 88.5595703125 78.48046875 87.83984375 c 1,28,-1
 74.8798828125 87.83984375 l 1,29,-1
 66.599609375 90 l 1,30,-1
 51.83984375 98.2802734375 l 1,31,-1
 56.16015625 87.1201171875 l 1,32,-1
 62.2802734375 76.6796875 l 2,33,34
 69.1201171875 65.51953125 69.1201171875 65.51953125 78.1201171875 56.8798828125 c 1,35,36
 107.280273438 25.919921875 107.280273438 25.919921875 152.639648438 25.919921875 c 0,37,38
 195.120117188 25.919921875 195.120117188 25.919921875 226.620117188 56.8798828125 c 128,-1,39
 258.120117188 87.83984375 258.120117188 87.83984375 258.120117188 131.400390625 c 0,40,41
 258.120117188 172.799804688 258.120117188 172.799804688 227.16015625 204.299804688 c 128,-1,42
 196.200195312 235.799804688 196.200195312 235.799804688 152.639648438 235.799804688 c 256,43,44
 109.080078125 235.799804688 109.080078125 235.799804688 78.1201171875 204.83984375 c 1,45,-1
 71.2802734375 196.200195312 l 1,46,-1
 62.2802734375 182.16015625 l 1,47,-1
 56.51953125 171.360351562 l 1,48,-1
 50.759765625 156.599609375 l 1,14,-1
EndSplineSet
Ligature2: "'clig' Contextual Ligatures lookup 7 subtable" u101D u103C
Ligature2: "'clig' Contextual Ligatures lookup 5 subtable" u101D u1031
MultipleSubs2: "Multiple Substitution lookup 2 subtable" guard u103C.nar u101D
MultipleSubs2: "Multiple Substitution lookup 1 subtable" guard u103C.nar.udia u101D
MultipleSubs2: "Multiple Substitution lookup 0 subtable" guard u1031 u101D
EndChar

StartChar: u1022
Encoding: 4130 4130 11
Width: 648
VWidth: 360
GlyphClass: 3
Flags: W
AnchorPoint: "Anchor-3" 499.68 249.84 basechar 0
AnchorPoint: "Anchor-2" 326.88 0 basechar 0
AnchorPoint: "Anchor-1" 537.12 0 basechar 0
LayerCount: 2
Fore
SplineSet
545.040039062 0.7197265625 m 1,0,1
 538.200195312 0.7197265625 538.200195312 0.7197265625 534.959960938 2.51953125 c 2,2,-1
 528.48046875 5.400390625 l 1,3,-1
 523.080078125 10.080078125 l 2,4,5
 510.48046875 20.8798828125 510.48046875 20.8798828125 510.48046875 36.3603515625 c 0,6,7
 510.48046875 53.6396484375 510.48046875 53.6396484375 522.719726562 63.3603515625 c 0,8,9
 532.799804688 71.2802734375 532.799804688 71.2802734375 544.6796875 71.2802734375 c 1,10,-1
 559.080078125 69.83984375 l 2,11,12
 567 68.759765625 567 68.759765625 570.959960938 66.240234375 c 2,13,-1
 576.360351562 63.3603515625 l 2,14,15
 581.400390625 60.83984375 581.400390625 60.83984375 583.919921875 58.3203125 c 1,16,17
 593.280273438 75.9599609375 593.280273438 75.9599609375 599.219726562 97.2001953125 c 128,-1,18
 605.16015625 118.440429688 605.16015625 118.440429688 605.16015625 132.120117188 c 0,19,20
 605.16015625 174.240234375 605.16015625 174.240234375 572.400390625 205.740234375 c 128,-1,21
 539.639648438 237.240234375 539.639648438 237.240234375 498.959960938 237.240234375 c 0,22,23
 465.83984375 237.240234375 465.83984375 237.240234375 438.120117188 216.719726562 c 128,-1,24
 410.400390625 196.200195312 410.400390625 196.200195312 401.759765625 164.51953125 c 2,25,-1
 390.599609375 125.280273438 l 1,26,-1
 388.440429688 101.16015625 l 1,27,-1
 383.400390625 78.83984375 l 1,28,29
 378 58.6796875 378 58.6796875 361.440429688 37.4404296875 c 1,30,31
 340.200195312 8.2802734375 340.200195312 8.2802734375 306 -4.3203125 c 1,32,33
 291.959960938 -4.3203125 291.959960938 -4.3203125 291.959960938 7.2001953125 c 1,34,35
 293.040039062 13.6796875 293.040039062 13.6796875 301.6796875 19.7998046875 c 1,36,37
 330.83984375 34.5595703125 330.83984375 34.5595703125 348.83984375 61.2001953125 c 1,38,39
 366.48046875 98.6396484375 366.48046875 98.6396484375 366.48046875 127.440429688 c 0,40,41
 366.48046875 169.559570312 366.48046875 169.559570312 332.639648438 201.240234375 c 128,-1,42
 298.799804688 232.919921875 298.799804688 232.919921875 260.280273438 232.919921875 c 0,43,44
 227.51953125 232.919921875 227.51953125 232.919921875 200.16015625 212.580078125 c 128,-1,45
 172.799804688 192.240234375 172.799804688 192.240234375 163.080078125 159.83984375 c 2,46,-1
 162 156.240234375 l 1,47,-1
 161.639648438 148.3203125 l 1,48,49
 159.83984375 146.51953125 159.83984375 146.51953125 149.040039062 107.639648438 c 1,50,-1
 139.3203125 63.3603515625 l 1,51,-1
 139.3203125 58.6796875 l 1,52,-1
 138.599609375 51.83984375 l 1,53,54
 138.599609375 47.51953125 138.599609375 47.51953125 135.360351562 42.1201171875 c 1,55,56
 131.400390625 33.1201171875 131.400390625 33.1201171875 123.120117188 23.759765625 c 1,57,58
 106.559570312 2.8798828125 106.559570312 2.8798828125 80.2802734375 2.8798828125 c 1,59,60
 57.599609375 5.0400390625 57.599609375 5.0400390625 40.6796875 19.7998046875 c 1,61,62
 21.9599609375 39.599609375 21.9599609375 39.599609375 21.9599609375 60.48046875 c 0,63,64
 21.9599609375 69.1201171875 21.9599609375 69.1201171875 26.2802734375 80.8203125 c 128,-1,65
 30.599609375 92.51953125 30.599609375 92.51953125 39.599609375 102.959960938 c 1,66,-1
 51.48046875 110.879882812 l 2,67,68
 57.9599609375 114.83984375 57.9599609375 114.83984375 63.7197265625 115.200195312 c 1,69,70
 73.4404296875 115.200195312 73.4404296875 115.200195312 82.7998046875 108.360351562 c 1,71,72
 93.9599609375 99.3603515625 93.9599609375 99.3603515625 93.9599609375 84.240234375 c 0,73,74
 93.9599609375 74.51953125 93.9599609375 74.51953125 83.16015625 60.83984375 c 1,75,76
 73.7998046875 52.2001953125 73.7998046875 52.2001953125 64.080078125 52.2001953125 c 1,77,-1
 54 55.4404296875 l 1,78,-1
 46.4404296875 62.6396484375 l 1,79,80
 48.599609375 49.3203125 48.599609375 49.3203125 58.3203125 37.4404296875 c 1,81,82
 66.599609375 28.080078125 66.599609375 28.080078125 81.7197265625 28.080078125 c 0,83,84
 93.599609375 28.080078125 93.599609375 28.080078125 105.48046875 39.9599609375 c 1,85,86
 112.6796875 52.5595703125 112.6796875 52.5595703125 112.6796875 61.919921875 c 1,87,88
 115.919921875 90 115.919921875 90 119.16015625 106.559570312 c 0,89,90
 125.639648438 136.440429688 125.639648438 136.440429688 133.559570312 146.16015625 c 1,91,-1
 134.639648438 149.759765625 l 1,92,-1
 135 157.6796875 l 1,93,-1
 137.16015625 165.959960938 l 1,94,95
 156.599609375 212.759765625 156.599609375 212.759765625 186.120117188 235.080078125 c 128,-1,96
 215.639648438 257.400390625 215.639648438 257.400390625 260.280273438 257.400390625 c 0,97,98
 300.599609375 257.400390625 300.599609375 257.400390625 331.919921875 237.240234375 c 1,99,100
 341.280273438 232.200195312 341.280273438 232.200195312 359.280273438 212.400390625 c 0,101,102
 368.639648438 201.599609375 368.639648438 201.599609375 380.51953125 181.440429688 c 1,103,-1
 384.120117188 187.919921875 l 1,104,105
 391.6796875 204.48046875 391.6796875 204.48046875 397.440429688 214.559570312 c 1,106,-1
 402.120117188 221.040039062 l 1,107,-1
 407.16015625 226.080078125 l 1,108,-1
 424.799804688 239.759765625 l 1,109,110
 454.3203125 261.719726562 454.3203125 261.719726562 498.959960938 261.719726562 c 0,111,112
 540.360351562 261.719726562 540.360351562 261.719726562 571.5 242.099609375 c 128,-1,113
 602.639648438 222.48046875 602.639648438 222.48046875 617.759765625 186.48046875 c 1,114,115
 625.3203125 171.360351562 625.3203125 171.360351562 627.48046875 159.120117188 c 1,116,-1
 629.639648438 129.599609375 l 1,117,-1
 627.48046875 105.48046875 l 1,118,-1
 622.440429688 83.16015625 l 1,119,-1
 618.120117188 69.83984375 l 1,120,-1
 615.599609375 63.7197265625 l 1,121,-1
 613.080078125 57.9599609375 l 2,122,123
 608.759765625 47.51953125 608.759765625 47.51953125 598.860351562 33.83984375 c 128,-1,124
 588.959960938 20.16015625 588.959960938 20.16015625 575.280273438 10.4404296875 c 1,125,126
 564.48046875 3.9599609375 564.48046875 3.9599609375 545.040039062 0.7197265625 c 1,0,1
EndSplineSet
Ligature2: "'clig' Contextual Ligatures lookup 7 subtable" u1022 u103C
Ligature2: "'clig' Contextual Ligatures lookup 5 subtable" u1022 u1031
MultipleSubs2: "Multiple Substitution lookup 2 subtable" guard u103C u1022
MultipleSubs2: "Multiple Substitution lookup 1 subtable" guard u103C.udia u1022
MultipleSubs2: "Multiple Substitution lookup 0 subtable" guard u1031 u1022
EndChar

StartChar: u102D
Encoding: 4141 4141 12
Width: 0
VWidth: 360
GlyphClass: 4
Flags: W
AnchorPoint: "Anchor-3" -147.96 236.52 mark 0
LayerCount: 2
Fore
SplineSet
-41.759765625 363.240234375 m 0,0,1
 -41.759765625 322.919921875 -41.759765625 322.919921875 -73.080078125 289.620117188 c 128,-1,2
 -104.400390625 256.3203125 -104.400390625 256.3203125 -148.6796875 256.3203125 c 256,3,4
 -192.959960938 256.3203125 -192.959960938 256.3203125 -223.919921875 287.280273438 c 128,-1,5
 -254.879882812 318.240234375 -254.879882812 318.240234375 -254.879882812 363.240234375 c 0,6,7
 -254.879882812 407.51953125 -254.879882812 407.51953125 -224.459960938 438.48046875 c 128,-1,8
 -194.040039062 469.440429688 -194.040039062 469.440429688 -148.6796875 469.440429688 c 0,9,10
 -108.719726562 469.440429688 -108.719726562 469.440429688 -73.4404296875 438.120117188 c 1,11,12
 -57.599609375 422.280273438 -57.599609375 422.280273438 -49.6796875 403.919921875 c 1,13,-1
 -43.919921875 384.48046875 l 1,14,15
 -41.759765625 374.759765625 -41.759765625 374.759765625 -41.759765625 363.240234375 c 0,0,1
-67.6796875 363.240234375 m 0,16,17
 -67.6796875 393.48046875 -67.6796875 393.48046875 -91.4404296875 418.6796875 c 128,-1,18
 -115.200195312 443.879882812 -115.200195312 443.879882812 -148.6796875 443.879882812 c 0,19,20
 -178.559570312 443.879882812 -178.559570312 443.879882812 -205.200195312 420.120117188 c 1,21,22
 -213.120117188 412.200195312 -213.120117188 412.200195312 -223.200195312 394.200195312 c 1,23,24
 -229.3203125 379.799804688 -229.3203125 379.799804688 -229.3203125 363.240234375 c 0,25,26
 -229.3203125 334.799804688 -229.3203125 334.799804688 -205.559570312 306.719726562 c 1,27,28
 -194.759765625 294.83984375 -194.759765625 294.83984375 -179.639648438 288.540039062 c 128,-1,29
 -164.51953125 282.240234375 -164.51953125 282.240234375 -148.6796875 282.240234375 c 0,30,31
 -139.3203125 282.240234375 -139.3203125 282.240234375 -132.120117188 283.3203125 c 128,-1,32
 -124.919921875 284.400390625 -124.919921875 284.400390625 -118.080078125 287.280273438 c 0,33,34
 -105.83984375 292.6796875 -105.83984375 292.6796875 -91.4404296875 306 c 1,35,36
 -67.6796875 330.83984375 -67.6796875 330.83984375 -67.6796875 363.240234375 c 0,16,17
EndSplineSet
EndChar

StartChar: u102E
Encoding: 4142 4142 13
Width: 0
VWidth: 360
GlyphClass: 4
Flags: W
AnchorPoint: "Anchor-3" -149.04 236.52 mark 0
LayerCount: 2
Fore
SplineSet
-42.83984375 363.240234375 m 0,0,1
 -42.83984375 318.599609375 -42.83984375 318.599609375 -73.7998046875 287.459960938 c 128,-1,2
 -104.759765625 256.3203125 -104.759765625 256.3203125 -149.759765625 256.3203125 c 0,3,4
 -190.080078125 256.3203125 -190.080078125 256.3203125 -223.01953125 287.8203125 c 128,-1,5
 -255.959960938 319.3203125 -255.959960938 319.3203125 -255.959960938 363.240234375 c 0,6,7
 -255.959960938 407.51953125 -255.959960938 407.51953125 -225 438.48046875 c 128,-1,8
 -194.040039062 469.440429688 -194.040039062 469.440429688 -149.759765625 469.440429688 c 0,9,10
 -109.080078125 469.440429688 -109.080078125 469.440429688 -74.51953125 438.120117188 c 1,11,12
 -58.6796875 422.280273438 -58.6796875 422.280273438 -50.759765625 403.919921875 c 1,13,-1
 -45 384.48046875 l 1,14,15
 -42.83984375 374.759765625 -42.83984375 374.759765625 -42.83984375 363.240234375 c 0,0,1
-78.1201171875 325.799804688 m 1,16,-1
 -75.240234375 332.280273438 l 1,17,-1
 -70.919921875 344.16015625 l 1,18,-1
 -69.1201171875 353.879882812 l 1,19,-1
 -68.400390625 363.240234375 l 1,20,21
 -68.400390625 393.48046875 -68.400390625 393.48046875 -92.16015625 418.6796875 c 128,-1,22
 -115.919921875 443.879882812 -115.919921875 443.879882812 -149.759765625 443.879882812 c 0,23,24
 -181.080078125 443.879882812 -181.080078125 443.879882812 -205.919921875 420.120117188 c 0,25,26
 -213.83984375 412.200195312 -213.83984375 412.200195312 -223.919921875 394.200195312 c 1,27,28
 -230.040039062 379.799804688 -230.040039062 379.799804688 -230.040039062 363.240234375 c 0,29,30
 -230.040039062 344.51953125 -230.040039062 344.51953125 -221.040039062 326.51953125 c 1,31,32
 -212.040039062 338.040039062 -212.040039062 338.040039062 -188.639648438 351.719726562 c 1,33,34
 -169.559570312 360.360351562 -169.559570312 360.360351562 -149.759765625 360.360351562 c 1,35,-1
 -137.879882812 360 l 2,36,37
 -132.120117188 360 -132.120117188 360 -127.799804688 358.559570312 c 1,38,39
 -119.16015625 357.48046875 -119.16015625 357.48046875 -109.440429688 352.080078125 c 1,40,41
 -91.7998046875 343.799804688 -91.7998046875 343.799804688 -78.1201171875 325.799804688 c 1,16,-1
-210.240234375 310.3203125 m 1,42,43
 -185.400390625 282.240234375 -185.400390625 282.240234375 -149.759765625 282.240234375 c 0,44,45
 -114.48046875 282.240234375 -114.48046875 282.240234375 -89.2802734375 309.599609375 c 1,46,47
 -110.51953125 342 -110.51953125 342 -149.759765625 342 c 0,48,49
 -163.440429688 342 -163.440429688 342 -167.040039062 340.200195312 c 1,50,51
 -169.559570312 339.48046875 -169.559570312 339.48046875 -174.059570312 337.860351562 c 128,-1,52
 -178.559570312 336.240234375 -178.559570312 336.240234375 -185.400390625 333 c 1,53,54
 -198.360351562 327.599609375 -198.360351562 327.599609375 -210.240234375 310.3203125 c 1,42,43
EndSplineSet
EndChar

StartChar: u102F
Encoding: 4143 4143 14
Width: 0
VWidth: 360
GlyphClass: 4
Flags: W
AnchorPoint: "Anchor-1" -97.9199 0 mark 0
LayerCount: 2
Fore
SplineSet
-29.16015625 -230.040039062 m 2,0,-1
 -76.3203125 -230.040039062 l 2,1,2
 -87.83984375 -230.040039062 -87.83984375 -230.040039062 -100.080078125 -218.879882812 c 1,3,4
 -111.240234375 -207.719726562 -111.240234375 -207.719726562 -111.240234375 -194.759765625 c 2,5,-1
 -111.240234375 -11.8798828125 l 2,6,7
 -111.240234375 0.7197265625 -111.240234375 0.7197265625 -97.919921875 0.7197265625 c 0,8,9
 -85.3203125 0.7197265625 -85.3203125 0.7197265625 -85.3203125 -11.8798828125 c 2,10,-1
 -85.6796875 -171.719726562 l 1,11,-1
 -84.240234375 -182.16015625 l 2,12,13
 -83.16015625 -191.16015625 -83.16015625 -191.16015625 -81.3603515625 -193.3203125 c 2,14,-1
 -75.9599609375 -199.080078125 l 1,15,-1
 -72.7197265625 -201.599609375 l 1,16,-1
 -70.5595703125 -203.040039062 l 1,17,-1
 -26.2802734375 -203.040039062 l 1,18,-1
 -7.919921875 -198.719726562 l 1,19,20
 26.6396484375 -190.080078125 26.6396484375 -190.080078125 27.7197265625 -191.16015625 c 1,21,-1
 28.4404296875 -194.400390625 l 1,22,-1
 28.7998046875 -198.719726562 l 1,23,24
 28.7998046875 -204.120117188 28.7998046875 -204.120117188 3.9599609375 -217.080078125 c 128,-1,25
 -20.8798828125 -230.040039062 -20.8798828125 -230.040039062 -29.16015625 -230.040039062 c 2,0,-1
EndSplineSet
EndChar

StartChar: u1030
Encoding: 4144 4144 15
Width: 0
VWidth: 360
GlyphClass: 4
Flags: W
AnchorPoint: "Anchor-1" -125.28 0 mark 0
LayerCount: 2
Fore
SplineSet
35.6396484375 -200.16015625 m 1,0,1
 35.6396484375 -205.559570312 35.6396484375 -205.559570312 10.7998046875 -218.51953125 c 128,-1,2
 -14.0400390625 -231.48046875 -14.0400390625 -231.48046875 -22.3203125 -231.48046875 c 2,3,-1
 -69.48046875 -231.48046875 l 2,4,5
 -81 -231.48046875 -81 -231.48046875 -93.240234375 -220.3203125 c 1,6,7
 -104.400390625 -209.16015625 -104.400390625 -209.16015625 -104.400390625 -196.200195312 c 2,8,-1
 -104.400390625 -13.3203125 l 2,9,10
 -104.400390625 -0.7197265625 -104.400390625 -0.7197265625 -91.080078125 -0.7197265625 c 0,11,12
 -78.48046875 -0.7197265625 -78.48046875 -0.7197265625 -78.48046875 -13.3203125 c 2,13,-1
 -78.83984375 -173.16015625 l 1,14,-1
 -77.400390625 -183.599609375 l 2,15,16
 -76.3203125 -192.599609375 -76.3203125 -192.599609375 -74.51953125 -194.759765625 c 2,17,-1
 -69.1201171875 -200.51953125 l 1,18,-1
 -65.8798828125 -203.040039062 l 1,19,-1
 -63.7197265625 -204.48046875 l 1,20,-1
 -19.4404296875 -204.48046875 l 1,21,-1
 -1.080078125 -200.16015625 l 1,22,23
 33.48046875 -191.51953125 33.48046875 -191.51953125 34.5595703125 -192.599609375 c 1,24,-1
 35.2802734375 -195.83984375 l 1,25,-1
 35.6396484375 -200.16015625 l 1,0,1
-109.080078125 -209.879882812 m 1,26,-1
 -144.360351562 -209.16015625 l 2,27,28
 -150.48046875 -209.16015625 -150.48046875 -209.16015625 -153.360351562 -207.360351562 c 2,29,-1
 -161.639648438 -201.240234375 l 1,30,31
 -169.200195312 -192.599609375 -169.200195312 -192.599609375 -169.200195312 -183.599609375 c 2,32,-1
 -169.200195312 -24.1201171875 l 2,33,34
 -169.200195312 -13.3203125 -169.200195312 -13.3203125 -157.3203125 -12.240234375 c 1,35,36
 -144.719726562 -12.240234375 -144.719726562 -12.240234375 -144.719726562 -24.1201171875 c 2,37,-1
 -144.719726562 -169.919921875 l 1,38,-1
 -144.360351562 -176.040039062 l 1,39,-1
 -143.639648438 -180 l 1,40,41
 -140.400390625 -183.959960938 -140.400390625 -183.959960938 -138.959960938 -184.3203125 c 1,42,-1
 -124.200195312 -194.759765625 l 1,43,-1
 -109.080078125 -209.879882812 l 1,26,-1
EndSplineSet
EndChar

StartChar: u1031
Encoding: 4145 4145 16
Width: 242
VWidth: 360
GlyphClass: 3
Flags: W
LayerCount: 2
Fore
SplineSet
223.559570312 238.6796875 m 1,0,-1
 224.280273438 234.360351562 l 1,1,2
 224.280273438 231.120117188 224.280273438 231.120117188 220.3203125 227.16015625 c 1,3,4
 213.83984375 222.120117188 213.83984375 222.120117188 212.759765625 220.3203125 c 1,5,6
 205.919921875 224.280273438 205.919921875 224.280273438 186.48046875 231.48046875 c 1,7,8
 171.360351562 234.719726562 171.360351562 234.719726562 154.080078125 234.719726562 c 0,9,10
 108.719726562 234.719726562 108.719726562 234.719726562 77.400390625 204.48046875 c 1,11,12
 46.4404296875 170.280273438 46.4404296875 170.280273438 46.4404296875 131.040039062 c 2,13,-1
 46.4404296875 120.599609375 l 1,14,-1
 46.4404296875 114.120117188 l 1,15,-1
 48.240234375 104.400390625 l 1,16,17
 48.240234375 101.16015625 48.240234375 101.16015625 53.6396484375 88.5595703125 c 0,18,19
 61.2001953125 70.2001953125 61.2001953125 70.2001953125 71.2802734375 70.2001953125 c 0,20,21
 73.4404296875 70.2001953125 73.4404296875 70.2001953125 80.6396484375 78.66015625 c 128,-1,22
 87.83984375 87.1201171875 87.83984375 87.1201171875 95.0400390625 89.2802734375 c 128,-1,23
 102.240234375 91.4404296875 102.240234375 91.4404296875 110.16015625 91.4404296875 c 0,24,25
 127.080078125 91.4404296875 127.080078125 91.4404296875 142.200195312 84.7802734375 c 128,-1,26
 157.3203125 78.1201171875 157.3203125 78.1201171875 165.959960938 63.7197265625 c 1,27,-1
 170.280273438 53.6396484375 l 1,28,-1
 171.719726562 43.5595703125 l 1,29,30
 171.719726562 27.3603515625 171.719726562 27.3603515625 158.400390625 14.580078125 c 128,-1,31
 145.080078125 1.7998046875 145.080078125 1.7998046875 129.599609375 1.7998046875 c 1,32,-1
 117 1.4404296875 l 1,33,-1
 105.48046875 1.4404296875 l 1,34,-1
 93.240234375 1.7998046875 l 1,35,36
 87.48046875 2.51953125 87.48046875 2.51953125 81.3603515625 5.400390625 c 0,37,38
 72.3603515625 9.3603515625 72.3603515625 9.3603515625 59.400390625 23.400390625 c 0,39,40
 42.1201171875 41.759765625 42.1201171875 41.759765625 31.3203125 72 c 1,41,-1
 23.759765625 101.879882812 l 1,42,-1
 21.9599609375 116.280273438 l 1,43,-1
 21.240234375 131.040039062 l 1,44,45
 21.240234375 182.51953125 21.240234375 182.51953125 61.3798828125 220.860351562 c 128,-1,46
 101.51953125 259.200195312 101.51953125 259.200195312 154.080078125 259.200195312 c 1,47,-1
 173.879882812 257.759765625 l 1,48,-1
 190.799804688 254.16015625 l 1,49,-1
 210.240234375 249.48046875 l 1,50,51
 217.440429688 246.240234375 217.440429688 246.240234375 223.559570312 238.6796875 c 1,0,-1
EndSplineSet
Ligature2: "'clig' Contextual Ligatures lookup 8 subtable" guard u1031
EndChar

StartChar: u1036
Encoding: 4150 4150 17
Width: 11
VWidth: 360
GlyphClass: 4
Flags: W
AnchorPoint: "Anchor-3" -92.8799 265.32 mark 0
LayerCount: 2
Fore
SplineSet
-45 347.400390625 m 1,0,1
 -45 343.080078125 -45 343.080078125 -48.240234375 332.639648438 c 1,2,3
 -51.83984375 325.799804688 -51.83984375 325.799804688 -59.400390625 317.51953125 c 1,4,-1
 -75.599609375 307.440429688 l 1,5,-1
 -92.8798828125 303.83984375 l 1,6,7
 -97.919921875 303.83984375 -97.919921875 303.83984375 -107.639648438 307.080078125 c 1,8,9
 -111.599609375 309.240234375 -111.599609375 309.240234375 -123.48046875 318.240234375 c 1,10,11
 -129.240234375 326.16015625 -129.240234375 326.16015625 -132.120117188 334.080078125 c 1,12,-1
 -134.639648438 342.360351562 l 1,13,-1
 -135.719726562 351.719726562 l 1,14,15
 -135.719726562 369 -135.719726562 369 -121.3203125 382.3203125 c 0,16,17
 -115.919921875 387.360351562 -115.919921875 387.360351562 -105.120117188 390.959960938 c 1,18,19
 -95.0400390625 394.919921875 -95.0400390625 394.919921875 -88.5595703125 394.919921875 c 0,20,21
 -81.3603515625 394.919921875 -81.3603515625 394.919921875 -73.7998046875 391.5 c 128,-1,22
 -66.240234375 388.080078125 -66.240234375 388.080078125 -58.6796875 381.599609375 c 1,23,-1
 -48.599609375 365.040039062 l 1,24,-1
 -46.080078125 356.759765625 l 1,25,-1
 -45 347.400390625 l 1,0,1
-65.51953125 348.83984375 m 1,26,27
 -65.51953125 353.879882812 -65.51953125 353.879882812 -70.919921875 364.6796875 c 1,28,-1
 -78.48046875 370.080078125 l 1,29,-1
 -90 374.759765625 l 1,30,31
 -92.8798828125 374.759765625 -92.8798828125 374.759765625 -104.400390625 368.280273438 c 1,32,33
 -106.919921875 365.759765625 -106.919921875 365.759765625 -109.799804688 360.360351562 c 2,34,-1
 -114.83984375 351 l 1,35,36
 -114.83984375 341.280273438 -114.83984375 341.280273438 -108.719726562 333 c 0,37,38
 -106.559570312 329.759765625 -106.559570312 329.759765625 -101.879882812 327.240234375 c 1,39,-1
 -91.7998046875 325.080078125 l 1,40,41
 -88.2001953125 325.080078125 -88.2001953125 325.080078125 -82.080078125 327.599609375 c 2,42,-1
 -73.4404296875 331.559570312 l 1,43,-1
 -68.400390625 340.200195312 l 1,44,-1
 -65.51953125 348.83984375 l 1,26,27
EndSplineSet
EndChar

StartChar: u103A
Encoding: 4154 4154 18
Width: 13
VWidth: 360
GlyphClass: 4
Flags: W
AnchorPoint: "Anchor-3" -90 236.52 mark 0
LayerCount: 2
Fore
SplineSet
42.48046875 396.719726562 m 1,0,-1
 42.48046875 392.400390625 l 1,1,-1
 39.9599609375 389.16015625 l 1,2,-1
 35.2802734375 389.879882812 l 1,3,-1
 30.240234375 390.599609375 l 1,4,-1
 25.5595703125 391.6796875 l 1,5,-1
 21.240234375 392.400390625 l 1,6,-1
 17.2802734375 393.120117188 l 1,7,-1
 5.0400390625 395.280273438 l 1,8,-1
 -8.2802734375 397.799804688 l 1,9,-1
 -12.240234375 398.51953125 l 1,10,-1
 -28.4404296875 399.959960938 l 1,11,12
 -47.8798828125 399.959960938 -47.8798828125 399.959960938 -74.51953125 388.080078125 c 1,13,14
 -102.599609375 374.040039062 -102.599609375 374.040039062 -114.48046875 345.599609375 c 1,15,-1
 -117.360351562 338.040039062 l 1,16,-1
 -120.599609375 330.120117188 l 1,17,-1
 -120.959960938 320.759765625 l 1,18,-1
 -122.040039062 316.080078125 l 1,19,-1
 -123.120117188 311.040039062 l 1,20,-1
 -123.83984375 304.919921875 l 1,21,22
 -124.559570312 302.759765625 -124.559570312 302.759765625 -122.400390625 299.16015625 c 1,23,-1
 -111.599609375 303.120117188 l 1,24,-1
 -103.6796875 304.200195312 l 1,25,26
 -95.0400390625 303.120117188 -95.0400390625 303.120117188 -89.6396484375 296.639648438 c 1,27,28
 -83.8798828125 290.879882812 -83.8798828125 290.879882812 -83.8798828125 281.51953125 c 1,29,-1
 -84.240234375 276.120117188 l 1,30,31
 -86.400390625 266.400390625 -86.400390625 266.400390625 -95.400390625 259.559570312 c 1,32,-1
 -103.6796875 256.3203125 l 1,33,-1
 -111.959960938 255.599609375 l 1,34,-1
 -119.879882812 257.400390625 l 1,35,-1
 -124.919921875 259.919921875 l 1,36,-1
 -131.040039062 267.83984375 l 1,37,-1
 -136.799804688 277.559570312 l 1,38,-1
 -140.400390625 290.51953125 l 1,39,-1
 -142.559570312 302.040039062 l 1,40,-1
 -142.919921875 318.959960938 l 1,41,-1
 -139.3203125 334.080078125 l 1,42,-1
 -135 349.200195312 l 1,43,44
 -128.16015625 366.83984375 -128.16015625 366.83984375 -115.919921875 378.360351562 c 1,45,46
 -110.16015625 385.200195312 -110.16015625 385.200195312 -102.599609375 390.240234375 c 2,47,-1
 -84.599609375 402.120117188 l 1,48,49
 -76.6796875 406.799804688 -76.6796875 406.799804688 -67.6796875 409.6796875 c 1,50,-1
 -57.240234375 412.559570312 l 1,51,-1
 -46.7998046875 415.799804688 l 1,52,-1
 -28.4404296875 417.240234375 l 1,53,54
 -19.7998046875 417.240234375 -19.7998046875 417.240234375 -6.83984375 415.080078125 c 2,55,-1
 10.7998046875 411.83984375 l 1,56,-1
 14.400390625 410.759765625 l 1,57,58
 16.5595703125 410.759765625 16.5595703125 410.759765625 21.599609375 408.240234375 c 1,59,60
 33.1201171875 405 33.1201171875 405 42.48046875 396.719726562 c 1,0,-1
EndSplineSet
EndChar

StartChar: u103B
Encoding: 4155 4155 19
Width: 65
VWidth: 360
GlyphClass: 4
Flags: W
AnchorPoint: "Anchor-0" -31.3203 6.48047 mark 0
LayerCount: 2
Fore
SplineSet
-35.6396484375 -180.360351562 m 1,0,-1
 -23.759765625 -185.759765625 l 1,1,2
 -7.5595703125 -192.240234375 -7.5595703125 -192.240234375 2.51953125 -192.240234375 c 0,3,4
 15.48046875 -192.240234375 15.48046875 -192.240234375 19.7998046875 -181.799804688 c 1,5,-1
 21.599609375 -170.280273438 l 1,6,-1
 23.0400390625 -156.599609375 l 1,7,-1
 23.400390625 -143.280273438 l 1,8,-1
 23.759765625 163.080078125 l 1,9,-1
 23.759765625 214.919921875 l 2,10,11
 23.759765625 228.959960938 23.759765625 228.959960938 37.4404296875 228.959960938 c 0,12,13
 50.0400390625 228.959960938 50.0400390625 228.959960938 50.0400390625 216.360351562 c 2,14,-1
 50.0400390625 167.759765625 l 1,15,-1
 50.0400390625 163.799804688 l 1,16,-1
 50.0400390625 155.879882812 l 1,17,-1
 50.0400390625 129.240234375 l 1,18,-1
 50.0400390625 96.83984375 l 1,19,-1
 50.0400390625 64.080078125 l 1,20,-1
 50.0400390625 33.1201171875 l 1,21,-1
 50.0400390625 5.400390625 l 1,22,-1
 50.0400390625 -18.3603515625 l 1,23,-1
 50.0400390625 -38.8798828125 l 1,24,-1
 50.0400390625 -55.7998046875 l 1,25,-1
 50.0400390625 -69.83984375 l 1,26,-1
 50.0400390625 -81.3603515625 l 1,27,-1
 50.0400390625 -90.7197265625 l 1,28,-1
 50.0400390625 -98.2802734375 l 1,29,-1
 50.0400390625 -104.400390625 l 1,30,-1
 50.0400390625 -109.440429688 l 1,31,-1
 50.0400390625 -113.400390625 l 1,32,-1
 49.6796875 -123.48046875 l 1,33,-1
 49.6796875 -131.759765625 l 1,34,-1
 48.599609375 -168.48046875 l 1,35,36
 46.4404296875 -190.440429688 46.4404296875 -190.440429688 43.01953125 -198 c 128,-1,37
 39.599609375 -205.559570312 39.599609375 -205.559570312 32.400390625 -210.599609375 c 1,38,-1
 22.6796875 -214.200195312 l 1,39,-1
 9 -215.639648438 l 1,40,41
 -9.7197265625 -215.639648438 -9.7197265625 -215.639648438 -23.400390625 -210.959960938 c 1,42,43
 -41.0400390625 -206.639648438 -41.0400390625 -206.639648438 -57.240234375 -197.639648438 c 0,44,45
 -67.3203125 -191.879882812 -67.3203125 -191.879882812 -77.9404296875 -181.080078125 c 128,-1,46
 -88.5595703125 -170.280273438 -88.5595703125 -170.280273438 -92.8798828125 -161.639648438 c 1,47,-1
 -97.919921875 -147.599609375 l 1,48,-1
 -100.799804688 -118.440429688 l 1,49,-1
 -100.080078125 -78.1201171875 l 1,50,-1
 -99.3603515625 -37.4404296875 l 1,51,-1
 -98.6396484375 -15.48046875 l 1,52,-1
 -97.919921875 7.2001953125 l 1,53,54
 -97.919921875 19.7998046875 -97.919921875 19.7998046875 -84.9599609375 19.7998046875 c 0,55,56
 -72.3603515625 19.7998046875 -72.3603515625 19.7998046875 -72.3603515625 7.2001953125 c 1,57,-1
 -75.599609375 -21.599609375 l 1,58,59
 -78.83984375 -56.16015625 -78.83984375 -56.16015625 -78.83984375 -84.9599609375 c 1,60,-1
 -78.48046875 -104.400390625 l 1,61,-1
 -78.1201171875 -114.48046875 l 1,62,-1
 -78.1201171875 -118.799804688 l 1,63,-1
 -76.6796875 -126.360351562 l 1,64,-1
 -75.599609375 -137.16015625 l 1,65,-1
 -73.7998046875 -143.280273438 l 1,66,-1
 -70.5595703125 -151.200195312 l 1,67,68
 -66.240234375 -162.719726562 -66.240234375 -162.719726562 -53.6396484375 -171 c 1,69,-1
 -35.6396484375 -180.360351562 l 1,0,-1
EndSplineSet
Ligature2: "'clig' Contextual Ligatures lookup 7 subtable" u103B u103C
Ligature2: "'clig' Contextual Ligatures lookup 5 subtable" u103B u1031
EndChar

StartChar: u103C
Encoding: 4156 4156 20
Width: 73
VWidth: 360
GlyphClass: 3
Flags: W
LayerCount: 2
Fore
SplineSet
418.6796875 -27 m 1,0,-1
 420.83984375 -35.6396484375 l 1,1,-1
 421.559570312 -44.6396484375 l 1,2,3
 421.559570312 -59.400390625 421.559570312 -59.400390625 403.200195312 -79.919921875 c 1,4,5
 394.919921875 -87.1201171875 394.919921875 -87.1201171875 353.16015625 -113.759765625 c 1,6,-1
 330.48046875 -126.719726562 l 1,7,-1
 310.3203125 -137.16015625 l 1,8,9
 295.919921875 -144 295.919921875 -144 282.959960938 -147.959960938 c 2,10,-1
 254.51953125 -156.240234375 l 1,11,-1
 240.48046875 -158.040039062 l 1,12,-1
 225 -158.759765625 l 1,13,-1
 220.6796875 -158.759765625 l 1,14,-1
 206.639648438 -158.400390625 l 2,15,16
 199.440429688 -158.400390625 199.440429688 -158.400390625 193.6796875 -156.959960938 c 1,17,-1
 183.240234375 -155.51953125 l 1,18,19
 179.280273438 -155.51953125 179.280273438 -155.51953125 173.16015625 -153.360351562 c 1,20,-1
 166.3203125 -151.919921875 l 1,21,-1
 158.759765625 -149.400390625 l 1,22,23
 127.080078125 -140.040039062 127.080078125 -140.040039062 105.83984375 -118.440429688 c 2,24,-1
 81.3603515625 -93.9599609375 l 1,25,-1
 71.6396484375 -83.8798828125 l 1,26,-1
 64.080078125 -74.8798828125 l 1,27,-1
 60.1201171875 -68.759765625 l 1,28,-1
 55.4404296875 -59.0400390625 l 1,29,-1
 39.599609375 -24.1201171875 l 2,30,31
 35.2802734375 -14.400390625 35.2802734375 -14.400390625 32.0400390625 -1.4404296875 c 2,32,-1
 29.16015625 11.16015625 l 1,33,-1
 26.2802734375 26.6396484375 l 1,34,35
 21.9599609375 56.51953125 21.9599609375 56.51953125 21.9599609375 91.7998046875 c 1,36,-1
 22.6796875 113.759765625 l 1,37,-1
 23.400390625 136.080078125 l 1,38,-1
 24.48046875 156.599609375 l 1,39,-1
 25.919921875 171 l 1,40,-1
 28.080078125 180.719726562 l 1,41,42
 34.2001953125 224.639648438 34.2001953125 224.639648438 42.1201171875 247.6796875 c 1,43,44
 55.080078125 282.240234375 55.080078125 282.240234375 68.0400390625 303.120117188 c 1,45,46
 83.16015625 322.559570312 83.16015625 322.559570312 119.51953125 345.059570312 c 128,-1,47
 155.879882812 367.559570312 155.879882812 367.559570312 206.639648438 380.51953125 c 1,48,-1
 228.599609375 384.83984375 l 1,49,-1
 255.240234375 388.799804688 l 1,50,51
 266.040039062 389.879882812 266.040039062 389.879882812 302.759765625 380.16015625 c 2,52,-1
 351 367.200195312 l 1,53,54
 362.879882812 365.040039062 362.879882812 365.040039062 369.719726562 365.040039062 c 0,55,56
 380.16015625 365.040039062 380.16015625 365.040039062 390.599609375 374.400390625 c 0,57,58
 397.080078125 379.799804688 397.080078125 379.799804688 398.51953125 390.240234375 c 1,59,-1
 401.759765625 408.959960938 l 1,60,-1
 412.559570312 441.719726562 l 1,61,-1
 434.16015625 506.879882812 l 2,62,63
 439.200195312 523.080078125 439.200195312 523.080078125 445.6796875 530.280273438 c 1,64,65
 451.080078125 537.83984375 451.080078125 537.83984375 456.120117188 538.200195312 c 1,66,-1
 458.280273438 536.040039062 l 1,67,-1
 461.16015625 531.360351562 l 1,68,-1
 461.879882812 524.16015625 l 1,69,-1
 461.879882812 520.200195312 l 1,70,-1
 461.16015625 515.51953125 l 1,71,-1
 460.080078125 511.200195312 l 1,72,-1
 458.639648438 505.799804688 l 1,73,-1
 441 444.599609375 l 1,74,-1
 435.240234375 411.120117188 l 1,75,76
 427.6796875 375.48046875 427.6796875 375.48046875 419.040039062 361.440429688 c 128,-1,77
 410.400390625 347.400390625 410.400390625 347.400390625 393.83984375 339.83984375 c 0,78,79
 379.799804688 333.360351562 379.799804688 333.360351562 362.16015625 333.360351562 c 1,80,-1
 354.599609375 333.719726562 l 1,81,-1
 349.200195312 334.799804688 l 1,82,-1
 234 360 l 1,83,84
 225 360 225 360 224.280273438 359.280273438 c 1,85,86
 184.6796875 351 184.6796875 351 149.400390625 331.919921875 c 0,87,88
 122.040039062 317.16015625 122.040039062 317.16015625 99 296.280273438 c 1,89,90
 91.4404296875 287.280273438 91.4404296875 287.280273438 70.2001953125 246.599609375 c 1,91,92
 65.8798828125 234.719726562 65.8798828125 234.719726562 57.599609375 183.240234375 c 1,93,-1
 53.2802734375 138.959960938 l 1,94,-1
 51.83984375 96.48046875 l 1,95,96
 51.83984375 56.16015625 51.83984375 56.16015625 56.16015625 21.240234375 c 128,-1,97
 60.48046875 -13.6796875 60.48046875 -13.6796875 70.2001953125 -34.2001953125 c 1,98,99
 86.400390625 -63.3603515625 86.400390625 -63.3603515625 104.400390625 -79.2001953125 c 1,100,-1
 151.200195312 -110.879882812 l 1,101,102
 167.759765625 -121.3203125 167.759765625 -121.3203125 185.219726562 -127.259765625 c 128,-1,103
 202.6796875 -133.200195312 202.6796875 -133.200195312 217.799804688 -133.200195312 c 0,104,105
 237.240234375 -133.200195312 237.240234375 -133.200195312 260.099609375 -125.8203125 c 128,-1,106
 282.959960938 -118.440429688 282.959960938 -118.440429688 312.120117188 -102.599609375 c 1,107,-1
 342.360351562 -92.51953125 l 2,108,109
 359.280273438 -87.1201171875 359.280273438 -87.1201171875 370.440429688 -73.7998046875 c 1,110,111
 356.400390625 -73.7998046875 356.400390625 -73.7998046875 347.400390625 -63.7197265625 c 128,-1,112
 338.400390625 -53.6396484375 338.400390625 -53.6396484375 338.400390625 -37.080078125 c 0,113,114
 338.400390625 -19.7998046875 338.400390625 -19.7998046875 354.240234375 -9.7197265625 c 1,115,-1
 366.48046875 -3.9599609375 l 1,116,117
 372.959960938 -1.7998046875 372.959960938 -1.7998046875 379.799804688 -1.7998046875 c 1,118,119
 388.080078125 -2.8798828125 388.080078125 -2.8798828125 400.6796875 -10.259765625 c 128,-1,120
 413.280273438 -17.6396484375 413.280273438 -17.6396484375 418.6796875 -27 c 1,0,-1
EndSplineSet
Ligature2: "'clig' Contextual Ligatures lookup 8 subtable" guard u103C
Ligature2: "'clig' Contextual Ligatures lookup 5 subtable" u103C u1031
EndChar

StartChar: u103D
Encoding: 4157 4157 21
Width: 0
VWidth: 360
GlyphClass: 4
Flags: W
AnchorPoint: "Anchor-1" -115.2 0 mark 0
LayerCount: 2
Fore
SplineSet
-24.83984375 -120.599609375 m 2,0,-1
 -24.83984375 -135.719726562 l 1,1,-1
 -26.6396484375 -149.040039062 l 1,2,-1
 -27.7197265625 -157.3203125 l 1,3,-1
 -30.9599609375 -167.040039062 l 1,4,5
 -37.4404296875 -189 -37.4404296875 -189 -50.759765625 -208.080078125 c 1,6,7
 -61.2001953125 -221.040039062 -61.2001953125 -221.040039062 -78.83984375 -234 c 1,8,9
 -93.9599609375 -243.719726562 -93.9599609375 -243.719726562 -114.48046875 -243.719726562 c 0,10,11
 -146.16015625 -243.719726562 -146.16015625 -243.719726562 -177.48046875 -208.080078125 c 1,12,13
 -188.639648438 -193.3203125 -188.639648438 -193.3203125 -195.83984375 -169.559570312 c 1,14,-1
 -198.719726562 -158.400390625 l 1,15,-1
 -201.599609375 -145.799804688 l 1,16,17
 -203.759765625 -134.280273438 -203.759765625 -134.280273438 -203.759765625 -120.599609375 c 0,18,19
 -203.759765625 -72.3603515625 -203.759765625 -72.3603515625 -178.559570312 -35.2802734375 c 128,-1,20
 -153.360351562 1.7998046875 -153.360351562 1.7998046875 -114.48046875 1.7998046875 c 0,21,22
 -80.2802734375 1.7998046875 -80.2802734375 1.7998046875 -52.5595703125 -32.400390625 c 128,-1,23
 -24.83984375 -66.599609375 -24.83984375 -66.599609375 -24.83984375 -120.599609375 c 2,0,-1
-45 -120.599609375 m 0,24,25
 -45 -81.7197265625 -45 -81.7197265625 -64.7998046875 -53.2802734375 c 1,26,27
 -75.599609375 -40.3203125 -75.599609375 -40.3203125 -87.83984375 -32.400390625 c 1,28,29
 -104.400390625 -25.5595703125 -104.400390625 -25.5595703125 -114.48046875 -25.5595703125 c 0,30,31
 -126.719726562 -25.5595703125 -126.719726562 -25.5595703125 -138.959960938 -31.8603515625 c 128,-1,32
 -151.200195312 -38.16015625 -151.200195312 -38.16015625 -162.719726562 -52.5595703125 c 1,33,34
 -183.599609375 -79.919921875 -183.599609375 -79.919921875 -183.599609375 -120.599609375 c 0,35,36
 -183.599609375 -158.759765625 -183.599609375 -158.759765625 -163.440429688 -187.919921875 c 1,37,38
 -145.440429688 -215.280273438 -145.440429688 -215.280273438 -114.48046875 -215.280273438 c 0,39,40
 -86.400390625 -215.280273438 -86.400390625 -215.280273438 -65.7001953125 -188.099609375 c 128,-1,41
 -45 -160.919921875 -45 -160.919921875 -45 -120.599609375 c 0,24,25
EndSplineSet
EndChar

StartChar: u105E
Encoding: 4190 4190 22
Width: 11
VWidth: 360
GlyphClass: 4
Flags: W
AnchorPoint: "Anchor-1" -144 0 mark 0
LayerCount: 2
Fore
SplineSet
-229.6796875 -116.639648438 m 0,0,1
 -228.959960938 -120.599609375 -228.959960938 -120.599609375 -224.639648438 -123.120117188 c 1,2,-1
 -210.959960938 -128.51953125 l 1,3,-1
 -206.639648438 -128.879882812 l 1,4,-1
 -192.240234375 -127.799804688 l 1,5,-1
 -171 -124.200195312 l 1,6,7
 -137.51953125 -118.080078125 -137.51953125 -118.080078125 -137.51953125 -113.759765625 c 256,8,9
 -137.51953125 -109.440429688 -137.51953125 -109.440429688 -167.400390625 -101.51953125 c 1,10,-1
 -197.280273438 -95.0400390625 l 1,11,-1
 -199.799804688 -94.6796875 l 1,12,-1
 -203.759765625 -94.6796875 l 1,13,-1
 -211.6796875 -95.0400390625 l 2,14,15
 -214.919921875 -95.0400390625 -214.919921875 -95.0400390625 -217.799804688 -97.5595703125 c 1,16,17
 -224.639648438 -101.51953125 -224.639648438 -101.51953125 -227.700195312 -105.83984375 c 128,-1,18
 -230.759765625 -110.16015625 -230.759765625 -110.16015625 -229.6796875 -116.639648438 c 0,0,1
-104.400390625 -120.959960938 m 1,19,-1
 -128.879882812 -128.879882812 l 1,20,-1
 -137.879882812 -132.120117188 l 1,21,-1
 -154.799804688 -137.51953125 l 1,22,23
 -179.639648438 -144 -179.639648438 -144 -202.6796875 -144 c 0,24,25
 -213.48046875 -144 -213.48046875 -144 -221.040039062 -141.83984375 c 2,26,-1
 -230.040039062 -138.959960938 l 2,27,28
 -234.719726562 -137.16015625 -234.719726562 -137.16015625 -237.599609375 -133.919921875 c 0,29,30
 -244.080078125 -127.440429688 -244.080078125 -127.440429688 -244.080078125 -118.080078125 c 0,31,32
 -244.080078125 -108.360351562 -244.080078125 -108.360351562 -237.780273438 -98.8203125 c 128,-1,33
 -231.48046875 -89.2802734375 -231.48046875 -89.2802734375 -221.759765625 -84.240234375 c 1,34,-1
 -213.83984375 -82.080078125 l 1,35,-1
 -204.48046875 -81.3603515625 l 1,36,-1
 -198 -81.3603515625 l 1,37,-1
 -193.3203125 -82.080078125 l 1,38,-1
 -154.799804688 -90.7197265625 l 1,39,-1
 -120.599609375 -99.3603515625 l 1,40,-1
 -113.040039062 -101.51953125 l 1,41,-1
 -106.559570312 -102.240234375 l 1,42,-1
 -95.759765625 -100.080078125 l 2,43,44
 -88.5595703125 -98.2802734375 -88.5595703125 -98.2802734375 -84.240234375 -95.0400390625 c 0,45,46
 -71.2802734375 -85.3203125 -71.2802734375 -85.3203125 -66.599609375 -69.48046875 c 1,47,-1
 -66.240234375 -63 l 1,48,49
 -66.240234375 -51.1201171875 -66.240234375 -51.1201171875 -73.7998046875 -39.240234375 c 2,50,-1
 -75.599609375 -36.3603515625 l 1,51,-1
 -79.2001953125 -33.48046875 l 1,52,53
 -80.2802734375 -37.4404296875 -80.2802734375 -37.4404296875 -83.16015625 -39.419921875 c 128,-1,54
 -86.0400390625 -41.400390625 -86.0400390625 -41.400390625 -93.599609375 -42.48046875 c 1,55,56
 -100.440429688 -42.48046875 -100.440429688 -42.48046875 -104.759765625 -39.599609375 c 0,57,58
 -110.51953125 -35.6396484375 -110.51953125 -35.6396484375 -110.51953125 -26.6396484375 c 0,59,60
 -110.51953125 -8.6396484375 -110.51953125 -8.6396484375 -95.759765625 -8.6396484375 c 1,61,-1
 -87.1201171875 -9.3603515625 l 2,62,63
 -85.3203125 -9.3603515625 -85.3203125 -9.3603515625 -74.8798828125 -14.759765625 c 0,64,65
 -69.48046875 -17.6396484375 -69.48046875 -17.6396484375 -59.580078125 -31.6796875 c 128,-1,66
 -49.6796875 -45.7197265625 -49.6796875 -45.7197265625 -49.6796875 -62.2802734375 c 1,67,-1
 -50.759765625 -72.7197265625 l 2,68,69
 -51.83984375 -82.7998046875 -51.83984375 -82.7998046875 -60.83984375 -91.7998046875 c 128,-1,70
 -69.83984375 -100.799804688 -69.83984375 -100.799804688 -84.240234375 -106.919921875 c 1,71,-1
 -33.48046875 -117.719726562 l 1,72,-1
 11.16015625 -129.599609375 l 1,73,-1
 22.6796875 -133.200195312 l 1,74,-1
 34.2001953125 -139.6796875 l 1,75,-1
 36.7197265625 -144 l 1,76,77
 38.8798828125 -149.759765625 38.8798828125 -149.759765625 32.759765625 -149.759765625 c 0,78,79
 28.080078125 -149.759765625 28.080078125 -149.759765625 26.6396484375 -149.040039062 c 2,80,-1
 18.7197265625 -146.879882812 l 1,81,-1
 1.7998046875 -141.48046875 l 1,82,-1
 -20.16015625 -136.799804688 l 1,83,-1
 -34.5595703125 -133.919921875 l 1,84,-1
 -74.16015625 -127.080078125 l 1,85,-1
 -91.7998046875 -124.200195312 l 1,86,-1
 -104.400390625 -120.959960938 l 1,19,-1
EndSplineSet
Ligature2: "'clig' Contextual Ligatures lookup 7 subtable" u105E u103C
Ligature2: "'clig' Contextual Ligatures lookup 5 subtable" u105E u1031
EndChar

StartChar: u1075
Encoding: 4213 4213 23
Width: 423
VWidth: 360
GlyphClass: 3
Flags: W
AnchorPoint: "Anchor-3" 277.2 249.84 basechar 0
AnchorPoint: "Anchor-2" 193.32 0 basechar 0
AnchorPoint: "Anchor-1" 316.44 0 basechar 0
AnchorPoint: "Anchor-0" 371.88 0 basechar 0
LayerCount: 2
Fore
SplineSet
326.51953125 -2.16015625 m 2,0,-1
 322.559570312 -2.16015625 l 2,1,2
 316.799804688 -2.16015625 316.799804688 -2.16015625 310.3203125 0 c 1,3,4
 307.440429688 1.4404296875 307.440429688 1.4404296875 298.799804688 12.240234375 c 1,5,6
 295.919921875 17.2802734375 295.919921875 17.2802734375 295.919921875 24.83984375 c 0,7,8
 295.919921875 29.8798828125 295.919921875 29.8798828125 299.16015625 37.7998046875 c 128,-1,9
 302.400390625 45.7197265625 302.400390625 45.7197265625 310.6796875 51.83984375 c 1,10,-1
 317.51953125 54.7197265625 l 1,11,-1
 324.719726562 55.7998046875 l 1,12,13
 332.280273438 55.7998046875 332.280273438 55.7998046875 340.919921875 50.400390625 c 1,14,15
 347.040039062 45.7197265625 347.040039062 45.7197265625 349.559570312 41.0400390625 c 1,16,-1
 357.48046875 50.759765625 l 1,17,-1
 365.040039062 61.2001953125 l 1,18,19
 382.6796875 98.6396484375 382.6796875 98.6396484375 382.6796875 127.440429688 c 0,20,21
 382.6796875 169.559570312 382.6796875 169.559570312 348.83984375 201.240234375 c 128,-1,22
 315 232.919921875 315 232.919921875 276.48046875 232.919921875 c 0,23,24
 243.719726562 232.919921875 243.719726562 232.919921875 216.360351562 212.580078125 c 128,-1,25
 189 192.240234375 189 192.240234375 179.280273438 159.83984375 c 2,26,-1
 178.200195312 156.240234375 l 1,27,-1
 177.83984375 148.3203125 l 1,28,29
 176.040039062 146.51953125 176.040039062 146.51953125 165.240234375 107.639648438 c 1,30,-1
 155.51953125 63.3603515625 l 1,31,-1
 155.51953125 58.6796875 l 1,32,-1
 154.799804688 51.83984375 l 1,33,34
 154.799804688 47.51953125 154.799804688 47.51953125 151.559570312 42.1201171875 c 1,35,36
 147.599609375 33.1201171875 147.599609375 33.1201171875 139.3203125 23.759765625 c 1,37,38
 122.759765625 2.8798828125 122.759765625 2.8798828125 96.48046875 2.8798828125 c 1,39,-1
 88.919921875 3.9599609375 l 1,40,-1
 82.080078125 7.2001953125 l 1,41,-1
 63 23.400390625 l 1,42,-1
 52.5595703125 35.2802734375 l 1,43,-1
 42.83984375 47.51953125 l 2,44,45
 26.6396484375 68.0400390625 26.6396484375 68.0400390625 19.7998046875 88.2001953125 c 1,46,-1
 16.5595703125 99.7197265625 l 1,47,-1
 13.6796875 113.400390625 l 1,48,-1
 11.8798828125 129.240234375 l 1,49,-1
 11.51953125 142.559570312 l 1,50,-1
 11.8798828125 157.3203125 l 1,51,-1
 11.8798828125 164.879882812 l 2,52,53
 11.8798828125 168.48046875 11.8798828125 168.48046875 13.6796875 171.360351562 c 1,54,55
 15.48046875 180.360351562 15.48046875 180.360351562 24.1201171875 189.719726562 c 2,56,-1
 35.2802734375 201.959960938 l 1,57,58
 41.759765625 207.360351562 41.759765625 207.360351562 51.83984375 207.360351562 c 0,59,60
 62.6396484375 207.360351562 62.6396484375 207.360351562 68.759765625 203.940429688 c 128,-1,61
 74.8798828125 200.51953125 74.8798828125 200.51953125 80.6396484375 187.919921875 c 1,62,-1
 81.7197265625 180.360351562 l 1,63,-1
 81.7197265625 176.400390625 l 2,64,65
 81.7197265625 173.51953125 81.7197265625 173.51953125 81 172.799804688 c 1,66,67
 81 169.200195312 81 169.200195312 77.400390625 163.080078125 c 2,68,-1
 74.16015625 157.3203125 l 1,69,-1
 70.2001953125 153.360351562 l 1,70,-1
 63.7197265625 149.400390625 l 1,71,-1
 55.4404296875 147.959960938 l 1,72,-1
 49.6796875 148.6796875 l 1,73,-1
 41.759765625 149.400390625 l 1,74,75
 36.3603515625 149.400390625 36.3603515625 149.400390625 36.3603515625 140.040039062 c 0,76,77
 36.3603515625 129.959960938 36.3603515625 129.959960938 37.080078125 128.51953125 c 1,78,-1
 40.3203125 113.759765625 l 1,79,-1
 45.3603515625 92.51953125 l 1,80,-1
 49.6796875 80.6396484375 l 1,81,-1
 56.8798828125 68.0400390625 l 1,82,83
 60.1201171875 61.2001953125 60.1201171875 61.2001953125 75.599609375 46.7998046875 c 1,84,-1
 84.9599609375 35.2802734375 l 1,85,86
 91.4404296875 28.080078125 91.4404296875 28.080078125 97.919921875 28.080078125 c 0,87,88
 109.799804688 28.080078125 109.799804688 28.080078125 121.6796875 39.9599609375 c 1,89,90
 128.879882812 52.5595703125 128.879882812 52.5595703125 128.879882812 61.919921875 c 1,91,92
 132.120117188 90 132.120117188 90 135.360351562 106.559570312 c 0,93,94
 141.83984375 136.440429688 141.83984375 136.440429688 149.759765625 146.16015625 c 1,95,-1
 150.83984375 149.759765625 l 1,96,-1
 151.200195312 157.6796875 l 1,97,-1
 153.360351562 165.959960938 l 1,98,99
 172.799804688 212.759765625 172.799804688 212.759765625 202.3203125 235.080078125 c 128,-1,100
 231.83984375 257.400390625 231.83984375 257.400390625 276.48046875 257.400390625 c 0,101,102
 316.799804688 257.400390625 316.799804688 257.400390625 347.940429688 237.780273438 c 128,-1,103
 379.080078125 218.16015625 379.080078125 218.16015625 395.280273438 182.16015625 c 1,104,-1
 400.6796875 168.120117188 l 1,105,-1
 404.639648438 154.799804688 l 1,106,-1
 406.799804688 125.280273438 l 1,107,-1
 404.639648438 101.16015625 l 1,108,-1
 399.599609375 78.83984375 l 1,109,110
 393.83984375 59.759765625 393.83984375 59.759765625 379.440429688 39.419921875 c 128,-1,111
 365.040039062 19.080078125 365.040039062 19.080078125 353.879882812 9.3603515625 c 0,112,113
 340.559570312 -2.16015625 340.559570312 -2.16015625 326.51953125 -2.16015625 c 2,0,-1
EndSplineSet
Ligature2: "'clig' Contextual Ligatures lookup 7 subtable" u1075 u103C
Ligature2: "'clig' Contextual Ligatures lookup 5 subtable" u1075 u1031
MultipleSubs2: "Multiple Substitution lookup 2 subtable" guard u103C.nar u1075
MultipleSubs2: "Multiple Substitution lookup 1 subtable" guard u103C.nar.udia u1075
MultipleSubs2: "Multiple Substitution lookup 0 subtable" guard u1031 u1075
EndChar

StartChar: u1078
Encoding: 4216 4216 24
Width: 538
VWidth: 360
GlyphClass: 3
Flags: W
AnchorPoint: "Anchor-3" 380.16 249.84 basechar 0
AnchorPoint: "Anchor-2" 256.32 0 basechar 0
AnchorPoint: "Anchor-1" 384.48 0 basechar 0
AnchorPoint: "Anchor-0" 463.68 0 basechar 0
LayerCount: 2
Fore
SplineSet
276.48046875 169.559570312 m 1,0,-1
 289.080078125 178.559570312 l 2,1,2
 296.280273438 183.599609375 296.280273438 183.599609375 310.3203125 183.599609375 c 256,3,4
 324.360351562 183.599609375 324.360351562 183.599609375 340.559570312 169.559570312 c 1,5,6
 358.200195312 152.639648438 358.200195312 152.639648438 358.200195312 129.240234375 c 0,7,8
 358.200195312 108.360351562 358.200195312 108.360351562 342.360351562 91.6201171875 c 128,-1,9
 326.51953125 74.8798828125 326.51953125 74.8798828125 311.400390625 74.8798828125 c 0,10,11
 291.959960938 74.8798828125 291.959960938 74.8798828125 288.360351562 78.48046875 c 2,12,-1
 275.400390625 91.7998046875 l 1,13,-1
 276.48046875 81.3603515625 l 1,14,15
 281.51953125 69.48046875 281.51953125 69.48046875 288.360351562 63 c 1,16,-1
 301.3203125 54 l 1,17,-1
 322.200195312 40.6796875 l 1,18,-1
 344.51953125 29.51953125 l 1,19,-1
 362.16015625 24.48046875 l 1,20,-1
 376.559570312 22.6796875 l 1,21,22
 396.719726562 22.6796875 396.719726562 22.6796875 428.219726562 38.51953125 c 128,-1,23
 459.719726562 54.3603515625 459.719726562 54.3603515625 469.080078125 70.2001953125 c 1,24,-1
 475.559570312 84.599609375 l 1,25,-1
 481.6796875 102.240234375 l 1,26,-1
 484.919921875 119.879882812 l 1,27,-1
 486.360351562 135.719726562 l 1,28,29
 486.360351562 177.83984375 486.360351562 177.83984375 453.599609375 209.33984375 c 128,-1,30
 420.83984375 240.83984375 420.83984375 240.83984375 380.16015625 240.83984375 c 0,31,32
 345.240234375 240.83984375 345.240234375 240.83984375 317.51953125 219.599609375 c 0,33,34
 309.599609375 213.83984375 309.599609375 213.83984375 304.559570312 207.360351562 c 1,35,-1
 298.080078125 201.240234375 l 1,36,-1
 290.879882812 192.959960938 l 1,37,-1
 285.48046875 184.6796875 l 1,38,-1
 276.48046875 169.559570312 l 1,0,-1
247.6796875 131.040039062 m 1,39,-1
 247.3203125 141.83984375 l 2,40,41
 247.3203125 145.440429688 247.3203125 145.440429688 244.799804688 155.16015625 c 1,42,43
 243.719726562 163.080078125 243.719726562 163.080078125 237.240234375 177.120117188 c 1,44,45
 226.799804688 202.3203125 226.799804688 202.3203125 214.919921875 214.200195312 c 1,46,47
 210.599609375 219.240234375 210.599609375 219.240234375 201.959960938 223.919921875 c 1,48,49
 196.559570312 228.240234375 196.559570312 228.240234375 185.040039062 230.759765625 c 1,50,-1
 175.6796875 231.83984375 l 1,51,-1
 172.080078125 231.83984375 l 1,52,-1
 158.040039062 231.83984375 l 1,53,-1
 146.16015625 230.040039062 l 1,54,55
 142.559570312 230.040039062 142.559570312 230.040039062 137.879882812 228.599609375 c 2,56,-1
 125.280273438 224.639648438 l 1,57,58
 100.440429688 218.16015625 100.440429688 218.16015625 87.1201171875 204.83984375 c 1,59,60
 74.51953125 194.400390625 74.51953125 194.400390625 62.6396484375 172.080078125 c 1,61,-1
 56.8798828125 152.639648438 l 1,62,63
 54.7197265625 142.919921875 54.7197265625 142.919921875 54.7197265625 131.400390625 c 0,64,65
 54.7197265625 96.83984375 54.7197265625 96.83984375 57.7802734375 86.400390625 c 128,-1,66
 60.83984375 75.9599609375 60.83984375 75.9599609375 75.599609375 61.2001953125 c 1,67,-1
 90 72 l 1,68,69
 92.8798828125 74.8798828125 92.8798828125 74.8798828125 104.400390625 79.2001953125 c 1,70,71
 116.639648438 79.2001953125 116.639648438 79.2001953125 125.280273438 72 c 0,72,73
 136.799804688 62.6396484375 136.799804688 62.6396484375 136.799804688 45 c 2,74,-1
 136.799804688 32.0400390625 l 2,75,76
 136.799804688 18 136.799804688 18 133.200195312 12.9599609375 c 0,77,78
 127.799804688 5.400390625 127.799804688 5.400390625 111.599609375 5.400390625 c 0,79,80
 102.599609375 5.400390625 102.599609375 5.400390625 93.240234375 7.5595703125 c 128,-1,81
 83.8798828125 9.7197265625 83.8798828125 9.7197265625 70.2001953125 23.400390625 c 1,82,83
 49.6796875 37.4404296875 49.6796875 37.4404296875 38.51953125 72.3603515625 c 1,84,-1
 35.2802734375 84.240234375 l 1,85,-1
 32.0400390625 103.6796875 l 1,86,-1
 30.599609375 116.639648438 l 1,87,-1
 30.240234375 131.400390625 l 1,88,89
 30.240234375 182.879882812 30.240234375 182.879882812 70.2001953125 223.559570312 c 1,90,91
 88.5595703125 240.83984375 88.5595703125 240.83984375 120.240234375 250.559570312 c 0,92,93
 136.799804688 255.599609375 136.799804688 255.599609375 151.200195312 258.120117188 c 1,94,-1
 165.959960938 259.919921875 l 1,95,-1
 181.440429688 260.639648438 l 1,96,-1
 190.080078125 260.280273438 l 2,97,98
 194.759765625 260.280273438 194.759765625 260.280273438 199.440429688 258.48046875 c 2,99,-1
 205.200195312 256.3203125 l 1,100,101
 209.879882812 255.240234375 209.879882812 255.240234375 212.759765625 252.360351562 c 1,102,103
 222.83984375 246.959960938 222.83984375 246.959960938 230.040039062 237.959960938 c 1,104,105
 240.120117188 226.440429688 240.120117188 226.440429688 250.559570312 206.280273438 c 2,106,-1
 261.719726562 185.040039062 l 1,107,-1
 265.3203125 191.51953125 l 1,108,109
 273.959960938 214.559570312 273.959960938 214.559570312 279 218.51953125 c 1,110,-1
 288.719726562 229.6796875 l 1,111,-1
 306 243.360351562 l 1,112,113
 335.51953125 265.3203125 335.51953125 265.3203125 380.16015625 265.3203125 c 0,114,115
 421.559570312 265.3203125 421.559570312 265.3203125 452.700195312 245.700195312 c 128,-1,116
 483.83984375 226.080078125 483.83984375 226.080078125 498.959960938 190.080078125 c 1,117,118
 506.51953125 174.959960938 506.51953125 174.959960938 508.6796875 162.719726562 c 1,119,-1
 510.83984375 133.200195312 l 1,120,-1
 508.6796875 109.080078125 l 1,121,-1
 503.639648438 86.759765625 l 2,122,123
 502.200195312 81 502.200195312 81 495 66.599609375 c 1,124,-1
 491.759765625 60.83984375 l 1,125,-1
 488.879882812 55.7998046875 l 1,126,-1
 481.3203125 45.7197265625 l 1,127,128
 469.799804688 30.9599609375 469.799804688 30.9599609375 440.8203125 16.2001953125 c 128,-1,129
 411.83984375 1.4404296875 411.83984375 1.4404296875 385.559570312 1.4404296875 c 2,130,-1
 381.240234375 1.4404296875 l 2,131,132
 365.040039062 1.4404296875 365.040039062 1.4404296875 357.299804688 2.51953125 c 128,-1,133
 349.559570312 3.599609375 349.559570312 3.599609375 344.33984375 4.6796875 c 128,-1,134
 339.120117188 5.759765625 339.120117188 5.759765625 331.919921875 8.6396484375 c 1,135,136
 302.400390625 17.2802734375 302.400390625 17.2802734375 284.400390625 35.2802734375 c 1,137,-1
 275.040039062 45 l 1,138,-1
 267.48046875 54.7197265625 l 1,139,-1
 257.040039062 68.400390625 l 1,140,-1
 252.360351562 91.080078125 l 1,141,-1
 249.48046875 112.3203125 l 1,142,-1
 247.6796875 131.040039062 l 1,39,-1
EndSplineSet
Ligature2: "'clig' Contextual Ligatures lookup 7 subtable" u1078 u103C
Ligature2: "'clig' Contextual Ligatures lookup 5 subtable" u1078 u1031
MultipleSubs2: "Multiple Substitution lookup 2 subtable" guard u103C u1078
MultipleSubs2: "Multiple Substitution lookup 1 subtable" guard u103C.udia u1078
MultipleSubs2: "Multiple Substitution lookup 0 subtable" guard u1031 u1078
EndChar

StartChar: u107A
Encoding: 4218 4218 25
Width: 558
VWidth: 360
GlyphClass: 3
Flags: W
AnchorPoint: "Anchor-3" 419.04 249.84 basechar 0
AnchorPoint: "Anchor-2" 296.64 0 basechar 0
AnchorPoint: "Anchor-1" 456.48 0 basechar 0
LayerCount: 2
Fore
SplineSet
280.080078125 59.400390625 m 1,0,-1
 295.200195312 93.599609375 l 1,1,2
 302.400390625 113.400390625 302.400390625 113.400390625 302.400390625 127.440429688 c 0,3,4
 302.400390625 171 302.400390625 171 271.440429688 202.5 c 128,-1,5
 240.48046875 234 240.48046875 234 205.559570312 234 c 0,6,7
 198.360351562 234 198.360351562 234 189.719726562 229.6796875 c 1,8,-1
 179.639648438 219.599609375 l 1,9,10
 167.759765625 208.799804688 167.759765625 208.799804688 159.48046875 193.139648438 c 128,-1,11
 151.200195312 177.48046875 151.200195312 177.48046875 146.879882812 159.83984375 c 1,12,-1
 145.799804688 156.240234375 l 1,13,-1
 145.440429688 148.3203125 l 1,14,-1
 138.959960938 106.200195312 l 2,15,16
 136.799804688 91.7998046875 136.799804688 91.7998046875 133.559570312 80.6396484375 c 1,17,-1
 128.16015625 67.6796875 l 1,18,-1
 125.280273438 59.0400390625 l 1,19,20
 125.280273438 52.2001953125 125.280273438 52.2001953125 121.3203125 48.240234375 c 2,21,-1
 116.280273438 42.83984375 l 1,22,-1
 108.360351562 36 l 1,23,-1
 97.5595703125 29.16015625 l 1,24,-1
 88.2001953125 24.48046875 l 1,25,-1
 79.919921875 22.3203125 l 1,26,-1
 71.2802734375 21.599609375 l 1,27,28
 64.080078125 21.599609375 64.080078125 21.599609375 52.2001953125 24.83984375 c 1,29,-1
 35.6396484375 32.400390625 l 2,30,31
 30.9599609375 34.5595703125 30.9599609375 34.5595703125 24.83984375 48.240234375 c 1,32,-1
 20.51953125 58.6796875 l 1,33,-1
 14.400390625 74.16015625 l 1,34,-1
 12.240234375 86.0400390625 l 1,35,-1
 11.16015625 105.48046875 l 1,36,-1
 10.080078125 155.879882812 l 2,37,38
 10.080078125 168.120117188 10.080078125 168.120117188 13.8603515625 177.66015625 c 128,-1,39
 17.6396484375 187.200195312 17.6396484375 187.200195312 25.919921875 198.360351562 c 1,40,-1
 36.7197265625 206.280273438 l 2,41,42
 42.1201171875 210.240234375 42.1201171875 210.240234375 47.51953125 210.599609375 c 1,43,44
 56.51953125 210.599609375 56.51953125 210.599609375 64.7998046875 203.759765625 c 1,45,46
 74.8798828125 194.759765625 74.8798828125 194.759765625 74.8798828125 179.639648438 c 0,47,48
 74.8798828125 169.919921875 74.8798828125 169.919921875 65.16015625 156.240234375 c 1,49,50
 56.8798828125 147.599609375 56.8798828125 147.599609375 47.8798828125 147.599609375 c 1,51,-1
 38.8798828125 150.83984375 l 1,52,-1
 32.0400390625 158.040039062 l 1,53,-1
 32.0400390625 151.200195312 l 1,54,-1
 31.6796875 132.120117188 l 1,55,-1
 31.6796875 115.919921875 l 1,56,-1
 32.0400390625 89.2802734375 l 2,57,58
 32.0400390625 78.83984375 32.0400390625 78.83984375 33.83984375 75.240234375 c 1,59,60
 37.080078125 64.080078125 37.080078125 64.080078125 43.2001953125 56.16015625 c 2,61,-1
 48.240234375 50.0400390625 l 1,62,-1
 51.83984375 46.7998046875 l 1,63,-1
 59.759765625 43.5595703125 l 1,64,-1
 73.4404296875 42.1201171875 l 1,65,-1
 77.759765625 42.1201171875 l 2,66,67
 87.83984375 42.1201171875 87.83984375 42.1201171875 91.7998046875 43.5595703125 c 1,68,69
 96.48046875 44.6396484375 96.48046875 44.6396484375 100.440429688 54 c 1,70,-1
 103.6796875 67.6796875 l 1,71,72
 105.83984375 78.48046875 105.83984375 78.48046875 107.280273438 80.2802734375 c 1,73,-1
 114.48046875 126 l 2,74,75
 116.639648438 141.120117188 116.639648438 141.120117188 120.240234375 146.16015625 c 1,76,-1
 121.3203125 149.759765625 l 1,77,-1
 121.3203125 157.6796875 l 1,78,-1
 123.48046875 165.959960938 l 1,79,80
 132.120117188 190.799804688 132.120117188 190.799804688 141.83984375 208.259765625 c 128,-1,81
 151.559570312 225.719726562 151.559570312 225.719726562 165.240234375 237.599609375 c 2,82,-1
 182.51953125 253.080078125 l 1,83,84
 189 257.400390625 189 257.400390625 206.639648438 257.400390625 c 0,85,86
 243 257.400390625 243 257.400390625 271.080078125 237.240234375 c 1,87,88
 281.51953125 230.759765625 281.51953125 230.759765625 295.919921875 212.400390625 c 1,89,-1
 315 181.440429688 l 1,90,-1
 318.240234375 187.919921875 l 1,91,92
 321.83984375 201.240234375 321.83984375 201.240234375 330.120117188 214.559570312 c 1,93,-1
 334.440429688 221.040039062 l 1,94,-1
 338.759765625 226.080078125 l 1,95,-1
 354.599609375 239.759765625 l 2,96,97
 367.200195312 250.200195312 367.200195312 250.200195312 385.200195312 255.959960938 c 1,98,-1
 403.200195312 260.280273438 l 1,99,-1
 421.559570312 261.719726562 l 1,100,101
 458.280273438 261.719726562 458.280273438 261.719726562 486.540039062 242.280273438 c 128,-1,102
 514.799804688 222.83984375 514.799804688 222.83984375 528.48046875 186.48046875 c 2,103,-1
 533.879882812 172.080078125 l 1,104,-1
 537.120117188 159.120117188 l 1,105,-1
 539.280273438 129.599609375 l 1,106,-1
 537.120117188 105.48046875 l 1,107,-1
 532.799804688 83.16015625 l 1,108,-1
 528.83984375 69.83984375 l 1,109,-1
 526.3203125 62.6396484375 l 1,110,-1
 524.16015625 57.9599609375 l 1,111,-1
 518.400390625 45.3603515625 l 1,112,-1
 511.559570312 33.83984375 l 1,113,114
 500.759765625 18.7197265625 500.759765625 18.7197265625 490.3203125 10.4404296875 c 1,115,116
 479.879882812 3.9599609375 479.879882812 3.9599609375 462.959960938 0.7197265625 c 1,117,-1
 452.879882812 2.8798828125 l 1,118,-1
 448.200195312 5.759765625 l 1,119,-1
 443.16015625 10.080078125 l 1,120,121
 432 21.240234375 432 21.240234375 432 36.3603515625 c 0,122,123
 432 53.6396484375 432 53.6396484375 442.799804688 63.3603515625 c 0,124,125
 451.799804688 71.2802734375 451.799804688 71.2802734375 462.599609375 71.2802734375 c 1,126,-1
 475.559570312 69.83984375 l 1,127,128
 486.360351562 67.6796875 486.360351562 67.6796875 497.879882812 58.3203125 c 1,129,130
 505.080078125 73.7998046875 505.080078125 73.7998046875 511.01953125 96.1201171875 c 128,-1,131
 516.959960938 118.440429688 516.959960938 118.440429688 516.959960938 132.120117188 c 0,132,133
 516.959960938 174.959960938 516.959960938 174.959960938 487.620117188 206.099609375 c 128,-1,134
 458.280273438 237.240234375 458.280273438 237.240234375 421.559570312 237.240234375 c 0,135,136
 392.400390625 237.240234375 392.400390625 237.240234375 365.400390625 215.639648438 c 1,137,138
 340.559570312 195.120117188 340.559570312 195.120117188 334.080078125 164.51953125 c 1,139,-1
 324 125.280273438 l 1,140,-1
 322.200195312 101.16015625 l 1,141,-1
 317.51953125 78.83984375 l 1,142,143
 315.360351562 71.2802734375 315.360351562 71.2802734375 290.33984375 35.4599609375 c 128,-1,144
 265.3203125 -0.3603515625 265.3203125 -0.3603515625 257.400390625 -7.2001953125 c 1,145,-1
 246.240234375 -18.7197265625 l 1,146,-1
 232.559570312 -34.5595703125 l 1,147,148
 202.3203125 -71.2802734375 202.3203125 -71.2802734375 197.639648438 -73.7998046875 c 1,149,150
 197.639648438 -78.1201171875 197.639648438 -78.1201171875 177.120117188 -99 c 128,-1,151
 156.599609375 -119.879882812 156.599609375 -119.879882812 147.240234375 -125.639648438 c 1,152,-1
 145.440429688 -127.440429688 l 1,153,-1
 134.639648438 -140.759765625 l 1,154,-1
 124.559570312 -157.3203125 l 1,155,-1
 124.919921875 -179.280273438 l 1,156,-1
 125.280273438 -186.83984375 l 1,157,-1
 127.440429688 -194.759765625 l 1,158,159
 128.51953125 -204.48046875 128.51953125 -204.48046875 133.559570312 -210.599609375 c 1,160,-1
 142.200195312 -213.48046875 l 1,161,-1
 150.120117188 -214.559570312 l 1,162,-1
 156.599609375 -216.360351562 l 1,163,-1
 156.959960938 -211.3203125 l 1,164,-1
 156.599609375 -207 l 1,165,-1
 154.440429688 -200.51953125 l 1,166,167
 154.440429688 -194.400390625 154.440429688 -194.400390625 156.959960938 -191.879882812 c 1,168,169
 162.360351562 -183.599609375 162.360351562 -183.599609375 170.280273438 -183.599609375 c 1,170,-1
 174.599609375 -183.240234375 l 1,171,-1
 181.799804688 -183.599609375 l 2,172,173
 186.120117188 -183.599609375 186.120117188 -183.599609375 189.360351562 -185.400390625 c 2,174,-1
 193.3203125 -187.200195312 l 1,175,-1
 199.080078125 -191.51953125 l 1,176,-1
 203.759765625 -199.799804688 l 1,177,-1
 206.639648438 -210.959960938 l 1,178,-1
 207.360351562 -219.599609375 l 1,179,-1
 205.200195312 -227.879882812 l 2,180,181
 204.48046875 -230.400390625 204.48046875 -230.400390625 203.400390625 -231.48046875 c 2,182,-1
 200.16015625 -236.51953125 l 1,183,-1
 195.83984375 -240.83984375 l 1,184,-1
 188.280273438 -245.879882812 l 1,185,-1
 181.799804688 -246.240234375 l 1,186,-1
 173.51953125 -246.599609375 l 1,187,-1
 169.200195312 -246.599609375 l 1,188,-1
 165.599609375 -246.599609375 l 1,189,-1
 162 -245.879882812 l 1,190,-1
 151.559570312 -244.440429688 l 1,191,-1
 139.3203125 -240.83984375 l 2,192,193
 132.48046875 -238.6796875 132.48046875 -238.6796875 127.799804688 -235.080078125 c 1,194,-1
 123.48046875 -229.3203125 l 1,195,-1
 119.16015625 -220.3203125 l 1,196,-1
 116.280273438 -213.120117188 l 1,197,-1
 114.120117188 -205.559570312 l 1,198,-1
 109.080078125 -186.120117188 l 1,199,-1
 106.200195312 -164.51953125 l 1,200,-1
 105.48046875 -138.959960938 l 1,201,-1
 133.559570312 -102.240234375 l 2,202,203
 139.3203125 -94.3203125 139.3203125 -94.3203125 152.280273438 -82.7998046875 c 1,204,-1
 178.919921875 -61.5595703125 l 1,205,206
 178.919921875 -59.400390625 178.919921875 -59.400390625 194.400390625 -40.6796875 c 1,207,-1
 225 -5.400390625 l 1,208,-1
 257.040039062 29.8798828125 l 2,209,210
 272.51953125 46.7998046875 272.51953125 46.7998046875 280.080078125 59.400390625 c 1,0,-1
EndSplineSet
Ligature2: "'clig' Contextual Ligatures lookup 7 subtable" u107A u103C
Ligature2: "'clig' Contextual Ligatures lookup 5 subtable" u107A u1031
MultipleSubs2: "Multiple Substitution lookup 2 subtable" guard u103C u107A
MultipleSubs2: "Multiple Substitution lookup 1 subtable" guard u103C.udia u107A
MultipleSubs2: "Multiple Substitution lookup 0 subtable" guard u1031 u107A
EndChar

StartChar: u1083
Encoding: 4227 4227 26
Width: 227
VWidth: 360
GlyphClass: 2
Flags: W
LayerCount: 2
Fore
SplineSet
192.599609375 -200.16015625 m 1,0,-1
 186.83984375 -200.879882812 l 1,1,-1
 182.16015625 -200.879882812 l 2,2,3
 170.639648438 -200.879882812 170.639648438 -200.879882812 152.639648438 -194.400390625 c 1,4,5
 141.83984375 -190.080078125 141.83984375 -190.080078125 126.719726562 -178.200195312 c 1,6,7
 99.3603515625 -160.559570312 99.3603515625 -160.559570312 99.3603515625 -120.599609375 c 2,8,-1
 99.3603515625 203.040039062 l 2,9,10
 99.3603515625 224.639648438 99.3603515625 224.639648438 77.759765625 241.919921875 c 0,11,12
 68.400390625 249.120117188 68.400390625 249.120117188 55.4404296875 253.98046875 c 128,-1,13
 42.48046875 258.83984375 42.48046875 258.83984375 30.9599609375 258.83984375 c 0,14,15
 18 258.83984375 18 258.83984375 6.1201171875 255.599609375 c 1,16,-1
 -5.400390625 250.919921875 l 2,17,18
 -11.16015625 248.759765625 -11.16015625 248.759765625 -17.6396484375 244.080078125 c 1,19,20
 -25.2001953125 237.599609375 -25.2001953125 237.599609375 -30.9599609375 224.280273438 c 1,21,-1
 -34.5595703125 213.120117188 l 1,22,-1
 -37.4404296875 201.599609375 l 1,23,24
 -37.4404296875 188.280273438 -37.4404296875 188.280273438 -51.48046875 188.280273438 c 0,25,26
 -63.3603515625 188.280273438 -63.3603515625 188.280273438 -63.3603515625 201.599609375 c 0,27,28
 -63.3603515625 216 -63.3603515625 216 -55.4404296875 231.83984375 c 1,29,30
 -50.0400390625 245.16015625 -50.0400390625 245.16015625 -36 259.200195312 c 1,31,32
 -23.0400390625 269.639648438 -23.0400390625 269.639648438 -5.400390625 275.400390625 c 1,33,-1
 11.8798828125 279.719726562 l 1,34,-1
 30.9599609375 281.16015625 l 1,35,36
 68.759765625 281.16015625 68.759765625 281.16015625 97.919921875 260.639648438 c 0,37,38
 111.959960938 250.919921875 111.959960938 250.919921875 118.98046875 236.33984375 c 128,-1,39
 126 221.759765625 126 221.759765625 126 203.040039062 c 2,40,-1
 125.280273438 -122.040039062 l 2,41,42
 125.280273438 -142.200195312 125.280273438 -142.200195312 146.879882812 -161.280273438 c 1,43,44
 155.16015625 -167.759765625 155.16015625 -167.759765625 178.559570312 -172.080078125 c 128,-1,45
 201.959960938 -176.400390625 201.959960938 -176.400390625 216 -176.400390625 c 2,46,-1
 227.879882812 -176.400390625 l 2,47,48
 235.080078125 -176.400390625 235.080078125 -176.400390625 239.759765625 -177.48046875 c 128,-1,49
 244.440429688 -178.559570312 244.440429688 -178.559570312 244.799804688 -183.599609375 c 1,50,-1
 242.639648438 -184.6796875 l 1,51,-1
 227.16015625 -191.879882812 l 1,52,-1
 211.6796875 -196.200195312 l 1,53,-1
 192.599609375 -200.16015625 l 1,0,-1
EndSplineSet
EndChar

StartChar: u109C
Encoding: 4252 4252 27
Width: 146
VWidth: 360
GlyphClass: 2
Flags: W
LayerCount: 2
Fore
SplineSet
22.6796875 177.120117188 m 1,0,1
 29.8798828125 177.120117188 29.8798828125 177.120117188 36.3603515625 179.639648438 c 1,2,3
 44.2802734375 181.799804688 44.2802734375 181.799804688 47.16015625 185.759765625 c 1,4,5
 54.7197265625 194.040039062 54.7197265625 194.040039062 54.7197265625 205.919921875 c 0,6,7
 54.7197265625 211.6796875 54.7197265625 211.6796875 52.2001953125 215.639648438 c 0,8,9
 47.16015625 225 47.16015625 225 47.16015625 227.879882812 c 0,10,11
 47.16015625 230.040039062 47.16015625 230.040039062 50.400390625 232.200195312 c 128,-1,12
 53.6396484375 234.360351562 53.6396484375 234.360351562 57.599609375 234.360351562 c 0,13,14
 78.1201171875 234.360351562 78.1201171875 234.360351562 96.2998046875 220.139648438 c 128,-1,15
 114.48046875 205.919921875 114.48046875 205.919921875 124.200195312 178.200195312 c 1,16,-1
 135.360351562 178.200195312 l 1,17,18
 121.3203125 218.51953125 121.3203125 218.51953125 98.2802734375 236.879882812 c 128,-1,19
 75.240234375 255.240234375 75.240234375 255.240234375 50.0400390625 255.240234375 c 0,20,21
 37.080078125 255.240234375 37.080078125 255.240234375 28.4404296875 252 c 1,22,-1
 18 247.3203125 l 1,23,-1
 10.7998046875 241.559570312 l 1,24,25
 -4.3203125 228.959960938 -4.3203125 228.959960938 -4.3203125 211.6796875 c 1,26,-1
 -3.9599609375 203.040039062 l 2,27,28
 -3.9599609375 198.360351562 -3.9599609375 198.360351562 -2.51953125 194.040039062 c 1,29,-1
 1.080078125 187.200195312 l 1,30,31
 4.3203125 182.879882812 4.3203125 182.879882812 10.080078125 179.280273438 c 1,32,-1
 17.2802734375 177.83984375 l 1,33,-1
 22.6796875 177.120117188 l 1,0,1
28.7998046875 198.719726562 m 0,34,35
 27.7197265625 197.639648438 27.7197265625 197.639648438 25.5595703125 197.639648438 c 1,36,-1
 19.7998046875 199.080078125 l 1,37,38
 16.5595703125 200.879882812 16.5595703125 200.879882812 13.3203125 206.639648438 c 1,39,40
 12.240234375 209.879882812 12.240234375 209.879882812 16.2001953125 216 c 1,41,42
 20.51953125 221.400390625 20.51953125 221.400390625 23.0400390625 221.759765625 c 1,43,-1
 29.16015625 220.6796875 l 1,44,45
 31.3203125 220.6796875 31.3203125 220.6796875 36 214.919921875 c 0,46,47
 37.7998046875 212.759765625 37.7998046875 212.759765625 35.6396484375 207.540039062 c 128,-1,48
 33.48046875 202.3203125 33.48046875 202.3203125 28.7998046875 198.719726562 c 0,34,35
20.16015625 -2.16015625 m 1,49,-1
 26.6396484375 -1.7998046875 l 1,50,-1
 33.48046875 0.3603515625 l 2,51,52
 41.400390625 2.51953125 41.400390625 2.51953125 44.2802734375 6.48046875 c 1,53,54
 52.2001953125 14.400390625 52.2001953125 14.400390625 52.2001953125 26.6396484375 c 0,55,56
 52.2001953125 32.759765625 52.2001953125 32.759765625 49.6796875 36.3603515625 c 1,57,58
 44.2802734375 46.7998046875 44.2802734375 46.7998046875 44.2802734375 49.3203125 c 1,59,-1
 45.3603515625 51.1201171875 l 1,60,-1
 47.8798828125 52.5595703125 l 1,61,-1
 55.4404296875 55.080078125 l 1,62,63
 75.240234375 55.080078125 75.240234375 55.080078125 93.0595703125 41.0400390625 c 128,-1,64
 110.879882812 27 110.879882812 27 121.6796875 -0.7197265625 c 1,65,-1
 132.83984375 -0.7197265625 l 1,66,67
 119.879882812 39.240234375 119.879882812 39.240234375 96.1201171875 57.599609375 c 1,68,69
 74.16015625 76.3203125 74.16015625 76.3203125 47.51953125 76.3203125 c 0,70,71
 36.7197265625 76.3203125 36.7197265625 76.3203125 26.099609375 73.080078125 c 128,-1,72
 15.48046875 69.83984375 15.48046875 69.83984375 8.2802734375 62.6396484375 c 1,73,74
 -6.48046875 50.759765625 -6.48046875 50.759765625 -6.48046875 32.400390625 c 1,75,-1
 -6.83984375 24.1201171875 l 2,76,77
 -6.83984375 19.4404296875 -6.83984375 19.4404296875 -5.0400390625 16.2001953125 c 2,78,-1
 -0.7197265625 7.5595703125 l 1,79,-1
 7.5595703125 0.3603515625 l 1,80,-1
 15.1201171875 -1.4404296875 l 1,81,-1
 20.16015625 -2.16015625 l 1,49,-1
26.2802734375 19.7998046875 m 0,82,83
 25.2001953125 18.7197265625 25.2001953125 18.7197265625 23.0400390625 18.7197265625 c 1,84,-1
 17.6396484375 20.51953125 l 2,85,86
 13.3203125 21.599609375 13.3203125 21.599609375 10.7998046875 27.7197265625 c 1,87,88
 9.7197265625 31.3203125 9.7197265625 31.3203125 13.6796875 37.4404296875 c 1,89,90
 18 42.83984375 18 42.83984375 20.8798828125 43.2001953125 c 1,91,92
 25.2001953125 43.2001953125 25.2001953125 43.2001953125 27.3603515625 42.1201171875 c 128,-1,93
 29.51953125 41.0400390625 29.51953125 41.0400390625 33.1201171875 36.3603515625 c 0,94,95
 34.919921875 34.2001953125 34.919921875 34.2001953125 32.759765625 29.51953125 c 1,96,97
 31.3203125 25.2001953125 31.3203125 25.2001953125 26.2802734375 19.7998046875 c 0,82,83
EndSplineSet
EndChar

StartChar: u109D
Encoding: 4253 4253 28
Width: 2
VWidth: 360
GlyphClass: 4
Flags: W
AnchorPoint: "Anchor-3" -145.8 236.52 mark 0
LayerCount: 2
Fore
SplineSet
-65.8798828125 335.879882812 m 1,0,1
 -72 376.919921875 -72 376.919921875 -98.6396484375 399.599609375 c 1,2,-1
 -106.559570312 406.080078125 l 1,3,-1
 -115.200195312 411.83984375 l 2,4,5
 -122.040039062 416.51953125 -122.040039062 416.51953125 -132.120117188 419.400390625 c 1,6,-1
 -141.83984375 420.83984375 l 1,7,8
 -151.200195312 420.83984375 -151.200195312 420.83984375 -154.799804688 419.040039062 c 1,9,10
 -160.200195312 417.959960938 -160.200195312 417.959960938 -162 415.080078125 c 1,11,-1
 -162 405.719726562 l 1,12,-1
 -160.919921875 399.240234375 l 1,13,-1
 -161.280273438 395.280273438 l 1,14,-1
 -162.360351562 392.759765625 l 1,15,-1
 -168.120117188 383.400390625 l 1,16,-1
 -176.759765625 375.120117188 l 1,17,-1
 -187.919921875 368.280273438 l 1,18,19
 -194.400390625 365.040039062 -194.400390625 365.040039062 -203.400390625 365.040039062 c 1,20,-1
 -209.16015625 365.400390625 l 1,21,22
 -213.83984375 366.120117188 -213.83984375 366.120117188 -216.719726562 367.919921875 c 1,23,-1
 -219.959960938 369.360351562 l 1,24,-1
 -223.200195312 371.879882812 l 2,25,26
 -232.919921875 379.440429688 -232.919921875 379.440429688 -232.919921875 392.400390625 c 0,27,28
 -232.919921875 405.719726562 -232.919921875 405.719726562 -226.799804688 414.360351562 c 1,29,-1
 -221.040039062 421.200195312 l 1,30,-1
 -215.639648438 428.040039062 l 1,31,-1
 -209.879882812 434.16015625 l 1,32,-1
 -206.280273438 436.6796875 l 1,33,34
 -204.120117188 438.83984375 -204.120117188 438.83984375 -202.3203125 439.200195312 c 1,35,-1
 -189.719726562 445.6796875 l 1,36,-1
 -178.919921875 448.200195312 l 1,37,-1
 -169.919921875 448.200195312 l 1,38,-1
 -160.559570312 448.559570312 l 1,39,-1
 -145.080078125 447.48046875 l 1,40,-1
 -130.6796875 444.240234375 l 1,41,42
 -117.719726562 438.83984375 -117.719726562 438.83984375 -105.83984375 432.360351562 c 1,43,-1
 -94.6796875 425.16015625 l 1,44,-1
 -83.8798828125 417.240234375 l 1,45,46
 -68.400390625 403.919921875 -68.400390625 403.919921875 -56.16015625 378.719726562 c 0,47,48
 -54 373.6796875 -54 373.6796875 -51.48046875 366.83984375 c 1,49,50
 -51.48046875 366.83984375 -51.48046875 366.83984375 -47.8798828125 354.599609375 c 1,51,52
 -45 342 -45 342 -45 329.759765625 c 0,53,54
 -45 313.919921875 -45 313.919921875 -48.240234375 280.080078125 c 128,-1,55
 -51.48046875 246.240234375 -51.48046875 246.240234375 -56.8798828125 228.240234375 c 0,56,57
 -59.0400390625 221.759765625 -59.0400390625 221.759765625 -63.3603515625 215.280273438 c 0,58,59
 -69.48046875 206.639648438 -69.48046875 206.639648438 -73.080078125 208.799804688 c 0,60,61
 -74.8798828125 209.879882812 -74.8798828125 209.879882812 -74.8798828125 221.400390625 c 0,62,63
 -74.8798828125 243 -74.8798828125 243 -72.3603515625 264.240234375 c 1,64,-1
 -65.8798828125 335.879882812 l 1,0,1
EndSplineSet
EndChar

StartChar: uAA61
Encoding: 43617 43617 29
Width: 572
VWidth: 360
GlyphClass: 3
Flags: W
AnchorPoint: "Anchor-3" 439.2 249.84 basechar 0
AnchorPoint: "Anchor-2" 302.4 0 basechar 0
AnchorPoint: "Anchor-1" 429.12 0 basechar 0
AnchorPoint: "Anchor-0" 515.88 0 basechar 0
LayerCount: 2
Fore
SplineSet
331.559570312 168.48046875 m 1,0,-1
 343.080078125 174.959960938 l 1,1,2
 351 180 351 180 364.3203125 180 c 0,3,4
 378.360351562 180 378.360351562 180 394.559570312 165.959960938 c 1,5,6
 412.200195312 148.3203125 412.200195312 148.3203125 412.200195312 125.639648438 c 0,7,8
 412.200195312 104.759765625 412.200195312 104.759765625 396.360351562 88.01953125 c 128,-1,9
 380.51953125 71.2802734375 380.51953125 71.2802734375 365.400390625 71.2802734375 c 0,10,11
 348.48046875 71.2802734375 348.48046875 71.2802734375 342.360351562 74.51953125 c 1,12,-1
 329.400390625 88.2001953125 l 1,13,-1
 330.48046875 77.759765625 l 1,14,15
 333 70.919921875 333 70.919921875 343.440429688 59.759765625 c 1,16,-1
 356.040039062 50.0400390625 l 1,17,18
 386.280273438 19.080078125 386.280273438 19.080078125 430.559570312 19.080078125 c 0,19,20
 450.719726562 19.080078125 450.719726562 19.080078125 482.219726562 34.919921875 c 128,-1,21
 513.719726562 50.759765625 513.719726562 50.759765625 523.080078125 66.599609375 c 1,22,-1
 529.559570312 81 l 1,23,-1
 535.6796875 98.6396484375 l 1,24,-1
 538.919921875 116.280273438 l 1,25,-1
 540.360351562 132.120117188 l 1,26,27
 540.360351562 174.240234375 540.360351562 174.240234375 507.599609375 205.740234375 c 128,-1,28
 474.83984375 237.240234375 474.83984375 237.240234375 434.16015625 237.240234375 c 0,29,30
 399.240234375 237.240234375 399.240234375 237.240234375 371.51953125 216 c 0,31,32
 363.599609375 210.240234375 363.599609375 210.240234375 358.559570312 203.759765625 c 1,33,-1
 353.16015625 198 l 1,34,-1
 346.6796875 191.16015625 l 1,35,-1
 338.759765625 182.879882812 l 2,36,37
 336.959960938 181.080078125 336.959960938 181.080078125 331.559570312 168.48046875 c 1,0,-1
301.6796875 127.440429688 m 1,38,-1
 301.3203125 138.240234375 l 2,39,40
 301.3203125 141.83984375 301.3203125 141.83984375 298.799804688 151.559570312 c 1,41,42
 297.719726562 159.48046875 297.719726562 159.48046875 291.240234375 173.51953125 c 1,43,44
 280.799804688 198.719726562 280.799804688 198.719726562 268.919921875 210.599609375 c 0,45,46
 267.48046875 212.400390625 267.48046875 212.400390625 257.040039062 219.959960938 c 1,47,-1
 239.400390625 227.16015625 l 1,48,-1
 229.3203125 228.240234375 l 1,49,50
 217.440429688 228.240234375 217.440429688 228.240234375 210.959960938 221.759765625 c 128,-1,51
 204.48046875 215.280273438 204.48046875 215.280273438 201.240234375 203.400390625 c 1,52,-1
 198.360351562 184.6796875 l 1,53,-1
 197.639648438 170.280273438 l 1,54,-1
 196.559570312 153.719726562 l 1,55,-1
 192.240234375 132.83984375 l 1,56,57
 185.759765625 106.559570312 185.759765625 106.559570312 174.599609375 79.2001953125 c 1,58,-1
 163.440429688 54.3603515625 l 1,59,-1
 157.6796875 43.2001953125 l 1,60,-1
 150.83984375 32.759765625 l 1,61,62
 145.080078125 23.0400390625 145.080078125 23.0400390625 129.419921875 13.1396484375 c 128,-1,63
 113.759765625 3.240234375 113.759765625 3.240234375 103.6796875 3.240234375 c 0,64,65
 96.83984375 3.240234375 96.83984375 3.240234375 90 7.2001953125 c 1,66,-1
 82.7998046875 11.8798828125 l 1,67,-1
 72.7197265625 20.51953125 l 1,68,69
 53.2802734375 37.7998046875 53.2802734375 37.7998046875 43.2001953125 63 c 0,70,71
 36 81 36 81 32.400390625 102.240234375 c 1,72,-1
 29.8798828125 122.040039062 l 1,73,-1
 28.7998046875 140.400390625 l 1,74,-1
 28.7998046875 155.51953125 l 1,75,-1
 28.7998046875 163.080078125 l 1,76,-1
 30.240234375 173.51953125 l 2,77,78
 32.0400390625 185.400390625 32.0400390625 185.400390625 41.759765625 195.83984375 c 1,79,-1
 49.3203125 200.879882812 l 1,80,-1
 58.6796875 202.6796875 l 1,81,-1
 66.599609375 201.959960938 l 1,82,-1
 72 201.599609375 l 2,83,84
 83.8798828125 200.51953125 83.8798828125 200.51953125 90.5400390625 192.599609375 c 128,-1,85
 97.2001953125 184.6796875 97.2001953125 184.6796875 97.2001953125 165.599609375 c 0,86,87
 97.2001953125 151.559570312 97.2001953125 151.559570312 91.98046875 145.259765625 c 128,-1,88
 86.759765625 138.959960938 86.759765625 138.959960938 75.9599609375 138.959960938 c 2,89,-1
 68.400390625 138.959960938 l 1,90,-1
 63 140.400390625 l 1,91,-1
 62.6396484375 123.48046875 l 1,92,-1
 62.6396484375 117.719726562 l 1,93,-1
 62.6396484375 113.040039062 l 1,94,-1
 61.919921875 108 l 1,95,-1
 62.2802734375 94.6796875 l 1,96,-1
 64.7998046875 82.7998046875 l 2,97,98
 69.1201171875 64.080078125 69.1201171875 64.080078125 81.900390625 49.1396484375 c 128,-1,99
 94.6796875 34.2001953125 94.6796875 34.2001953125 104.400390625 34.2001953125 c 0,100,101
 115.919921875 34.2001953125 115.919921875 34.2001953125 138.240234375 68.759765625 c 1,102,103
 154.440429688 95.400390625 154.440429688 95.400390625 165.599609375 138.599609375 c 1,104,-1
 168.48046875 155.16015625 l 1,105,-1
 171.719726562 179.639648438 l 1,106,-1
 172.080078125 190.440429688 l 2,107,108
 172.080078125 198 172.080078125 198 173.879882812 203.400390625 c 1,109,110
 174.959960938 209.16015625 174.959960938 209.16015625 178.200195312 218.16015625 c 1,111,112
 181.440429688 232.200195312 181.440429688 232.200195312 198.1796875 244.620117188 c 128,-1,113
 214.919921875 257.040039062 214.919921875 257.040039062 231.83984375 257.040039062 c 2,114,-1
 235.440429688 257.040039062 l 1,115,-1
 244.080078125 256.6796875 l 2,116,117
 248.759765625 256.6796875 248.759765625 256.6796875 253.440429688 254.879882812 c 2,118,-1
 259.200195312 252.719726562 l 1,119,120
 263.879882812 251.639648438 263.879882812 251.639648438 266.759765625 248.759765625 c 1,121,122
 276.83984375 243.360351562 276.83984375 243.360351562 284.040039062 234.360351562 c 1,123,124
 294.120117188 222.83984375 294.120117188 222.83984375 304.559570312 202.6796875 c 2,125,-1
 315.719726562 181.440429688 l 1,126,-1
 319.3203125 187.919921875 l 1,127,128
 327.959960938 210.959960938 327.959960938 210.959960938 333 214.919921875 c 1,129,-1
 342.719726562 226.080078125 l 1,130,-1
 360 239.759765625 l 1,131,132
 389.51953125 261.719726562 389.51953125 261.719726562 434.16015625 261.719726562 c 0,133,134
 475.559570312 261.719726562 475.559570312 261.719726562 506.700195312 242.099609375 c 128,-1,135
 537.83984375 222.48046875 537.83984375 222.48046875 552.959960938 186.48046875 c 1,136,137
 560.51953125 171.360351562 560.51953125 171.360351562 562.6796875 159.120117188 c 1,138,-1
 564.83984375 129.599609375 l 1,139,-1
 562.6796875 105.48046875 l 1,140,-1
 557.639648438 83.16015625 l 2,141,142
 556.200195312 77.400390625 556.200195312 77.400390625 549 63 c 1,143,-1
 545.759765625 57.240234375 l 1,144,-1
 542.879882812 52.2001953125 l 1,145,-1
 535.3203125 42.1201171875 l 1,146,147
 523.799804688 27.3603515625 523.799804688 27.3603515625 494.8203125 12.599609375 c 128,-1,148
 465.83984375 -2.16015625 465.83984375 -2.16015625 439.559570312 -2.16015625 c 2,149,-1
 435.240234375 -2.16015625 l 2,150,151
 419.040039062 -2.16015625 419.040039062 -2.16015625 411.299804688 -1.080078125 c 128,-1,152
 403.559570312 0 403.559570312 0 398.33984375 1.080078125 c 128,-1,153
 393.120117188 2.16015625 393.120117188 2.16015625 385.919921875 5.0400390625 c 1,154,155
 356.400390625 13.6796875 356.400390625 13.6796875 338.400390625 31.6796875 c 1,156,-1
 329.040039062 41.400390625 l 1,157,-1
 321.48046875 51.1201171875 l 1,158,-1
 311.040039062 64.7998046875 l 1,159,-1
 311.040039062 69.1201171875 l 2,160,161
 311.040039062 72 311.040039062 72 310.3203125 74.8798828125 c 1,162,163
 310.3203125 78.48046875 310.3203125 78.48046875 308.51953125 82.080078125 c 1,164,-1
 306 96.83984375 l 1,165,-1
 301.6796875 127.440429688 l 1,38,-1
EndSplineSet
Ligature2: "'clig' Contextual Ligatures lookup 7 subtable" uAA61 u103C
Ligature2: "'clig' Contextual Ligatures lookup 5 subtable" uAA61 u1031
MultipleSubs2: "Multiple Substitution lookup 2 subtable" guard u103C uAA61
MultipleSubs2: "Multiple Substitution lookup 1 subtable" guard u103C.udia uAA61
MultipleSubs2: "Multiple Substitution lookup 0 subtable" guard u1031 uAA61
EndChar

StartChar: uAA62
Encoding: 43618 43618 30
Width: 538
VWidth: 360
GlyphClass: 3
Flags: W
AnchorPoint: "Anchor-3" 394.56 249.84 basechar 0
AnchorPoint: "Anchor-2" 267.84 0 basechar 0
AnchorPoint: "Anchor-1" 387.36 0 basechar 0
AnchorPoint: "Anchor-0" 468 0 basechar 0
LayerCount: 2
Fore
SplineSet
73.7998046875 248.040039062 m 2,0,1
 68.400390625 244.799804688 68.400390625 244.799804688 62.6396484375 239.040039062 c 1,2,3
 58.3203125 235.799804688 58.3203125 235.799804688 52.919921875 229.3203125 c 1,4,-1
 42.1201171875 213.83984375 l 1,5,-1
 34.2001953125 195.83984375 l 1,6,-1
 26.6396484375 171.719726562 l 1,7,-1
 22.6796875 148.3203125 l 1,8,-1
 21.240234375 125.280273438 l 1,9,10
 21.240234375 74.8798828125 21.240234375 74.8798828125 58.8603515625 34.2001953125 c 128,-1,11
 96.48046875 -6.48046875 96.48046875 -6.48046875 151.200195312 -6.48046875 c 0,12,13
 186.48046875 -6.48046875 186.48046875 -6.48046875 218.16015625 13.3203125 c 1,14,15
 234.360351562 21.9599609375 234.360351562 21.9599609375 239.040039062 27.7197265625 c 1,16,17
 252.360351562 42.1201171875 252.360351562 42.1201171875 252.360351562 67.6796875 c 1,18,-1
 252 76.3203125 l 2,19,20
 252 82.080078125 252 82.080078125 250.200195312 89.2802734375 c 1,21,22
 248.759765625 99 248.759765625 99 243 117.719726562 c 128,-1,23
 237.240234375 136.440429688 237.240234375 136.440429688 237.240234375 146.51953125 c 0,24,25
 237.240234375 174.599609375 237.240234375 174.599609375 269.280273438 177.83984375 c 1,26,27
 284.759765625 174.599609375 284.759765625 174.599609375 295.559570312 167.040039062 c 1,28,29
 303.83984375 160.559570312 303.83984375 160.559570312 303.83984375 148.6796875 c 2,30,-1
 303.83984375 141.83984375 l 1,31,-1
 302.400390625 135.719726562 l 1,32,-1
 300.959960938 129.240234375 l 1,33,-1
 298.440429688 120.240234375 l 2,34,35
 293.400390625 102.599609375 293.400390625 102.599609375 291.059570312 88.5595703125 c 128,-1,36
 288.719726562 74.51953125 288.719726562 74.51953125 288.719726562 63 c 0,37,38
 288.719726562 45.7197265625 288.719726562 45.7197265625 294.48046875 34.5595703125 c 0,39,40
 297.719726562 28.080078125 297.719726562 28.080078125 315.719726562 15.48046875 c 1,41,-1
 333 7.919921875 l 1,42,-1
 349.919921875 2.51953125 l 1,43,-1
 366.83984375 -0.7197265625 l 1,44,-1
 384.120117188 -2.16015625 l 1,45,46
 435.959960938 -2.16015625 435.959960938 -2.16015625 474.83984375 38.8798828125 c 128,-1,47
 513.719726562 79.919921875 513.719726562 79.919921875 513.719726562 129.599609375 c 1,48,-1
 512.280273438 152.639648438 l 1,49,-1
 508.6796875 176.040039062 l 1,50,51
 506.51953125 187.559570312 506.51953125 187.559570312 502.200195312 197.639648438 c 2,52,-1
 497.879882812 208.440429688 l 1,53,54
 496.799804688 213.120117188 496.799804688 213.120117188 493.200195312 218.16015625 c 1,55,56
 485.280273438 232.919921875 485.280273438 232.919921875 472.6796875 243.360351562 c 2,57,-1
 468 247.3203125 l 1,58,-1
 461.879882812 250.919921875 l 1,59,-1
 455.400390625 254.16015625 l 1,60,-1
 446.040039062 258.120117188 l 1,61,62
 435.240234375 258.120117188 435.240234375 258.120117188 432 255.959960938 c 1,63,64
 428.400390625 251.280273438 428.400390625 251.280273438 428.400390625 245.51953125 c 1,65,66
 430.919921875 240.48046875 430.919921875 240.48046875 436.3203125 235.080078125 c 1,67,-1
 449.639648438 227.879882812 l 1,68,-1
 457.919921875 221.759765625 l 1,69,-1
 466.559570312 210.599609375 l 1,70,-1
 473.400390625 200.51953125 l 1,71,-1
 477.719726562 191.51953125 l 1,72,-1
 480.599609375 184.3203125 l 1,73,-1
 486 168.120117188 l 1,74,-1
 488.879882812 154.080078125 l 1,75,-1
 488.879882812 129.599609375 l 2,76,77
 488.879882812 85.3203125 488.879882812 85.3203125 457.200195312 53.6396484375 c 128,-1,78
 425.51953125 21.9599609375 425.51953125 21.9599609375 384.120117188 21.9599609375 c 0,79,80
 363.959960938 21.9599609375 363.959960938 21.9599609375 347.040039062 27.3603515625 c 128,-1,81
 330.120117188 32.759765625 330.120117188 32.759765625 313.200195312 49.3203125 c 0,82,83
 308.879882812 53.6396484375 308.879882812 53.6396484375 308.879882812 64.4404296875 c 1,84,-1
 309.240234375 70.2001953125 l 1,85,-1
 311.400390625 80.6396484375 l 1,86,-1
 318.959960938 116.280273438 l 1,87,88
 324.360351562 138.959960938 324.360351562 138.959960938 324.360351562 150.83984375 c 0,89,90
 324.360351562 160.200195312 324.360351562 160.200195312 320.040039062 171 c 1,91,92
 315.360351562 180 315.360351562 180 305.280273438 187.200195312 c 1,93,94
 286.559570312 196.559570312 286.559570312 196.559570312 270 196.559570312 c 1,95,-1
 262.799804688 196.200195312 l 2,96,97
 258.83984375 196.200195312 258.83984375 196.200195312 254.879882812 194.759765625 c 2,98,-1
 243.719726562 191.51953125 l 1,99,-1
 234.719726562 187.200195312 l 1,100,101
 225.719726562 182.16015625 225.719726562 182.16015625 219.599609375 172.440429688 c 1,102,103
 215.280273438 163.080078125 215.280273438 163.080078125 215.280273438 149.759765625 c 0,104,105
 215.280273438 138.240234375 215.280273438 138.240234375 222.83984375 107.459960938 c 128,-1,106
 230.400390625 76.6796875 230.400390625 76.6796875 230.400390625 64.4404296875 c 0,107,108
 230.400390625 54.3603515625 230.400390625 54.3603515625 225.719726562 49.3203125 c 0,109,110
 209.879882812 33.83984375 209.879882812 33.83984375 191.51953125 25.5595703125 c 1,111,-1
 172.080078125 19.7998046875 l 1,112,113
 162.360351562 17.6396484375 162.360351562 17.6396484375 151.200195312 17.6396484375 c 0,114,115
 109.080078125 17.6396484375 109.080078125 17.6396484375 77.759765625 48.9599609375 c 128,-1,116
 46.4404296875 80.2802734375 46.4404296875 80.2802734375 46.4404296875 125.280273438 c 2,117,-1
 46.4404296875 149.759765625 l 1,118,-1
 49.3203125 163.799804688 l 1,119,120
 50.400390625 176.759765625 50.400390625 176.759765625 53.2802734375 180 c 1,121,-1
 55.4404296875 185.759765625 l 1,122,-1
 61.5595703125 196.559570312 l 1,123,-1
 71.2802734375 180.719726562 l 1,124,125
 78.1201171875 174.959960938 78.1201171875 174.959960938 93.9599609375 174.959960938 c 0,126,127
 106.200195312 174.959960938 106.200195312 174.959960938 118.080078125 185.400390625 c 0,128,129
 131.759765625 197.280273438 131.759765625 197.280273438 131.759765625 214.919921875 c 0,130,131
 131.759765625 233.639648438 131.759765625 233.639648438 121.3203125 244.259765625 c 128,-1,132
 110.879882812 254.879882812 110.879882812 254.879882812 95.400390625 254.879882812 c 0,133,134
 87.48046875 254.879882812 87.48046875 254.879882812 86.759765625 254.16015625 c 1,135,-1
 80.2802734375 251.639648438 l 1,136,-1
 73.7998046875 248.040039062 l 2,0,1
EndSplineSet
Ligature2: "'clig' Contextual Ligatures lookup 7 subtable" uAA62 u103C
Ligature2: "'clig' Contextual Ligatures lookup 5 subtable" uAA62 u1031
MultipleSubs2: "Multiple Substitution lookup 2 subtable" guard u103C uAA62
MultipleSubs2: "Multiple Substitution lookup 1 subtable" guard u103C.udia uAA62
MultipleSubs2: "Multiple Substitution lookup 0 subtable" guard u1031 uAA62
EndChar

StartChar: uAA6B
Encoding: 43627 43627 31
Width: 340
VWidth: 360
GlyphClass: 3
Flags: W
AnchorPoint: "Anchor-3" 178.2 249.84 basechar 0
AnchorPoint: "Anchor-2" 177.12 0 basechar 0
AnchorPoint: "Anchor-1" 231.12 0 basechar 0
LayerCount: 2
Fore
SplineSet
154.799804688 189.719726562 m 1,0,-1
 156.599609375 157.6796875 l 1,1,-1
 156.240234375 145.080078125 l 1,2,-1
 155.879882812 138.240234375 l 2,3,4
 155.879882812 135 155.879882812 135 154.440429688 131.040039062 c 1,5,6
 154.440429688 124.919921875 154.440429688 124.919921875 152.639648438 122.040039062 c 1,7,-1
 148.3203125 110.879882812 l 1,8,9
 134.280273438 82.4404296875 134.280273438 82.4404296875 115.559570312 59.400390625 c 1,10,-1
 110.51953125 54.3603515625 l 1,11,-1
 102.599609375 45.3603515625 l 1,12,-1
 91.7998046875 36 l 1,13,-1
 65.51953125 28.080078125 l 1,14,-1
 51.1201171875 25.5595703125 l 1,15,-1
 53.2802734375 27 l 1,16,-1
 59.759765625 30.9599609375 l 1,17,-1
 89.6396484375 44.6396484375 l 1,18,-1
 102.240234375 41.759765625 l 1,19,20
 114.48046875 38.51953125 114.48046875 38.51953125 122.219726562 35.099609375 c 128,-1,21
 129.959960938 31.6796875 129.959960938 31.6796875 137.33984375 25.01953125 c 128,-1,22
 144.719726562 18.3603515625 144.719726562 18.3603515625 144.719726562 13.6796875 c 2,23,-1
 144.360351562 6.48046875 l 2,24,25
 144.360351562 4.3203125 144.360351562 4.3203125 141.66015625 1.6201171875 c 128,-1,26
 138.959960938 -1.080078125 138.959960938 -1.080078125 130.6796875 -1.080078125 c 1,27,-1
 127.799804688 0 l 1,28,-1
 123.83984375 2.16015625 l 1,29,-1
 108 12.9599609375 l 1,30,31
 100.440429688 17.2802734375 100.440429688 17.2802734375 76.6796875 24.83984375 c 2,32,-1
 56.51953125 31.3203125 l 1,33,-1
 52.5595703125 34.5595703125 l 1,34,-1
 50.400390625 36.3603515625 l 1,35,-1
 48.9599609375 38.51953125 l 1,36,37
 48.9599609375 43.2001953125 48.9599609375 43.2001953125 49.6796875 44.6396484375 c 2,38,-1
 51.83984375 49.3203125 l 1,39,-1
 57.9599609375 52.919921875 l 1,40,-1
 63.3603515625 52.919921875 l 1,41,-1
 69.1201171875 53.6396484375 l 1,42,-1
 70.5595703125 55.080078125 l 1,43,-1
 72.3603515625 55.7998046875 l 1,44,-1
 74.51953125 56.8798828125 l 1,45,-1
 80.2802734375 60.83984375 l 1,46,-1
 88.919921875 68.759765625 l 1,47,-1
 96.83984375 78.1201171875 l 1,48,49
 103.6796875 84.9599609375 103.6796875 84.9599609375 112.6796875 97.2001953125 c 1,50,-1
 118.080078125 106.919921875 l 1,51,-1
 121.6796875 115.200195312 l 1,52,-1
 125.280273438 122.040039062 l 1,53,54
 135 139.3203125 135 139.3203125 135 158.400390625 c 0,55,56
 135 167.400390625 135 167.400390625 130.6796875 184.6796875 c 1,57,-1
 125.639648438 196.919921875 l 1,58,-1
 123.83984375 200.51953125 l 1,59,-1
 119.51953125 206.639648438 l 1,60,61
 116.280273438 212.040039062 116.280273438 212.040039062 107.459960938 216.360351562 c 128,-1,62
 98.6396484375 220.6796875 98.6396484375 220.6796875 88.5595703125 220.6796875 c 1,63,-1
 84.599609375 211.6796875 l 1,64,-1
 80.2802734375 204.48046875 l 1,65,-1
 75.9599609375 198.360351562 l 1,66,-1
 70.5595703125 192.959960938 l 1,67,68
 66.240234375 190.799804688 66.240234375 190.799804688 57.9599609375 190.799804688 c 2,69,-1
 49.6796875 191.16015625 l 2,70,71
 47.16015625 191.16015625 47.16015625 191.16015625 42.1201171875 194.040039062 c 128,-1,72
 37.080078125 196.919921875 37.080078125 196.919921875 30.9599609375 208.440429688 c 1,73,-1
 28.4404296875 220.6796875 l 1,74,75
 28.4404296875 228.599609375 28.4404296875 228.599609375 32.759765625 237.240234375 c 1,76,77
 37.080078125 244.080078125 37.080078125 244.080078125 45.3603515625 249.83984375 c 1,78,-1
 53.2802734375 252.360351562 l 1,79,-1
 61.919921875 254.879882812 l 1,80,-1
 68.759765625 253.799804688 l 1,81,-1
 77.0400390625 252.360351562 l 1,82,83
 81.3603515625 252.360351562 81.3603515625 252.360351562 101.51953125 248.040039062 c 0,84,85
 117.719726562 244.799804688 117.719726562 244.799804688 122.400390625 239.040039062 c 1,86,-1
 143.280273438 219.599609375 l 1,87,88
 149.400390625 212.040039062 149.400390625 212.040039062 154.799804688 189.719726562 c 1,0,-1
230.040039062 241.200195312 m 1,89,-1
 241.559570312 241.200195312 l 2,90,91
 248.040039062 241.200195312 248.040039062 241.200195312 250.200195312 240.120117188 c 2,92,-1
 255.599609375 238.3203125 l 1,93,94
 260.280273438 237.599609375 260.280273438 237.599609375 264.240234375 234.360351562 c 2,95,-1
 277.919921875 224.639648438 l 1,96,97
 284.040039062 219.240234375 284.040039062 219.240234375 289.440429688 213.120117188 c 1,98,-1
 297 199.799804688 l 1,99,-1
 299.879882812 192.599609375 l 1,100,-1
 303.83984375 181.440429688 l 1,101,-1
 309.599609375 161.280273438 l 1,102,-1
 313.559570312 144.360351562 l 1,103,-1
 314.639648438 133.919921875 l 1,104,-1
 315 123.120117188 l 1,105,-1
 315 115.919921875 l 1,106,-1
 315 111.599609375 l 2,107,108
 315 108 315 108 314.280273438 107.280273438 c 1,109,-1
 312.120117188 94.6796875 l 1,110,-1
 311.040039062 86.759765625 l 1,111,-1
 309.240234375 81 l 1,112,-1
 303.83984375 66.9599609375 l 1,113,114
 300.959960938 55.7998046875 300.959960938 55.7998046875 295.919921875 46.080078125 c 1,115,116
 292.6796875 38.51953125 292.6796875 38.51953125 288.360351562 33.1201171875 c 1,117,-1
 284.400390625 27.3603515625 l 1,118,-1
 279 21.9599609375 l 1,119,-1
 270 12.9599609375 l 1,120,121
 262.080078125 7.2001953125 262.080078125 7.2001953125 245.879882812 7.2001953125 c 0,122,123
 235.440429688 7.2001953125 235.440429688 7.2001953125 224.639648438 16.5595703125 c 128,-1,124
 213.83984375 25.919921875 213.83984375 25.919921875 213.83984375 41.400390625 c 0,125,126
 213.83984375 57.599609375 213.83984375 57.599609375 225.360351562 66.9599609375 c 0,127,128
 234.719726562 74.51953125 234.719726562 74.51953125 245.879882812 74.51953125 c 1,129,-1
 254.16015625 74.16015625 l 2,130,131
 256.3203125 74.16015625 256.3203125 74.16015625 261.360351562 71.6396484375 c 1,132,133
 268.200195312 69.83984375 268.200195312 69.83984375 274.3203125 63.7197265625 c 1,134,-1
 283.3203125 84.9599609375 l 1,135,-1
 286.200195312 95.0400390625 l 1,136,-1
 289.080078125 106.559570312 l 1,137,-1
 290.51953125 118.080078125 l 1,138,-1
 290.879882812 123.83984375 l 1,139,-1
 289.799804688 139.6796875 l 1,140,-1
 286.919921875 162.719726562 l 1,141,142
 284.759765625 176.040039062 284.759765625 176.040039062 279.719726562 183.599609375 c 1,143,-1
 275.040039062 193.3203125 l 2,144,145
 272.879882812 197.639648438 272.879882812 197.639648438 264.959960938 203.400390625 c 1,146,147
 261.360351562 207 261.360351562 207 248.400390625 213.83984375 c 2,148,-1
 244.799804688 215.639648438 l 1,149,-1
 239.400390625 217.080078125 l 1,150,-1
 231.48046875 217.080078125 l 1,151,-1
 226.080078125 215.639648438 l 1,152,-1
 216 181.440429688 l 1,153,-1
 213.120117188 190.440429688 l 1,154,-1
 209.51953125 201.959960938 l 1,155,-1
 209.51953125 208.080078125 l 2,156,157
 209.51953125 213.83984375 209.51953125 213.83984375 211.3203125 218.879882812 c 1,158,159
 212.759765625 224.639648438 212.759765625 224.639648438 217.080078125 230.400390625 c 0,160,161
 225.719726562 240.83984375 225.719726562 240.83984375 230.040039062 241.200195312 c 1,89,-1
EndSplineSet
Ligature2: "'clig' Contextual Ligatures lookup 7 subtable" uAA6B u103C
Ligature2: "'clig' Contextual Ligatures lookup 5 subtable" uAA6B u1031
MultipleSubs2: "Multiple Substitution lookup 2 subtable" guard u103C.nar uAA6B
MultipleSubs2: "Multiple Substitution lookup 1 subtable" guard u103C.nar.udia uAA6B
MultipleSubs2: "Multiple Substitution lookup 0 subtable" guard u1031 uAA6B
EndChar

StartChar: uAA6D
Encoding: 43629 43629 32
Width: 401
VWidth: 360
GlyphClass: 3
Flags: W
AnchorPoint: "Anchor-3" 260.28 249.84 basechar 0
AnchorPoint: "Anchor-2" 201.96 0 basechar 0
AnchorPoint: "Anchor-1" 302.4 0 basechar 0
LayerCount: 2
Fore
SplineSet
139.3203125 63.3603515625 m 1,0,-1
 139.3203125 58.6796875 l 1,1,-1
 138.599609375 51.83984375 l 1,2,3
 138.599609375 47.51953125 138.599609375 47.51953125 135.360351562 42.1201171875 c 1,4,5
 131.400390625 33.1201171875 131.400390625 33.1201171875 123.120117188 23.759765625 c 1,6,-1
 139.3203125 63.3603515625 l 1,0,-1
21.9599609375 60.48046875 m 1,7,8
 21.9599609375 39.9599609375 21.9599609375 39.9599609375 40.6796875 19.7998046875 c 0,9,10
 46.080078125 14.400390625 46.080078125 14.400390625 57.599609375 8.6396484375 c 1,11,-1
 66.599609375 5.400390625 l 1,12,-1
 79.5595703125 1.4404296875 l 1,13,-1
 84.240234375 -14.400390625 l 1,14,15
 87.48046875 -27 87.48046875 -27 90 -30.240234375 c 1,16,-1
 92.16015625 -40.6796875 l 1,17,-1
 92.8798828125 -52.2001953125 l 1,18,19
 92.8798828125 -65.51953125 92.8798828125 -65.51953125 89.4599609375 -76.1396484375 c 128,-1,20
 86.0400390625 -86.759765625 86.0400390625 -86.759765625 77.400390625 -101.879882812 c 0,21,22
 62.6396484375 -127.440429688 62.6396484375 -127.440429688 34.5595703125 -145.080078125 c 1,23,24
 27 -151.559570312 27 -151.559570312 10.080078125 -154.080078125 c 2,25,-1
 -4.3203125 -156.240234375 l 1,26,-1
 -21.240234375 -156.959960938 l 1,27,-1
 -24.83984375 -156.240234375 l 1,28,29
 -29.8798828125 -156.240234375 -29.8798828125 -156.240234375 -33.83984375 -162.360351562 c 1,30,-1
 -35.6396484375 -167.400390625 l 1,31,32
 -35.6396484375 -171.719726562 -35.6396484375 -171.719726562 -28.7998046875 -177.120117188 c 1,33,34
 -19.080078125 -179.280273438 -19.080078125 -179.280273438 -9.3603515625 -179.280273438 c 0,35,36
 7.2001953125 -179.280273438 7.2001953125 -179.280273438 33.1201171875 -169.559570312 c 1,37,-1
 43.2001953125 -165.240234375 l 1,38,-1
 52.5595703125 -160.200195312 l 2,39,40
 61.2001953125 -155.879882812 61.2001953125 -155.879882812 69.48046875 -147.599609375 c 1,41,-1
 83.16015625 -132.120117188 l 1,42,-1
 95.759765625 -114.120117188 l 1,43,-1
 106.919921875 -91.4404296875 l 1,44,-1
 110.51953125 -79.5595703125 l 1,45,-1
 111.959960938 -65.51953125 l 1,46,-1
 111.959960938 -60.48046875 l 1,47,-1
 111.959960938 -51.48046875 l 1,48,-1
 110.16015625 -41.759765625 l 1,49,50
 110.16015625 -38.16015625 110.16015625 -38.16015625 108.719726562 -33.83984375 c 2,51,-1
 104.759765625 -20.8798828125 l 1,52,-1
 97.919921875 4.3203125 l 1,53,-1
 103.6796875 5.759765625 l 1,54,-1
 109.080078125 9.3603515625 l 2,55,56
 114.48046875 12.599609375 114.48046875 12.599609375 122.759765625 23.0400390625 c 1,57,-1
 128.879882812 31.3203125 l 1,58,-1
 135.360351562 42.48046875 l 1,59,-1
 138.240234375 51.48046875 l 1,60,-1
 139.3203125 63.3603515625 l 1,61,62
 139.3203125 68.400390625 139.3203125 68.400390625 149.040039062 110.879882812 c 128,-1,63
 158.759765625 153.360351562 158.759765625 153.360351562 163.080078125 159.83984375 c 1,64,65
 169.559570312 190.080078125 169.559570312 190.080078125 197.459960938 211.5 c 128,-1,66
 225.360351562 232.919921875 225.360351562 232.919921875 260.280273438 232.919921875 c 0,67,68
 299.51953125 232.919921875 299.51953125 232.919921875 333 201.959960938 c 128,-1,69
 366.48046875 171 366.48046875 171 366.48046875 127.440429688 c 1,70,-1
 366.120117188 116.639648438 l 2,71,72
 366.120117188 107.280273438 366.120117188 107.280273438 364.3203125 103.3203125 c 1,73,-1
 362.16015625 92.8798828125 l 1,74,-1
 360.719726562 87.83984375 l 1,75,-1
 358.200195312 80.6396484375 l 1,76,77
 348.48046875 49.3203125 348.48046875 49.3203125 334.799804688 42.48046875 c 1,78,-1
 329.400390625 47.8798828125 l 1,79,-1
 322.919921875 54 l 1,80,-1
 317.51953125 56.16015625 l 1,81,-1
 306.719726562 59.0400390625 l 1,82,83
 295.559570312 59.0400390625 295.559570312 59.0400390625 287.280273438 52.2001953125 c 0,84,85
 276.120117188 43.2001953125 276.120117188 43.2001953125 276.120117188 27.7197265625 c 0,86,87
 276.120117188 14.759765625 276.120117188 14.759765625 287.280273438 3.240234375 c 1,88,89
 297.360351562 -5.759765625 297.360351562 -5.759765625 307.440429688 -5.759765625 c 0,90,91
 317.879882812 -5.759765625 317.879882812 -5.759765625 334.080078125 3.9599609375 c 1,92,93
 343.440429688 11.16015625 343.440429688 11.16015625 357.83984375 30.240234375 c 1,94,-1
 372.599609375 54 l 1,95,96
 380.16015625 68.759765625 380.16015625 68.759765625 383.400390625 78.83984375 c 1,97,-1
 388.440429688 101.16015625 l 1,98,-1
 390.599609375 125.280273438 l 1,99,-1
 388.440429688 154.799804688 l 1,100,-1
 385.200195312 167.400390625 l 1,101,-1
 382.6796875 174.240234375 l 1,102,-1
 379.080078125 182.16015625 l 2,103,104
 362.879882812 217.440429688 362.879882812 217.440429688 331.200195312 237.419921875 c 128,-1,105
 299.51953125 257.400390625 299.51953125 257.400390625 260.280273438 257.400390625 c 0,106,107
 217.080078125 257.400390625 217.080078125 257.400390625 188.099609375 235.98046875 c 128,-1,108
 159.120117188 214.559570312 159.120117188 214.559570312 137.16015625 165.959960938 c 1,109,-1
 126.719726562 123.83984375 l 1,110,-1
 113.400390625 66.9599609375 l 1,111,112
 114.48046875 58.3203125 114.48046875 58.3203125 105.83984375 43.2001953125 c 1,113,-1
 94.6796875 32.759765625 l 1,114,-1
 89.2802734375 30.599609375 l 1,115,-1
 81.7197265625 28.080078125 l 1,116,117
 66.599609375 28.080078125 66.599609375 28.080078125 58.3203125 37.4404296875 c 1,118,-1
 21.9599609375 60.48046875 l 1,7,8
81.7197265625 28.080078125 m 1,119,120
 66.599609375 28.080078125 66.599609375 28.080078125 58.3203125 37.4404296875 c 1,121,-1
 54.7197265625 41.759765625 l 1,122,-1
 51.1201171875 47.16015625 l 1,123,-1
 47.51953125 60.48046875 l 1,124,-1
 53.6396484375 52.919921875 l 2,125,126
 57.240234375 48.240234375 57.240234375 48.240234375 63.3603515625 48.240234375 c 1,127,-1
 66.9599609375 48.599609375 l 2,128,129
 75.599609375 49.6796875 75.599609375 49.6796875 83.8798828125 57.9599609375 c 0,130,131
 93.599609375 67.6796875 93.599609375 67.6796875 93.599609375 80.6396484375 c 0,132,133
 93.599609375 94.6796875 93.599609375 94.6796875 81 105.83984375 c 0,134,135
 70.2001953125 115.559570312 70.2001953125 115.559570312 60.48046875 115.559570312 c 1,136,-1
 55.080078125 114.48046875 l 2,137,138
 51.48046875 113.759765625 51.48046875 113.759765625 48.599609375 111.599609375 c 1,139,140
 41.759765625 108 41.759765625 108 36.7197265625 103.6796875 c 0,141,142
 28.080078125 96.1201171875 28.080078125 96.1201171875 24.83984375 85.3203125 c 1,143,-1
 22.6796875 73.080078125 l 1,144,-1
 21.9599609375 60.48046875 l 1,145,146
 21.9599609375 39.9599609375 21.9599609375 39.9599609375 40.6796875 19.7998046875 c 1,147,-1
 81.7197265625 28.080078125 l 1,119,120
EndSplineSet
Ligature2: "'clig' Contextual Ligatures lookup 7 subtable" uAA6D u103C
Ligature2: "'clig' Contextual Ligatures lookup 5 subtable" uAA6D u1031
MultipleSubs2: "Multiple Substitution lookup 2 subtable" guard u103C.nar uAA6D
MultipleSubs2: "Multiple Substitution lookup 1 subtable" guard u103C.nar.udia uAA6D
MultipleSubs2: "Multiple Substitution lookup 0 subtable" guard u1031 uAA6D
EndChar

StartChar: uAA77
Encoding: 43639 43639 33
Width: 595
VWidth: 360
GlyphClass: 2
Flags: W
LayerCount: 2
Fore
SplineSet
366.120117188 267.83984375 m 0,0,1
 363.959960938 266.400390625 363.959960938 266.400390625 355.6796875 256.6796875 c 1,2,-1
 346.3203125 244.440429688 l 1,3,4
 342.360351562 245.51953125 342.360351562 245.51953125 332.639648438 254.879882812 c 1,5,6
 323.639648438 264.599609375 323.639648438 264.599609375 314.280273438 277.559570312 c 1,7,8
 302.400390625 295.559570312 302.400390625 295.559570312 299.16015625 302.400390625 c 0,9,10
 298.080078125 304.919921875 298.080078125 304.919921875 297.1796875 308.16015625 c 128,-1,11
 296.280273438 311.400390625 296.280273438 311.400390625 295.200195312 316.440429688 c 1,12,-1
 294.48046875 326.16015625 l 1,13,-1
 294.48046875 331.200195312 l 2,14,15
 294.48046875 349.200195312 294.48046875 349.200195312 299.879882812 365.400390625 c 128,-1,16
 305.280273438 381.599609375 305.280273438 381.599609375 314.099609375 387 c 128,-1,17
 322.919921875 392.400390625 322.919921875 392.400390625 355.6796875 398.879882812 c 2,18,-1
 422.280273438 411.48046875 l 1,19,20
 442.440429688 417.240234375 442.440429688 417.240234375 480.240234375 435.240234375 c 1,21,-1
 510.83984375 450.360351562 l 1,22,23
 533.879882812 467.639648438 533.879882812 467.639648438 543.959960938 487.080078125 c 1,24,25
 549.719726562 500.400390625 549.719726562 500.400390625 549.719726562 517.3203125 c 2,26,-1
 549.719726562 528.120117188 l 2,27,28
 549.719726562 542.879882812 549.719726562 542.879882812 548.639648438 552.240234375 c 1,29,30
 548.639648438 560.16015625 548.639648438 560.16015625 544.3203125 562.3203125 c 1,31,32
 538.919921875 565.559570312 538.919921875 565.559570312 534.959960938 555.120117188 c 1,33,-1
 532.799804688 540 l 1,34,35
 529.919921875 523.440429688 529.919921875 523.440429688 524.879882812 513 c 1,36,37
 518.400390625 497.879882812 518.400390625 497.879882812 513 490.3203125 c 0,38,39
 506.51953125 480.599609375 506.51953125 480.599609375 495.360351562 472.6796875 c 0,40,41
 487.799804688 467.639648438 487.799804688 467.639648438 460.440429688 453.599609375 c 128,-1,42
 433.080078125 439.559570312 433.080078125 439.559570312 411.48046875 432 c 1,43,-1
 358.200195312 422.639648438 l 1,44,45
 320.400390625 417.240234375 320.400390625 417.240234375 300.240234375 407.16015625 c 1,46,47
 286.200195312 399.599609375 286.200195312 399.599609375 278.280273438 381.959960938 c 1,48,49
 271.440429688 362.51953125 271.440429688 362.51953125 271.440429688 340.559570312 c 1,50,-1
 271.799804688 327.240234375 l 2,51,52
 271.799804688 320.040039062 271.799804688 320.040039062 273.599609375 312.48046875 c 1,53,54
 274.6796875 304.200195312 274.6796875 304.200195312 276.120117188 301.3203125 c 2,55,-1
 280.799804688 289.080078125 l 1,56,57
 288.360351562 272.879882812 288.360351562 272.879882812 305.639648438 252 c 1,58,-1
 326.16015625 228.959960938 l 1,59,60
 316.440429688 228.959960938 316.440429688 228.959960938 300.240234375 231.120117188 c 2,61,-1
 286.200195312 233.280273438 l 1,62,-1
 252.719726562 226.440429688 l 2,63,64
 227.879882812 221.040039062 227.879882812 221.040039062 221.759765625 216.360351562 c 1,65,66
 192.959960938 198 192.959960938 198 167.040039062 151.919921875 c 1,67,-1
 164.16015625 144 l 1,68,-1
 163.440429688 136.080078125 l 1,69,-1
 162 132.48046875 l 1,70,71
 154.440429688 126 154.440429688 126 144.360351562 94.3203125 c 1,72,-1
 139.3203125 75.240234375 l 1,73,-1
 133.919921875 50.759765625 l 1,74,75
 132.120117188 38.8798828125 132.120117188 38.8798828125 124.559570312 29.16015625 c 1,76,77
 113.040039062 19.4404296875 113.040039062 19.4404296875 104.040039062 19.4404296875 c 0,78,79
 93.240234375 19.4404296875 93.240234375 19.4404296875 73.080078125 47.51953125 c 1,80,-1
 56.51953125 75.9599609375 l 1,81,-1
 50.0400390625 109.799804688 l 1,82,-1
 47.8798828125 124.919921875 l 1,83,-1
 48.599609375 136.080078125 l 1,84,85
 48.599609375 144.360351562 48.599609375 144.360351562 54.3603515625 145.440429688 c 1,86,-1
 62.2802734375 143.639648438 l 1,87,-1
 68.400390625 142.559570312 l 1,88,-1
 76.3203125 143.280273438 l 1,89,-1
 83.16015625 146.51953125 l 1,90,-1
 87.48046875 150.120117188 l 1,91,-1
 91.4404296875 155.51953125 l 2,92,93
 95.759765625 162 95.759765625 162 95.759765625 165.240234375 c 1,94,95
 96.83984375 167.040039062 96.83984375 167.040039062 96.83984375 172.799804688 c 2,96,-1
 96.83984375 180.360351562 l 1,97,98
 92.51953125 191.879882812 92.51953125 191.879882812 86.759765625 197.280273438 c 1,99,100
 84.599609375 198.360351562 84.599609375 198.360351562 79.919921875 200.16015625 c 128,-1,101
 75.240234375 201.959960938 75.240234375 201.959960938 70.2001953125 201.959960938 c 0,102,103
 61.919921875 201.959960938 61.919921875 201.959960938 59.759765625 201.240234375 c 1,104,105
 57.9599609375 201.240234375 57.9599609375 201.240234375 52.919921875 198 c 1,106,-1
 40.6796875 186.83984375 l 2,107,108
 32.759765625 179.639648438 32.759765625 179.639648438 28.4404296875 169.559570312 c 1,109,-1
 26.2802734375 163.080078125 l 1,110,-1
 25.5595703125 155.51953125 l 1,111,-1
 23.759765625 140.759765625 l 1,112,-1
 23.400390625 127.799804688 l 1,113,-1
 23.400390625 111.599609375 l 1,114,-1
 25.2001953125 97.919921875 l 1,115,-1
 30.9599609375 79.5595703125 l 1,116,117
 46.080078125 39.240234375 46.080078125 39.240234375 64.7998046875 19.4404296875 c 1,118,-1
 75.599609375 8.6396484375 l 1,119,120
 81 4.3203125 81 4.3203125 87.48046875 1.080078125 c 1,121,122
 92.16015625 -0.7197265625 92.16015625 -0.7197265625 98.8203125 -2.16015625 c 128,-1,123
 105.48046875 -3.599609375 105.48046875 -3.599609375 110.16015625 -3.599609375 c 0,124,125
 117.719726562 -3.599609375 117.719726562 -3.599609375 121.3203125 -1.7998046875 c 1,126,127
 131.400390625 1.4404296875 131.400390625 1.4404296875 140.759765625 11.51953125 c 1,128,129
 151.200195312 21.599609375 151.200195312 21.599609375 156.240234375 32.0400390625 c 1,130,-1
 162 50.759765625 l 1,131,-1
 167.400390625 72 l 1,132,-1
 173.51953125 91.4404296875 l 1,133,134
 186.48046875 127.799804688 186.48046875 127.799804688 190.080078125 132.120117188 c 1,135,-1
 191.16015625 140.040039062 l 1,136,-1
 192.240234375 143.639648438 l 1,137,138
 203.040039062 173.16015625 203.040039062 173.16015625 232.200195312 192.599609375 c 1,139,140
 258.83984375 208.080078125 258.83984375 208.080078125 285.83984375 208.080078125 c 1,141,-1
 302.400390625 207 l 2,142,143
 306.360351562 207 306.360351562 207 313.379882812 203.040039062 c 128,-1,144
 320.400390625 199.080078125 320.400390625 199.080078125 326.16015625 192.240234375 c 0,145,146
 340.919921875 174.599609375 340.919921875 174.599609375 355.5 145.620117188 c 128,-1,147
 370.080078125 116.639648438 370.080078125 116.639648438 370.080078125 99 c 0,148,149
 370.080078125 87.48046875 370.080078125 87.48046875 365.040039062 77.400390625 c 0,150,151
 362.879882812 72.7197265625 362.879882812 72.7197265625 358.01953125 64.4404296875 c 128,-1,152
 353.16015625 56.16015625 353.16015625 56.16015625 344.16015625 42.83984375 c 1,153,154
 339.48046875 34.2001953125 339.48046875 34.2001953125 338.040039062 33.1201171875 c 1,155,-1
 294.83984375 -16.919921875 l 2,156,157
 280.799804688 -33.1201171875 280.799804688 -33.1201171875 268.919921875 -49.3203125 c 1,158,159
 268.919921875 -49.3203125 268.919921875 -49.3203125 258.120117188 -65.51953125 c 0,160,161
 253.440429688 -73.080078125 253.440429688 -73.080078125 248.400390625 -82.4404296875 c 0,162,163
 223.919921875 -127.080078125 223.919921875 -127.080078125 223.919921875 -162 c 0,164,165
 223.919921875 -188.639648438 223.919921875 -188.639648438 244.080078125 -224.639648438 c 1,166,-1
 252.360351562 -238.6796875 l 1,167,-1
 264.599609375 -257.400390625 l 1,168,169
 266.759765625 -266.040039062 266.759765625 -266.040039062 273.959960938 -272.16015625 c 1,170,171
 280.799804688 -279 280.799804688 -279 289.799804688 -282.959960938 c 2,172,-1
 306.360351562 -290.51953125 l 1,173,-1
 313.200195312 -291.959960938 l 1,174,-1
 320.400390625 -293.400390625 l 1,175,-1
 325.080078125 -293.040039062 l 1,176,177
 335.16015625 -290.879882812 335.16015625 -290.879882812 341.280273438 -284.759765625 c 1,178,179
 345.599609375 -281.16015625 345.599609375 -281.16015625 352.440429688 -270.360351562 c 0,180,181
 357.48046875 -262.799804688 357.48046875 -262.799804688 360 -252.719726562 c 2,182,-1
 362.16015625 -243 l 1,183,-1
 362.879882812 -232.200195312 l 1,184,-1
 362.879882812 -227.51953125 l 2,185,186
 362.879882812 -224.280273438 362.879882812 -224.280273438 362.16015625 -221.400390625 c 1,187,188
 362.16015625 -217.799804688 362.16015625 -217.799804688 359.639648438 -212.400390625 c 1,189,190
 357.83984375 -207 357.83984375 -207 353.51953125 -203.400390625 c 1,191,-1
 347.040039062 -201.599609375 l 1,192,193
 338.040039062 -201.599609375 338.040039062 -201.599609375 338.040039062 -236.16015625 c 0,194,195
 338.040039062 -271.080078125 338.040039062 -271.080078125 322.200195312 -271.080078125 c 0,196,197
 312.48046875 -271.080078125 312.48046875 -271.080078125 299.51953125 -261.360351562 c 1,198,-1
 288.360351562 -251.639648438 l 1,199,-1
 282.959960938 -243.719726562 l 1,200,-1
 277.559570312 -234.719726562 l 1,201,-1
 265.6796875 -212.040039062 l 1,202,203
 249.48046875 -178.919921875 249.48046875 -178.919921875 249.48046875 -163.080078125 c 0,204,205
 249.48046875 -145.440429688 249.48046875 -145.440429688 262.440429688 -113.759765625 c 128,-1,206
 275.400390625 -82.080078125 275.400390625 -82.080078125 295.200195312 -57.9599609375 c 1,207,-1
 329.040039062 -19.080078125 l 1,208,-1
 355.6796875 13.3203125 l 1,209,-1
 369 33.83984375 l 1,210,-1
 384.48046875 62.6396484375 l 2,211,212
 387 68.0400390625 387 68.0400390625 391.6796875 87.83984375 c 1,213,-1
 393.83984375 100.799804688 l 1,214,-1
 394.200195312 109.440429688 l 1,215,-1
 393.120117188 118.799804688 l 1,216,-1
 388.799804688 130.6796875 l 1,217,-1
 383.040039062 144.719726562 l 2,218,219
 381.240234375 149.759765625 381.240234375 149.759765625 380.33984375 151.559570312 c 128,-1,220
 379.440429688 153.360351562 379.440429688 153.360351562 375.83984375 158.759765625 c 1,221,-1
 360.719726562 186.48046875 l 1,222,223
 353.16015625 201.240234375 353.16015625 201.240234375 351 212.400390625 c 1,224,225
 349.919921875 220.6796875 349.919921875 220.6796875 360.1796875 234.1796875 c 128,-1,226
 370.440429688 247.6796875 370.440429688 247.6796875 377.280273438 247.6796875 c 1,227,-1
 387.719726562 245.51953125 l 2,228,229
 389.879882812 245.16015625 389.879882812 245.16015625 392.400390625 244.799804688 c 128,-1,230
 394.919921875 244.440429688 394.919921875 244.440429688 398.879882812 242.639648438 c 1,231,232
 423 236.16015625 423 236.16015625 433.799804688 227.879882812 c 1,233,234
 442.799804688 221.759765625 442.799804688 221.759765625 451.799804688 210.599609375 c 0,235,236
 457.200195312 203.400390625 457.200195312 203.400390625 466.200195312 187.200195312 c 1,237,-1
 468.719726562 177.83984375 l 1,238,-1
 469.440429688 163.440429688 l 1,239,-1
 469.440429688 150.83984375 l 1,240,241
 468.360351562 140.400390625 468.360351562 140.400390625 468 134.639648438 c 1,242,243
 468 127.799804688 468 127.799804688 466.740234375 118.259765625 c 128,-1,244
 465.48046875 108.719726562 465.48046875 108.719726562 463.3203125 96.1201171875 c 1,245,-1
 461.16015625 79.2001953125 l 1,246,-1
 457.200195312 57.599609375 l 1,247,248
 457.200195312 -23.0400390625 457.200195312 -23.0400390625 460.440429688 -52.01953125 c 128,-1,249
 463.6796875 -81 463.6796875 -81 477 -100.799804688 c 0,250,251
 486 -114.120117188 486 -114.120117188 504 -124.919921875 c 1,252,253
 514.799804688 -130.6796875 514.799804688 -130.6796875 538.919921875 -138.599609375 c 1,254,-1
 566.639648438 -143.280273438 l 1,255,-1
 604.080078125 -148.6796875 l 1,256,257
 608.040039062 -148.6796875 608.040039062 -148.6796875 637.919921875 -138.240234375 c 1,258,-1
 669.240234375 -125.280273438 l 1,259,260
 662.759765625 -117.719726562 662.759765625 -117.719726562 653.040039062 -117.719726562 c 0,261,262
 648.360351562 -117.719726562 648.360351562 -117.719726562 626.759765625 -124.559570312 c 1,263,264
 619.559570312 -126.360351562 619.559570312 -126.360351562 615.419921875 -127.080078125 c 128,-1,265
 611.280273438 -127.799804688 611.280273438 -127.799804688 607.3203125 -128.16015625 c 1,266,-1
 603 -127.799804688 l 1,267,-1
 583.200195312 -126.360351562 l 1,268,-1
 574.200195312 -123.48046875 l 1,269,-1
 545.040039062 -117 l 1,270,271
 532.080078125 -114.83984375 532.080078125 -114.83984375 520.200195312 -106.559570312 c 1,272,273
 505.080078125 -97.919921875 505.080078125 -97.919921875 494.639648438 -84.240234375 c 1,274,275
 487.440429688 -74.16015625 487.440429688 -74.16015625 483.120117188 -45.3603515625 c 1,276,277
 481.6796875 -30.9599609375 481.6796875 -30.9599609375 480.959960938 -15.83984375 c 128,-1,278
 480.240234375 -0.7197265625 480.240234375 -0.7197265625 480.240234375 19.080078125 c 2,279,-1
 480.240234375 38.8798828125 l 1,280,-1
 480.599609375 57.599609375 l 2,281,282
 480.599609375 67.3203125 480.599609375 67.3203125 481.3203125 75.419921875 c 128,-1,283
 482.040039062 83.51953125 482.040039062 83.51953125 484.200195312 95.759765625 c 2,284,-1
 489.959960938 132.48046875 l 1,285,-1
 492.120117188 155.51953125 l 1,286,-1
 491.040039062 175.6796875 l 2,287,288
 490.6796875 180 490.6796875 180 489.599609375 185.940429688 c 128,-1,289
 488.51953125 191.879882812 488.51953125 191.879882812 487.080078125 197.639648438 c 0,290,291
 483.83984375 213.83984375 483.83984375 213.83984375 472.6796875 226.080078125 c 0,292,293
 465.83984375 233.280273438 465.83984375 233.280273438 446.040039062 248.400390625 c 1,294,295
 431.639648438 258.83984375 431.639648438 258.83984375 417.240234375 264.780273438 c 128,-1,296
 402.83984375 270.719726562 402.83984375 270.719726562 390.959960938 270.719726562 c 2,297,-1
 383.400390625 270.719726562 l 1,298,-1
 375.48046875 270 l 1,299,300
 370.080078125 270 370.080078125 270 366.120117188 267.83984375 c 0,0,1
EndSplineSet
EndChar

StartChar: uAA78
Encoding: 43640 43640 34
Width: 376
VWidth: 360
GlyphClass: 2
Flags: W
LayerCount: 2
Fore
SplineSet
387.360351562 343.440429688 m 1,0,1
 385.200195312 334.799804688 385.200195312 334.799804688 378 331.559570312 c 1,2,-1
 375.48046875 331.200195312 l 1,3,-1
 374.400390625 330.83984375 l 1,4,5
 372.240234375 330.83984375 372.240234375 330.83984375 369 333 c 2,6,-1
 359.280273438 339.120117188 l 1,7,-1
 349.919921875 343.440429688 l 1,8,-1
 343.799804688 342 l 1,9,-1
 336.959960938 339.83984375 l 1,10,-1
 334.080078125 338.759765625 l 1,11,-1
 332.280273438 337.6796875 l 2,12,13
 330.120117188 336.599609375 330.120117188 336.599609375 328.6796875 334.799804688 c 1,14,15
 323.639648438 331.559570312 323.639648438 331.559570312 322.200195312 324.719726562 c 1,16,-1
 317.879882812 312.48046875 l 1,17,-1
 318.599609375 311.400390625 l 1,18,-1
 308.16015625 288.719726562 l 1,19,-1
 289.799804688 245.51953125 l 1,20,-1
 275.400390625 201.240234375 l 1,21,-1
 258.48046875 136.440429688 l 1,22,23
 249.48046875 94.3203125 249.48046875 94.3203125 239.040039062 38.51953125 c 1,24,-1
 232.200195312 -6.1201171875 l 1,25,-1
 230.759765625 -6.1201171875 l 1,26,27
 226.440429688 -3.240234375 226.440429688 -3.240234375 223.919921875 -2.8798828125 c 2,28,-1
 213.48046875 -1.4404296875 l 1,29,-1
 208.440429688 -2.16015625 l 1,30,-1
 205.559570312 2.8798828125 l 1,31,-1
 203.759765625 9.3603515625 l 1,32,33
 205.559570312 23.400390625 205.559570312 23.400390625 195.120117188 38.51953125 c 1,34,35
 184.3203125 50.400390625 184.3203125 50.400390625 160.919921875 56.16015625 c 1,36,-1
 150.120117188 57.240234375 l 1,37,38
 141.120117188 57.240234375 141.120117188 57.240234375 137.16015625 55.7998046875 c 1,39,40
 131.759765625 54.7197265625 131.759765625 54.7197265625 124.919921875 50.0400390625 c 1,41,-1
 113.759765625 43.5595703125 l 1,42,-1
 109.440429688 38.8798828125 l 1,43,-1
 107.280273438 36.3603515625 l 1,44,45
 104.400390625 34.2001953125 104.400390625 34.2001953125 101.51953125 29.16015625 c 2,46,-1
 97.919921875 21.9599609375 l 1,47,-1
 99.3603515625 18.7197265625 l 1,48,-1
 100.440429688 10.080078125 l 1,49,-1
 98.6396484375 1.080078125 l 1,50,-1
 91.080078125 -2.16015625 l 1,51,-1
 84.599609375 -2.51953125 l 1,52,-1
 81.7197265625 -0.3603515625 l 1,53,-1
 78.1201171875 3.240234375 l 1,54,-1
 74.51953125 8.2802734375 l 1,55,-1
 72.3603515625 17.6396484375 l 1,56,-1
 73.080078125 23.0400390625 l 1,57,-1
 73.4404296875 29.8798828125 l 1,58,59
 74.16015625 33.48046875 74.16015625 33.48046875 77.400390625 38.16015625 c 1,60,61
 79.5595703125 43.5595703125 79.5595703125 43.5595703125 84.9599609375 48.9599609375 c 1,62,-1
 90.7197265625 56.16015625 l 1,63,-1
 99.7197265625 62.6396484375 l 1,64,-1
 110.16015625 69.1201171875 l 1,65,66
 127.799804688 79.5595703125 127.799804688 79.5595703125 151.559570312 79.5595703125 c 2,67,-1
 157.6796875 79.5595703125 l 1,68,-1
 164.879882812 78.83984375 l 1,69,70
 179.280273438 76.6796875 179.280273438 76.6796875 190.080078125 68.400390625 c 0,71,72
 192.240234375 66.9599609375 192.240234375 66.9599609375 212.400390625 46.7998046875 c 1,73,-1
 216.719726562 57.240234375 l 2,74,75
 222.120117188 70.919921875 222.120117188 70.919921875 223.200195312 77.400390625 c 0,76,77
 226.080078125 95.400390625 226.080078125 95.400390625 231.83984375 119.51953125 c 2,78,-1
 241.559570312 158.759765625 l 1,79,-1
 245.51953125 179.639648438 l 1,80,-1
 252 207.719726562 l 2,81,82
 255.599609375 222.120117188 255.599609375 222.120117188 263.879882812 244.799804688 c 2,83,-1
 278.280273438 283.3203125 l 1,84,-1
 294.120117188 321.48046875 l 1,85,-1
 298.440429688 334.799804688 l 1,86,-1
 304.919921875 347.400390625 l 1,87,-1
 307.799804688 350.639648438 l 1,88,-1
 313.200195312 354.959960938 l 1,89,-1
 325.440429688 361.799804688 l 1,90,-1
 338.400390625 366.48046875 l 1,91,-1
 352.080078125 367.919921875 l 1,92,93
 357.48046875 367.919921875 357.48046875 367.919921875 361.799804688 365.759765625 c 2,94,-1
 369 361.799804688 l 1,95,-1
 376.559570312 358.200195312 l 1,96,97
 379.799804688 357.120117188 379.799804688 357.120117188 381.959960938 354.959960938 c 1,98,99
 387.360351562 351 387.360351562 351 387.360351562 343.440429688 c 1,0,1
233.639648438 238.6796875 m 1,100,101
 233.639648438 228.959960938 233.639648438 228.959960938 229.3203125 220.3203125 c 1,102,103
 227.16015625 213.83984375 227.16015625 213.83984375 220.3203125 204.83984375 c 128,-1,104
 213.48046875 195.83984375 213.48046875 195.83984375 198 185.400390625 c 0,105,106
 189 178.919921875 189 178.919921875 170.280273438 175.3203125 c 1,107,-1
 163.080078125 174.240234375 l 1,108,-1
 158.040039062 174.240234375 l 2,109,110
 147.599609375 174.240234375 147.599609375 174.240234375 136.440429688 176.400390625 c 128,-1,111
 125.280273438 178.559570312 125.280273438 178.559570312 115.919921875 184.3203125 c 1,112,-1
 105.48046875 190.080078125 l 1,113,-1
 95.759765625 197.280273438 l 1,114,-1
 88.919921875 205.559570312 l 1,115,-1
 82.4404296875 214.559570312 l 1,116,-1
 78.83984375 223.200195312 l 1,117,-1
 78.1201171875 230.040039062 l 1,118,-1
 77.0400390625 236.879882812 l 1,119,-1
 78.48046875 243.360351562 l 2,120,121
 79.5595703125 246.599609375 79.5595703125 246.599609375 82.080078125 249.120117188 c 2,122,-1
 85.3203125 252.719726562 l 1,123,-1
 88.919921875 255.240234375 l 1,124,-1
 95.0400390625 255.240234375 l 1,125,-1
 103.3203125 253.799804688 l 1,126,-1
 104.040039062 247.3203125 l 1,127,-1
 104.759765625 243.360351562 l 1,128,-1
 104.040039062 234.719726562 l 1,129,-1
 103.3203125 230.400390625 l 1,130,-1
 106.559570312 224.280273438 l 1,131,132
 106.559570312 221.040039062 106.559570312 221.040039062 110.879882812 217.799804688 c 1,133,-1
 111.959960938 216.719726562 l 1,134,-1
 114.83984375 214.200195312 l 1,135,-1
 119.51953125 209.879882812 l 1,136,-1
 125.639648438 206.280273438 l 1,137,-1
 129.599609375 203.400390625 l 1,138,-1
 135 200.16015625 l 1,139,-1
 143.280273438 197.639648438 l 2,140,141
 147.599609375 196.559570312 147.599609375 196.559570312 155.51953125 196.559570312 c 1,142,-1
 166.3203125 197.639648438 l 1,143,144
 187.919921875 202.6796875 187.919921875 202.6796875 200.16015625 216.719726562 c 1,145,146
 208.799804688 229.3203125 208.799804688 229.3203125 208.799804688 243 c 2,147,-1
 208.799804688 247.3203125 l 1,148,-1
 209.879882812 251.280273438 l 1,149,-1
 212.759765625 257.040039062 l 1,150,-1
 218.879882812 253.080078125 l 1,151,-1
 227.51953125 250.919921875 l 1,152,-1
 233.639648438 238.6796875 l 1,100,101
98.2802734375 127.799804688 m 1,153,154
 98.2802734375 107.639648438 98.2802734375 107.639648438 87.48046875 86.400390625 c 1,155,-1
 81.7197265625 77.0400390625 l 1,156,-1
 73.7998046875 68.0400390625 l 1,157,-1
 64.7998046875 59.759765625 l 1,158,-1
 55.4404296875 53.2802734375 l 1,159,-1
 47.51953125 49.6796875 l 1,160,-1
 40.6796875 48.9599609375 l 1,161,-1
 35.2802734375 48.9599609375 l 1,162,-1
 27.7197265625 50.400390625 l 1,163,-1
 25.919921875 51.48046875 l 1,164,-1
 20.8798828125 54.7197265625 l 1,165,-1
 16.919921875 58.3203125 l 1,166,-1
 15.83984375 60.83984375 l 1,167,-1
 15.83984375 66.9599609375 l 1,168,-1
 17.6396484375 74.8798828125 l 1,169,-1
 23.759765625 75.599609375 l 1,170,-1
 28.080078125 76.6796875 l 1,171,-1
 36.3603515625 75.599609375 l 1,172,-1
 40.3203125 74.16015625 l 1,173,-1
 47.8798828125 78.48046875 l 1,174,175
 51.1201171875 79.5595703125 51.1201171875 79.5595703125 53.6396484375 82.080078125 c 2,176,-1
 56.8798828125 86.0400390625 l 1,177,-1
 62.2802734375 90.7197265625 l 1,178,-1
 68.759765625 101.16015625 l 1,179,-1
 73.4404296875 113.759765625 l 1,180,-1
 75.9599609375 127.440429688 l 1,181,-1
 74.8798828125 137.51953125 l 1,182,183
 69.48046875 156.959960938 69.48046875 156.959960938 56.51953125 171.719726562 c 1,184,185
 43.919921875 181.080078125 43.919921875 181.080078125 30.9599609375 181.080078125 c 1,186,-1
 26.6396484375 180.719726562 l 1,187,-1
 20.8798828125 182.16015625 l 2,188,189
 19.080078125 182.879882812 19.080078125 182.879882812 17.2802734375 185.040039062 c 1,190,-1
 20.51953125 191.51953125 l 1,191,-1
 22.6796875 198.719726562 l 1,192,-1
 34.919921875 205.559570312 l 1,193,-1
 42.48046875 204.48046875 l 1,194,-1
 54 200.16015625 l 1,195,-1
 63 195.83984375 l 1,196,-1
 69.83984375 190.799804688 l 1,197,198
 87.83984375 174.959960938 87.83984375 174.959960938 97.5595703125 141.120117188 c 1,199,-1
 97.919921875 133.919921875 l 1,200,-1
 98.2802734375 127.799804688 l 1,153,154
EndSplineSet
EndChar

StartChar: uAA79
Encoding: 43641 43641 35
Width: 303
VWidth: 360
GlyphClass: 2
Flags: W
AnchorPoint: "Anchor-3" 152.28 249.84 basechar 0
LayerCount: 2
Fore
SplineSet
180.719726562 2.16015625 m 1,0,-1
 154.080078125 0.7197265625 l 1,1,2
 129.599609375 0.7197265625 129.599609375 0.7197265625 105.66015625 9.3603515625 c 128,-1,3
 81.7197265625 18 81.7197265625 18 60.48046875 37.4404296875 c 1,4,5
 56.16015625 42.1201171875 56.16015625 42.1201171875 52.5595703125 46.4404296875 c 2,6,-1
 44.6396484375 56.8798828125 l 1,7,8
 37.7998046875 67.6796875 37.7998046875 67.6796875 31.6796875 79.5595703125 c 1,9,-1
 25.2001953125 103.3203125 l 1,10,-1
 21.9599609375 128.879882812 l 1,11,12
 21.9599609375 181.799804688 21.9599609375 181.799804688 59.759765625 221.759765625 c 128,-1,13
 97.5595703125 261.719726562 97.5595703125 261.719726562 151.919921875 261.719726562 c 0,14,15
 203.759765625 261.719726562 203.759765625 261.719726562 243 225.719726562 c 128,-1,16
 282.240234375 189.719726562 282.240234375 189.719726562 282.240234375 135.719726562 c 2,17,-1
 282.959960938 -177.83984375 l 1,18,-1
 282.959960938 -183.599609375 l 1,19,-1
 284.400390625 -187.919921875 l 1,20,-1
 289.799804688 -199.080078125 l 1,21,22
 293.040039062 -202.3203125 293.040039062 -202.3203125 299.16015625 -203.400390625 c 1,23,-1
 314.639648438 -204.120117188 l 2,24,25
 322.200195312 -204.120117188 322.200195312 -204.120117188 322.200195312 -216.719726562 c 0,26,27
 322.200195312 -230.040039062 322.200195312 -230.040039062 314.639648438 -230.040039062 c 1,28,-1
 291.959960938 -227.879882812 l 1,29,-1
 275.040039062 -218.879882812 l 1,30,31
 258.120117188 -203.759765625 258.120117188 -203.759765625 258.120117188 -180 c 2,32,-1
 258.120117188 132.120117188 l 2,33,34
 258.120117188 173.879882812 258.120117188 173.879882812 226.440429688 205.559570312 c 0,35,36
 209.879882812 222.120117188 209.879882812 222.120117188 192.240234375 229.3203125 c 0,37,38
 183.599609375 232.919921875 183.599609375 232.919921875 173.33984375 235.080078125 c 128,-1,39
 163.080078125 237.240234375 163.080078125 237.240234375 151.919921875 237.240234375 c 0,40,41
 110.16015625 237.240234375 110.16015625 237.240234375 78.66015625 205.740234375 c 128,-1,42
 47.16015625 174.240234375 47.16015625 174.240234375 47.16015625 128.879882812 c 1,43,-1
 47.8798828125 111.240234375 l 1,44,-1
 50.0400390625 103.3203125 l 1,45,-1
 54.7197265625 92.16015625 l 1,46,-1
 65.51953125 98.6396484375 l 1,47,-1
 74.51953125 102.599609375 l 1,48,-1
 95.759765625 105.48046875 l 1,49,50
 123.120117188 105.48046875 123.120117188 105.48046875 156.240234375 78.83984375 c 1,51,52
 169.559570312 66.240234375 169.559570312 66.240234375 176.040039062 50.759765625 c 1,53,54
 182.879882812 37.7998046875 182.879882812 37.7998046875 182.879882812 18.3603515625 c 1,55,-1
 180.719726562 2.16015625 l 1,0,-1
61.919921875 76.6796875 m 1,56,57
 65.51953125 71.2802734375 65.51953125 71.2802734375 74.16015625 62.6396484375 c 0,58,59
 77.759765625 59.0400390625 77.759765625 59.0400390625 87.83984375 50.0400390625 c 2,60,-1
 99.3603515625 39.9599609375 l 1,61,62
 124.200195312 24.48046875 124.200195312 24.48046875 153.360351562 24.48046875 c 1,63,-1
 164.51953125 25.2001953125 l 1,64,65
 162.360351562 48.240234375 162.360351562 48.240234375 140.759765625 67.6796875 c 1,66,67
 121.6796875 87.83984375 121.6796875 87.83984375 95.0400390625 87.83984375 c 1,68,-1
 78.1201171875 85.6796875 l 1,69,-1
 61.919921875 76.6796875 l 1,56,57
EndSplineSet
EndChar

StartChar: uAA7A
Encoding: 43642 43642 36
Width: 610
VWidth: 360
GlyphClass: 3
Flags: W
AnchorPoint: "Anchor-3" 505.44 271.44 basechar 0
AnchorPoint: "Anchor-1" 468 0 basechar 0
LayerCount: 2
Fore
SplineSet
367.200195312 27 m 1,0,1
 349.919921875 44.2802734375 349.919921875 44.2802734375 337.6796875 73.080078125 c 1,2,3
 332.280273438 87.48046875 332.280273438 87.48046875 329.040039062 101.51953125 c 1,4,-1
 326.879882812 115.200195312 l 1,5,-1
 326.16015625 129.959960938 l 1,6,7
 326.16015625 175.6796875 326.16015625 175.6796875 294.48046875 208.080078125 c 128,-1,8
 262.799804688 240.48046875 262.799804688 240.48046875 218.51953125 240.48046875 c 0,9,10
 176.759765625 240.48046875 176.759765625 240.48046875 145.259765625 208.98046875 c 128,-1,11
 113.759765625 177.48046875 113.759765625 177.48046875 113.759765625 132.83984375 c 0,12,13
 113.759765625 114.48046875 113.759765625 114.48046875 120.240234375 93.9599609375 c 1,14,15
 127.080078125 76.3203125 127.080078125 76.3203125 144.719726562 59.400390625 c 0,16,17
 148.3203125 56.16015625 148.3203125 56.16015625 170.639648438 42.48046875 c 1,18,19
 182.879882812 38.16015625 182.879882812 38.16015625 200.51953125 34.919921875 c 1,20,21
 200.51953125 50.400390625 200.51953125 50.400390625 207.719726562 60.83984375 c 1,22,23
 212.759765625 69.1201171875 212.759765625 69.1201171875 220.5 74.16015625 c 128,-1,24
 228.240234375 79.2001953125 228.240234375 79.2001953125 239.759765625 79.2001953125 c 0,25,26
 248.400390625 79.2001953125 248.400390625 79.2001953125 257.040039062 74.8798828125 c 1,27,-1
 270.719726562 60.1201171875 l 1,28,-1
 274.3203125 50.400390625 l 1,29,-1
 275.400390625 41.0400390625 l 1,30,31
 275.400390625 29.8798828125 275.400390625 29.8798828125 270.360351562 21.240234375 c 0,32,33
 269.280273438 18.7197265625 269.280273438 18.7197265625 258.48046875 7.5595703125 c 1,34,-1
 245.51953125 1.7998046875 l 1,35,-1
 233.639648438 0.3603515625 l 1,36,-1
 223.919921875 1.4404296875 l 1,37,-1
 217.080078125 2.51953125 l 1,38,-1
 205.559570312 2.8798828125 l 2,39,40
 199.799804688 2.8798828125 199.799804688 2.8798828125 195.120117188 4.3203125 c 1,41,-1
 180.719726562 7.2001953125 l 1,42,-1
 169.559570312 11.8798828125 l 2,43,44
 164.16015625 14.0400390625 164.16015625 14.0400390625 148.3203125 23.759765625 c 1,45,-1
 138.240234375 31.3203125 l 1,46,-1
 127.799804688 40.6796875 l 1,47,48
 88.5595703125 77.759765625 88.5595703125 77.759765625 88.5595703125 132.83984375 c 0,49,50
 88.5595703125 180 88.5595703125 180 126.360351562 222.48046875 c 128,-1,51
 164.16015625 264.959960938 164.16015625 264.959960938 218.51953125 264.959960938 c 0,52,53
 260.280273438 264.959960938 260.280273438 264.959960938 303.120117188 234.719726562 c 1,54,55
 348.83984375 196.559570312 348.83984375 196.559570312 348.83984375 132.83984375 c 0,56,57
 348.83984375 92.16015625 348.83984375 92.16015625 380.51953125 59.400390625 c 1,58,59
 413.639648438 28.4404296875 413.639648438 28.4404296875 455.759765625 28.4404296875 c 0,60,61
 496.080078125 28.4404296875 496.080078125 28.4404296875 528.299804688 59.580078125 c 128,-1,62
 560.51953125 90.7197265625 560.51953125 90.7197265625 560.51953125 135.360351562 c 0,63,64
 560.51953125 160.559570312 560.51953125 160.559570312 556.559570312 168.83984375 c 1,65,66
 555.83984375 172.799804688 555.83984375 172.799804688 554.759765625 174.599609375 c 2,67,-1
 551.51953125 181.799804688 l 1,68,69
 548.280273438 190.080078125 548.280273438 190.080078125 541.799804688 199.080078125 c 1,70,71
 533.16015625 214.200195312 533.16015625 214.200195312 516.599609375 229.6796875 c 1,72,-1
 505.799804688 238.6796875 l 1,73,-1
 491.400390625 250.200195312 l 1,74,-1
 491.040039062 245.51953125 l 1,75,-1
 491.040039062 241.559570312 l 2,76,77
 491.040039062 237.959960938 491.040039062 237.959960938 490.3203125 237.240234375 c 0,78,79
 488.16015625 232.559570312 488.16015625 232.559570312 477 224.280273438 c 0,80,81
 468 217.440429688 468 217.440429688 453.959960938 217.440429688 c 0,82,83
 442.799804688 217.440429688 442.799804688 217.440429688 437.580078125 220.139648438 c 128,-1,84
 432.360351562 222.83984375 432.360351562 222.83984375 423.719726562 230.400390625 c 1,85,86
 418.3203125 236.879882812 418.3203125 236.879882812 416.16015625 242.8203125 c 128,-1,87
 414 248.759765625 414 248.759765625 414 255.240234375 c 0,88,89
 414 261.360351562 414 261.360351562 417.240234375 269.280273438 c 128,-1,90
 420.48046875 277.200195312 420.48046875 277.200195312 427.3203125 284.040039062 c 0,91,92
 429.48046875 286.200195312 429.48046875 286.200195312 446.400390625 287.639648438 c 1,93,-1
 465.48046875 289.799804688 l 1,94,-1
 474.48046875 286.200195312 l 1,95,96
 513.719726562 271.080078125 513.719726562 271.080078125 534.959960938 253.440429688 c 1,97,98
 552.959960938 239.400390625 552.959960938 239.400390625 561.959960938 221.759765625 c 0,99,100
 573.48046875 198.719726562 573.48046875 198.719726562 579.240234375 178.200195312 c 0,101,102
 582.120117188 167.040039062 582.120117188 167.040039062 583.559570312 157.139648438 c 128,-1,103
 585 147.240234375 585 147.240234375 585 135.360351562 c 0,104,105
 585 84.599609375 585 84.599609375 547.919921875 44.2802734375 c 128,-1,106
 510.83984375 3.9599609375 510.83984375 3.9599609375 455.759765625 3.9599609375 c 0,107,108
 447.83984375 3.9599609375 447.83984375 3.9599609375 425.51953125 7.2001953125 c 128,-1,109
 403.200195312 10.4404296875 403.200195312 10.4404296875 388.799804688 16.2001953125 c 1,110,-1
 376.919921875 -36 l 2,111,112
 368.280273438 -74.51953125 368.280273438 -74.51953125 360 -89.6396484375 c 1,113,114
 352.440429688 -109.440429688 352.440429688 -109.440429688 321.48046875 -135.360351562 c 1,115,116
 287.280273438 -164.51953125 287.280273438 -164.51953125 263.16015625 -164.51953125 c 0,117,118
 201.959960938 -164.51953125 201.959960938 -164.51953125 176.400390625 -160.200195312 c 1,119,120
 138.599609375 -152.639648438 138.599609375 -152.639648438 107.639648438 -122.759765625 c 128,-1,121
 76.6796875 -92.8798828125 76.6796875 -92.8798828125 66.599609375 -78.83984375 c 1,122,-1
 62.2802734375 -71.6396484375 l 1,123,-1
 56.16015625 -60.1201171875 l 1,124,-1
 39.599609375 -24.1201171875 l 2,125,126
 35.2802734375 -14.400390625 35.2802734375 -14.400390625 32.0400390625 -1.4404296875 c 2,127,-1
 29.16015625 11.16015625 l 1,128,-1
 26.2802734375 26.6396484375 l 1,129,130
 21.9599609375 56.51953125 21.9599609375 56.51953125 21.9599609375 91.7998046875 c 1,131,-1
 22.6796875 113.759765625 l 1,132,-1
 23.400390625 136.080078125 l 1,133,-1
 24.48046875 156.599609375 l 1,134,-1
 25.919921875 171 l 1,135,-1
 28.080078125 180.719726562 l 1,136,137
 34.2001953125 224.639648438 34.2001953125 224.639648438 42.1201171875 247.6796875 c 1,138,139
 55.080078125 282.240234375 55.080078125 282.240234375 68.0400390625 303.120117188 c 1,140,141
 84.240234375 324.719726562 84.240234375 324.719726562 120.599609375 346.6796875 c 1,142,143
 154.080078125 366.120117188 154.080078125 366.120117188 181.080078125 369.360351562 c 1,144,-1
 196.200195312 369.719726562 l 1,145,-1
 210.240234375 370.080078125 l 1,146,-1
 244.799804688 372.959960938 l 1,147,-1
 264.599609375 374.040039062 l 1,148,-1
 284.040039062 376.919921875 l 1,149,-1
 299.16015625 379.440429688 l 2,150,151
 307.440429688 380.51953125 307.440429688 380.51953125 315 383.040039062 c 1,152,153
 358.919921875 391.6796875 358.919921875 391.6796875 377.639648438 407.51953125 c 1,154,155
 401.400390625 422.280273438 401.400390625 422.280273438 410.759765625 456.120117188 c 1,156,157
 412.919921875 468.360351562 412.919921875 468.360351562 416.16015625 478.440429688 c 0,158,159
 418.3203125 484.919921875 418.3203125 484.919921875 421.919921875 486 c 1,160,161
 424.080078125 486 424.080078125 486 426.599609375 475.919921875 c 1,162,-1
 428.400390625 465.120117188 l 1,163,-1
 429.120117188 452.879882812 l 1,164,-1
 429.120117188 443.879882812 l 1,165,-1
 428.400390625 438.48046875 l 1,166,167
 428.400390625 419.040039062 428.400390625 419.040039062 410.940429688 401.759765625 c 128,-1,168
 393.48046875 384.48046875 393.48046875 384.48046875 357.83984375 369.360351562 c 1,169,-1
 330.48046875 359.280273438 l 1,170,-1
 301.6796875 351.360351562 l 1,171,172
 271.080078125 345.240234375 271.080078125 345.240234375 246.959960938 345.240234375 c 1,173,-1
 225.360351562 345.599609375 l 1,174,-1
 207.360351562 345.959960938 l 2,175,176
 191.16015625 345.959960938 191.16015625 345.959960938 176.040039062 342.719726562 c 1,177,178
 168.120117188 341.639648438 168.120117188 341.639648438 160.919921875 338.040039062 c 1,179,-1
 153.360351562 334.799804688 l 1,180,-1
 143.639648438 330.120117188 l 2,181,182
 132.48046875 324.719726562 132.48046875 324.719726562 116.280273438 313.919921875 c 1,183,184
 108 308.879882812 108 308.879882812 98.2802734375 297.360351562 c 1,185,-1
 91.7998046875 288.360351562 l 1,186,-1
 84.599609375 276.83984375 l 1,187,-1
 79.919921875 267.120117188 l 1,188,-1
 69.83984375 245.879882812 l 1,189,190
 62.2802734375 227.51953125 62.2802734375 227.51953125 57.0595703125 178.919921875 c 128,-1,191
 51.83984375 130.3203125 51.83984375 130.3203125 51.83984375 96.48046875 c 0,192,193
 51.83984375 56.16015625 51.83984375 56.16015625 56.16015625 21.240234375 c 128,-1,194
 60.48046875 -13.6796875 60.48046875 -13.6796875 70.2001953125 -34.2001953125 c 1,195,196
 89.6396484375 -69.83984375 89.6396484375 -69.83984375 101.879882812 -83.16015625 c 0,197,198
 115.919921875 -98.2802734375 115.919921875 -98.2802734375 147.599609375 -117 c 2,199,-1
 163.080078125 -126 l 1,200,-1
 175.3203125 -131.040039062 l 1,201,202
 186.48046875 -135 186.48046875 -135 198.719726562 -135 c 1,203,-1
 225.719726562 -133.919921875 l 1,204,-1
 257.400390625 -133.200195312 l 1,205,206
 299.16015625 -133.200195312 299.16015625 -133.200195312 321.48046875 -99 c 1,207,-1
 336.599609375 -70.2001953125 l 1,208,-1
 346.3203125 -48.599609375 l 1,209,-1
 354.599609375 -26.6396484375 l 1,210,-1
 360.360351562 -4.6796875 l 1,211,-1
 367.200195312 27 l 1,0,1
EndSplineSet
Ligature2: "'clig' Contextual Ligatures lookup 7 subtable" uAA7A u103C
Ligature2: "'clig' Contextual Ligatures lookup 5 subtable" uAA7A u1031
MultipleSubs2: "Multiple Substitution lookup 2 subtable" guard u103C uAA7A
MultipleSubs2: "Multiple Substitution lookup 1 subtable" guard u103C.udia uAA7A
MultipleSubs2: "Multiple Substitution lookup 0 subtable" guard u1031 uAA7A
EndChar

StartChar: u1019
Encoding: 4121 4121 37
Width: 303
VWidth: 360
GlyphClass: 3
Flags: W
AnchorPoint: "Anchor-3" 163.44 249.84 basechar 0
AnchorPoint: "Anchor-2" 155.52 0 basechar 0
AnchorPoint: "Anchor-1" 155.52 0 basechar 0
AnchorPoint: "Anchor-0" 252 0 basechar 0
LayerCount: 2
Fore
SplineSet
285.48046875 127.440429688 m 1,0,1
 285.48046875 101.879882812 285.48046875 101.879882812 276.66015625 80.6396484375 c 128,-1,2
 267.83984375 59.400390625 267.83984375 59.400390625 245.879882812 36.3603515625 c 1,3,4
 209.879882812 -2.8798828125 209.879882812 -2.8798828125 154.080078125 -2.8798828125 c 0,5,6
 138.959960938 -2.8798828125 138.959960938 -2.8798828125 126.900390625 -0.7197265625 c 128,-1,7
 114.83984375 1.4404296875 114.83984375 1.4404296875 104.400390625 6.48046875 c 1,8,-1
 92.8798828125 11.16015625 l 1,9,-1
 82.4404296875 16.919921875 l 1,10,-1
 70.5595703125 25.2001953125 l 1,11,-1
 61.5595703125 32.400390625 l 1,12,-1
 52.919921875 40.6796875 l 1,13,-1
 45 50.759765625 l 1,14,15
 38.8798828125 57.9599609375 38.8798828125 57.9599609375 30.599609375 74.51953125 c 1,16,-1
 21.9599609375 100.799804688 l 1,17,-1
 18.7197265625 128.879882812 l 1,18,19
 18.7197265625 150.48046875 18.7197265625 150.48046875 20.16015625 160.559570312 c 1,20,-1
 21.240234375 174.240234375 l 2,21,22
 21.240234375 177.83984375 21.240234375 177.83984375 22.6796875 182.16015625 c 2,23,-1
 25.2001953125 191.879882812 l 2,24,25
 28.080078125 201.599609375 28.080078125 201.599609375 31.8603515625 210.240234375 c 128,-1,26
 35.6396484375 218.879882812 35.6396484375 218.879882812 41.400390625 226.440429688 c 1,27,-1
 46.080078125 233.639648438 l 1,28,-1
 50.759765625 239.400390625 l 1,29,-1
 58.6796875 247.6796875 l 1,30,31
 71.6396484375 257.400390625 71.6396484375 257.400390625 90.7197265625 257.400390625 c 0,32,33
 104.400390625 257.400390625 104.400390625 257.400390625 115.200195312 249.120117188 c 1,34,35
 129.240234375 237.240234375 129.240234375 237.240234375 129.240234375 218.16015625 c 0,36,37
 129.240234375 200.879882812 129.240234375 200.879882812 115.200195312 187.919921875 c 0,38,39
 103.6796875 177.48046875 103.6796875 177.48046875 90.3603515625 177.48046875 c 1,40,-1
 82.7998046875 177.120117188 l 1,41,-1
 72.7197265625 177.48046875 l 1,42,-1
 66.599609375 180 l 1,43,-1
 60.48046875 185.040039062 l 1,44,-1
 55.080078125 176.400390625 l 1,45,-1
 51.48046875 159.83984375 l 1,46,-1
 50.0400390625 151.919921875 l 1,47,-1
 49.6796875 142.559570312 l 1,48,-1
 49.6796875 135.719726562 l 1,49,-1
 50.0400390625 128.879882812 l 1,50,-1
 50.0400390625 114.83984375 l 1,51,-1
 51.48046875 104.759765625 l 1,52,-1
 52.919921875 96.83984375 l 2,53,54
 53.6396484375 93.599609375 53.6396484375 93.599609375 56.51953125 87.48046875 c 2,55,-1
 59.0400390625 81.7197265625 l 1,56,57
 72.3603515625 96.48046875 72.3603515625 96.48046875 99.7197265625 111.599609375 c 1,58,-1
 111.599609375 116.280273438 l 1,59,-1
 126 120.959960938 l 1,60,61
 138.959960938 124.200195312 138.959960938 124.200195312 153.360351562 124.200195312 c 0,62,63
 207.360351562 124.200195312 207.360351562 124.200195312 243.719726562 82.4404296875 c 1,64,-1
 246.599609375 88.2001953125 l 1,65,66
 255.599609375 108.360351562 255.599609375 108.360351562 255.599609375 127.440429688 c 0,67,68
 255.599609375 160.919921875 255.599609375 160.919921875 239.400390625 192.240234375 c 1,69,70
 236.51953125 198.719726562 236.51953125 198.719726562 227.51953125 209.879882812 c 1,71,-1
 211.3203125 225.360351562 l 1,72,-1
 205.919921875 230.400390625 l 1,73,-1
 203.400390625 235.080078125 l 1,74,-1
 202.6796875 243 l 1,75,-1
 203.040039062 244.440429688 l 1,76,77
 205.200195312 248.759765625 205.200195312 248.759765625 212.400390625 252.360351562 c 1,78,-1
 224.280273438 252 l 1,79,-1
 244.799804688 232.919921875 l 1,80,81
 246.599609375 232.200195312 246.599609375 232.200195312 253.440429688 222.48046875 c 1,82,-1
 264.599609375 207.719726562 l 1,83,-1
 273.240234375 190.440429688 l 1,84,-1
 280.440429688 168.83984375 l 1,85,-1
 284.040039062 147.959960938 l 1,86,-1
 285.48046875 127.440429688 l 1,0,1
229.6796875 62.2802734375 m 1,87,88
 218.879882812 78.1201171875 218.879882812 78.1201171875 196.379882812 89.4599609375 c 128,-1,89
 173.879882812 100.799804688 173.879882812 100.799804688 154.080078125 100.799804688 c 0,90,91
 127.799804688 100.799804688 127.799804688 100.799804688 107.280273438 90.7197265625 c 0,92,93
 88.919921875 82.080078125 88.919921875 82.080078125 73.4404296875 62.2802734375 c 1,94,-1
 79.2001953125 56.8798828125 l 1,95,-1
 95.0400390625 44.6396484375 l 1,96,-1
 105.83984375 38.51953125 l 1,97,-1
 112.6796875 34.919921875 l 1,98,-1
 135 29.8798828125 l 1,99,100
 146.879882812 27.7197265625 146.879882812 27.7197265625 154.080078125 27.7197265625 c 0,101,102
 174.599609375 27.7197265625 174.599609375 27.7197265625 191.879882812 35.2802734375 c 128,-1,103
 209.16015625 42.83984375 209.16015625 42.83984375 224.639648438 57.240234375 c 1,104,-1
 229.6796875 62.2802734375 l 1,87,88
EndSplineSet
Ligature2: "'clig' Contextual Ligatures lookup 7 subtable" u1019 u103C
Ligature2: "'clig' Contextual Ligatures lookup 5 subtable" u1019 u1031
MultipleSubs2: "Multiple Substitution lookup 2 subtable" guard u103C.nar u1019
MultipleSubs2: "Multiple Substitution lookup 1 subtable" guard u103C.nar.udia u1019
MultipleSubs2: "Multiple Substitution lookup 0 subtable" guard u1031 u1019
EndChar

StartChar: u1000.sub
Encoding: 65539 -1 38
Width: 0
VWidth: 360
GlyphClass: 4
Flags: W
AnchorPoint: "Anchor-2" -270 0 mark 0
LayerCount: 2
Fore
SplineSet
-270 -213.83984375 m 0,0,1
 -276.48046875 -213.83984375 -276.48046875 -213.83984375 -279.719726562 -198.360351562 c 1,2,-1
 -284.040039062 -173.879882812 l 1,3,-1
 -282.959960938 -147.959960938 l 1,4,-1
 -283.3203125 -141.120117188 l 1,5,-1
 -283.6796875 -131.759765625 l 1,6,-1
 -282.240234375 -119.51953125 l 1,7,8
 -282.240234375 -83.8798828125 -282.240234375 -83.8798828125 -307.440429688 -58.5 c 128,-1,9
 -332.639648438 -33.1201171875 -332.639648438 -33.1201171875 -368.639648438 -33.1201171875 c 0,10,11
 -398.879882812 -33.1201171875 -398.879882812 -33.1201171875 -429.83984375 -57.599609375 c 1,12,13
 -454.6796875 -84.599609375 -454.6796875 -84.599609375 -454.6796875 -119.51953125 c 0,14,15
 -454.6796875 -141.48046875 -454.6796875 -141.48046875 -441.360351562 -169.559570312 c 1,16,17
 -428.759765625 -190.080078125 -428.759765625 -190.080078125 -403.919921875 -205.559570312 c 1,18,-1
 -378.719726562 -210.959960938 l 1,19,20
 -371.16015625 -213.120117188 -371.16015625 -213.120117188 -369.360351562 -216 c 1,21,-1
 -369 -224.639648438 l 1,22,23
 -369.719726562 -228.240234375 -369.719726562 -228.240234375 -372.959960938 -231.120117188 c 0,24,25
 -374.040039062 -232.200195312 -374.040039062 -232.200195312 -383.759765625 -233.280273438 c 2,26,-1
 -395.280273438 -234.360351562 l 1,27,-1
 -414 -230.040039062 l 1,28,29
 -443.16015625 -217.080078125 -443.16015625 -217.080078125 -462.959960938 -184.3203125 c 1,30,31
 -479.879882812 -152.280273438 -479.879882812 -152.280273438 -479.879882812 -119.51953125 c 0,32,33
 -479.879882812 -75.240234375 -479.879882812 -75.240234375 -448.559570312 -41.759765625 c 128,-1,34
 -417.240234375 -8.2802734375 -417.240234375 -8.2802734375 -368.639648438 -8.2802734375 c 0,35,36
 -356.040039062 -8.2802734375 -356.040039062 -8.2802734375 -338.759765625 -11.51953125 c 0,37,38
 -332.280273438 -12.599609375 -332.280273438 -12.599609375 -324.719726562 -15.83984375 c 1,39,40
 -315.719726562 -18.7197265625 -315.719726562 -18.7197265625 -309.599609375 -22.6796875 c 0,41,42
 -288 -37.4404296875 -288 -37.4404296875 -269.639648438 -66.9599609375 c 1,43,44
 -259.200195312 -43.919921875 -259.200195312 -43.919921875 -228.959960938 -23.759765625 c 1,45,-1
 -201.240234375 -11.8798828125 l 1,46,-1
 -180.360351562 -8.2802734375 l 1,47,-1
 -171 -8.2802734375 l 2,48,49
 -127.440429688 -8.2802734375 -127.440429688 -8.2802734375 -93.0595703125 -39.599609375 c 128,-1,50
 -58.6796875 -70.919921875 -58.6796875 -70.919921875 -58.6796875 -119.51953125 c 0,51,52
 -58.6796875 -164.879882812 -58.6796875 -164.879882812 -91.080078125 -198.360351562 c 2,53,-1
 -111.599609375 -219.599609375 l 1,54,55
 -127.440429688 -235.440429688 -127.440429688 -235.440429688 -139.3203125 -235.440429688 c 1,56,-1
 -162 -236.51953125 l 1,57,-1
 -176.759765625 -232.200195312 l 1,58,59
 -181.080078125 -230.400390625 -181.080078125 -230.400390625 -186.120117188 -220.3203125 c 1,60,61
 -186.120117188 -213.48046875 -186.120117188 -213.48046875 -182.51953125 -208.440429688 c 1,62,-1
 -173.16015625 -207 l 1,63,-1
 -143.639648438 -210.959960938 l 1,64,65
 -135 -208.799804688 -135 -208.799804688 -123.83984375 -196.559570312 c 2,66,-1
 -108.719726562 -180.360351562 l 1,67,68
 -83.8798828125 -155.51953125 -83.8798828125 -155.51953125 -83.8798828125 -119.51953125 c 0,69,70
 -83.8798828125 -84.9599609375 -83.8798828125 -84.9599609375 -109.080078125 -58.3203125 c 1,71,72
 -136.440429688 -33.1201171875 -136.440429688 -33.1201171875 -171 -33.1201171875 c 0,73,74
 -183.599609375 -33.1201171875 -183.599609375 -33.1201171875 -200.879882812 -38.51953125 c 0,75,76
 -209.879882812 -41.400390625 -209.879882812 -41.400390625 -216 -45.3603515625 c 1,77,-1
 -231.48046875 -57.599609375 l 1,78,79
 -256.3203125 -84.599609375 -256.3203125 -84.599609375 -256.3203125 -119.51953125 c 1,80,-1
 -255.959960938 -137.51953125 l 1,81,-1
 -255.599609375 -150.83984375 l 1,82,-1
 -255.959960938 -161.639648438 l 1,83,-1
 -258.120117188 -174.959960938 l 1,84,-1
 -258.83984375 -181.080078125 l 1,85,-1
 -258.83984375 -186.83984375 l 1,86,-1
 -258.83984375 -193.3203125 l 1,87,-1
 -259.200195312 -204.48046875 l 1,88,89
 -261 -213.83984375 -261 -213.83984375 -270 -213.83984375 c 0,0,1
EndSplineSet
Ligature2: "'clig' Contextual Ligatures lookup 7 subtable" u1000.sub u103C
Ligature2: "'clig' Contextual Ligatures lookup 5 subtable" u1000.sub u1031
Ligature2: "'clig' Contextual Ligatures lookup 3 subtable" u1039 u1000
EndChar

StartChar: u1010.sub
Encoding: 65540 -1 39
Width: 0
VWidth: 360
GlyphClass: 4
Flags: W
AnchorPoint: "Anchor-2" -277.92 0 mark 0
LayerCount: 2
Fore
SplineSet
-290.16015625 -133.200195312 m 1,0,-1
 -290.879882812 -115.559570312 l 1,1,-1
 -291.959960938 -105.83984375 l 1,2,3
 -291.959960938 -102.240234375 -291.959960938 -102.240234375 -293.759765625 -98.2802734375 c 1,4,5
 -294.83984375 -93.9599609375 -294.83984375 -93.9599609375 -299.51953125 -84.7802734375 c 128,-1,6
 -304.200195312 -75.599609375 -304.200195312 -75.599609375 -318.959960938 -61.919921875 c 1,7,8
 -345.240234375 -41.0400390625 -345.240234375 -41.0400390625 -377.280273438 -41.0400390625 c 0,9,10
 -412.559570312 -41.0400390625 -412.559570312 -41.0400390625 -437.759765625 -66.240234375 c 0,11,12
 -451.080078125 -79.5595703125 -451.080078125 -79.5595703125 -457.379882812 -94.1396484375 c 128,-1,13
 -463.6796875 -108.719726562 -463.6796875 -108.719726562 -463.6796875 -127.440429688 c 0,14,15
 -463.6796875 -160.919921875 -463.6796875 -160.919921875 -438.66015625 -187.559570312 c 128,-1,16
 -413.639648438 -214.200195312 -413.639648438 -214.200195312 -377.280273438 -214.200195312 c 0,17,18
 -360 -214.200195312 -360 -214.200195312 -345.419921875 -208.620117188 c 128,-1,19
 -330.83984375 -203.040039062 -330.83984375 -203.040039062 -316.080078125 -190.799804688 c 1,20,21
 -290.16015625 -168.120117188 -290.16015625 -168.120117188 -290.16015625 -133.200195312 c 1,0,-1
-277.919921875 -74.16015625 m 1,22,23
 -264.959960938 -48.240234375 -264.959960938 -48.240234375 -237.780273438 -31.8603515625 c 128,-1,24
 -210.599609375 -15.48046875 -210.599609375 -15.48046875 -179.639648438 -15.48046875 c 0,25,26
 -131.759765625 -15.48046875 -131.759765625 -15.48046875 -99.3603515625 -47.7001953125 c 128,-1,27
 -66.9599609375 -79.919921875 -66.9599609375 -79.919921875 -66.9599609375 -127.440429688 c 0,28,29
 -66.9599609375 -173.879882812 -66.9599609375 -173.879882812 -100.080078125 -207 c 128,-1,30
 -133.200195312 -240.120117188 -133.200195312 -240.120117188 -179.639648438 -240.120117188 c 1,31,-1
 -186.120117188 -239.759765625 l 1,32,-1
 -192.599609375 -238.6796875 l 1,33,-1
 -199.440429688 -237.240234375 l 1,34,35
 -203.040039062 -237.240234375 -203.040039062 -237.240234375 -206.099609375 -235.98046875 c 128,-1,36
 -209.16015625 -234.719726562 -209.16015625 -234.719726562 -213.48046875 -223.919921875 c 1,37,38
 -213.48046875 -221.400390625 -213.48046875 -221.400390625 -209.16015625 -212.759765625 c 1,39,-1
 -202.6796875 -210.959960938 l 1,40,-1
 -197.280273438 -211.3203125 l 1,41,-1
 -179.639648438 -214.200195312 l 1,42,43
 -167.759765625 -214.200195312 -167.759765625 -214.200195312 -160.919921875 -213.120117188 c 128,-1,44
 -154.080078125 -212.040039062 -154.080078125 -212.040039062 -146.879882812 -208.440429688 c 0,45,46
 -135 -203.040039062 -135 -203.040039062 -118.440429688 -188.639648438 c 1,47,48
 -92.8798828125 -163.080078125 -92.8798828125 -163.080078125 -92.8798828125 -127.440429688 c 0,49,50
 -92.8798828125 -92.51953125 -92.8798828125 -92.51953125 -118.440429688 -66.9599609375 c 0,51,52
 -127.799804688 -57.599609375 -127.799804688 -57.599609375 -146.51953125 -47.16015625 c 1,53,54
 -162 -41.0400390625 -162 -41.0400390625 -179.639648438 -41.0400390625 c 0,55,56
 -211.6796875 -41.0400390625 -211.6796875 -41.0400390625 -236.33984375 -62.4599609375 c 128,-1,57
 -261 -83.8798828125 -261 -83.8798828125 -265.3203125 -115.559570312 c 1,58,-1
 -264.599609375 -127.440429688 l 1,59,60
 -264.599609375 -173.879882812 -264.599609375 -173.879882812 -297.719726562 -207 c 128,-1,61
 -330.83984375 -240.120117188 -330.83984375 -240.120117188 -377.280273438 -240.120117188 c 0,62,63
 -421.919921875 -240.120117188 -421.919921875 -240.120117188 -455.580078125 -207.1796875 c 128,-1,64
 -489.240234375 -174.240234375 -489.240234375 -174.240234375 -489.240234375 -127.440429688 c 0,65,66
 -489.240234375 -81 -489.240234375 -81 -456.48046875 -48.240234375 c 128,-1,67
 -423.719726562 -15.48046875 -423.719726562 -15.48046875 -377.280273438 -15.48046875 c 0,68,69
 -345.959960938 -15.48046875 -345.959960938 -15.48046875 -318.959960938 -31.6796875 c 1,70,71
 -293.040039062 -46.4404296875 -293.040039062 -46.4404296875 -277.919921875 -74.16015625 c 1,22,23
EndSplineSet
Ligature2: "'clig' Contextual Ligatures lookup 7 subtable" u1010.sub u103C
Ligature2: "'clig' Contextual Ligatures lookup 5 subtable" u1010.sub u1031
Ligature2: "'clig' Contextual Ligatures lookup 3 subtable" u1039 u1010
EndChar

